<svg width="877" height="533" viewBox="0 0 877 533" fill="none" xmlns="http://www.w3.org/2000/svg">
<path d="M392.663 64.9507C383.363 67.0507 371.363 72.0507 362.663 77.5507C355.363 82.0507 333.363 104.251 327.863 112.551C310.463 138.951 298.763 170.351 296.163 196.951C293.263 227.451 291.963 337.451 293.963 393.951C295.663 443.651 296.963 452.451 305.763 470.651C310.763 481.151 317.263 488.551 329.163 497.251C332.163 499.451 336.463 502.951 338.663 505.051C342.663 508.851 348.563 511.951 351.863 511.951C352.863 511.951 354.163 512.951 354.663 514.051C355.363 515.551 358.363 517.151 364.663 519.251C373.463 522.251 374.163 522.351 392.163 522.351C413.163 522.351 416.763 521.651 433.663 513.151C449.863 505.051 459.763 497.251 469.063 484.851C479.063 471.551 485.563 456.551 492.563 430.551C501.163 398.551 504.563 377.751 507.163 340.951C507.663 332.951 508.563 321.451 509.163 315.451C511.963 283.151 515.163 210.451 515.163 176.051C515.163 153.051 513.663 137.451 510.463 128.051C506.563 116.451 487.063 91.5507 474.363 82.0507C465.663 75.4507 451.663 68.5507 441.663 65.9507C429.463 62.7507 404.763 62.2507 392.663 64.9507ZM427.663 75.0507C454.063 78.2507 475.163 92.4507 493.063 119.151C499.663 128.951 500.763 131.751 502.663 142.551C507.663 171.551 499.463 342.151 490.563 391.451C481.463 442.451 468.263 474.751 450.463 489.551C440.363 497.951 428.263 504.851 416.063 509.051C406.663 512.251 381.863 512.951 369.163 510.351C362.163 508.951 360.163 508.151 360.163 506.951C360.163 504.551 357.263 502.351 353.163 501.551C350.963 501.151 347.663 499.151 344.163 495.851C341.163 493.151 336.463 489.351 333.663 487.451C324.063 481.051 318.163 473.651 312.663 460.951C306.363 446.751 305.563 439.051 304.163 382.351C302.863 326.051 304.163 229.651 306.663 201.951C308.463 182.251 315.463 154.251 320.463 146.751C321.763 144.951 324.863 139.451 327.463 134.551C335.363 119.651 340.563 112.851 353.563 100.151C364.163 89.8507 367.363 87.3507 374.863 83.6507C385.363 78.3507 388.163 77.4507 398.663 75.5507C408.563 73.7507 416.063 73.6507 427.663 75.0507Z" fill="white"/>
<path d="M427.663 75.0507C454.063 78.2507 475.163 92.4507 493.063 119.151C499.663 128.951 500.763 131.751 502.663 142.551C507.663 171.551 499.463 342.151 490.563 391.451C481.463 442.451 468.263 474.751 450.463 489.551C440.363 497.951 428.263 504.851 416.063 509.051C406.663 512.251 381.863 512.951 369.163 510.351C362.163 508.951 360.163 508.151 360.163 506.951C360.163 504.551 357.263 502.351 353.163 501.551C350.963 501.151 347.663 499.151 344.163 495.851C341.163 493.151 336.463 489.351 333.663 487.451C324.063 481.051 318.163 473.651 312.663 460.951C306.363 446.751 305.563 439.051 304.163 382.351C302.863 326.051 304.163 229.651 306.663 201.951C308.463 182.251 315.463 154.251 320.463 146.751C321.763 144.951 324.863 139.451 327.463 134.551C335.363 119.651 340.563 112.851 353.563 100.151C364.163 89.8507 367.363 87.3507 374.863 83.6507C385.363 78.3507 388.163 77.4507 398.663 75.5507C408.563 73.7507 416.063 73.6507 427.663 75.0507Z" fill="white"/>
<path d="M769.665 2.41C768.925 3.8647 767.378 8.04694 766.099 11.7746C764.889 15.5022 761.996 23.7758 759.641 30.0492C753.856 45.869 749.416 60.4159 745.178 77.9632L741.546 92.6919L739 100C737.184 99.6363 733.336 106.455 733 106C731.52 104.182 730.718 103.318 725 109.5C721.637 113.137 717.644 109.694 716.5 110.966C715.289 112.239 712.956 109.148 711.342 110.966C706.7 116.149 686.788 131.423 675.352 138.606C662.504 146.606 657.728 149.061 654.835 149.061C652.279 149.061 651.337 150.88 652.481 153.789C652.884 154.789 653.019 156.153 652.817 156.971C652.615 157.699 652.75 159.153 653.153 160.153C653.759 161.608 654.364 161.881 656.315 161.517C677.976 157.608 690.555 157.244 709.593 159.971C723.719 162.063 727.486 163.063 729.505 165.245C732.599 168.7 737.711 194.975 740.268 220.432C741.546 233.615 741.882 240.707 741.882 256.981C741.882 273.529 742.084 278.074 743.026 282.257C743.968 286.257 744.573 287.439 745.851 287.894C747.802 288.53 749.282 286.257 749.282 282.529C749.282 281.075 749.551 279.256 749.955 278.347C750.291 277.529 751.838 270.892 753.385 263.618C754.933 256.345 757.422 246.708 758.834 242.253C760.314 237.707 762.669 229.979 764.149 224.978C766.974 215.523 773.701 196.884 777.535 188.156C778.746 185.429 781.639 179.61 784.06 175.246C788.029 168.154 788.568 167.427 790.653 167.427C791.931 167.427 798.927 164.699 806.259 161.335C827.584 151.516 829.4 150.971 839.76 149.97C864.044 147.607 870.368 146.243 870.368 143.243C870.368 142.606 871.713 141.697 873.597 141.242C876.086 140.606 876.826 139.969 876.96 138.515C877.162 136.696 876.758 136.515 871.915 135.969C863.506 135.06 856.241 133.423 856.241 132.605C856.241 132.241 855.232 131.696 854.088 131.423C837.607 127.877 837.607 127.877 818.234 120.24C811.237 117.513 802.896 113.967 799.734 112.33C796.573 110.603 793.075 109.057 791.864 108.694C790.72 108.33 789.442 107.512 789.106 106.966C787.962 105.148 782.917 64.5072 782.244 52.0514C781.908 45.6871 781.571 31.9585 781.571 21.5938C781.571 5.77399 781.437 2.59185 780.495 1.40991C779.217 -0.408455 777.939 -0.408479 776.593 1.31897C776.055 2.04632 775.315 2.68277 774.979 2.68277C774.575 2.68277 774.172 2.04632 773.903 1.31897C773.297 -0.86307 771.01 -0.226628 769.665 2.41ZM773.634 24.9578C773.365 38.4137 775.248 64.78 777.603 80.4179C779.217 91.3281 784.599 113.603 786.617 117.513C788.702 121.786 791.796 124.15 799.667 127.605C809.556 131.878 818.099 134.242 828.324 135.424C833.167 135.969 838.751 136.605 840.769 136.969L844.469 137.424L837.405 140.06C833.504 141.515 827.92 143.061 824.961 143.606C817.494 144.97 801.82 150.243 795.362 153.425C783.657 159.335 782.244 160.79 775.988 173.427C772.154 181.337 762.736 203.521 762.736 204.794C762.736 205.067 760.583 211.522 757.96 219.25C755.336 226.887 752.309 236.616 751.233 240.889C749.887 246.344 749.349 247.799 749.349 245.889C749.282 244.344 748.878 238.889 748.34 233.615C747.802 228.342 746.86 218.977 746.255 212.704C744.102 190.429 740.47 169.791 737.106 160.699C735.761 157.244 734.012 155.88 731.926 156.698C731.186 157.062 729.639 156.698 728.361 155.971C727.083 155.244 721.23 153.334 715.311 151.789C706.095 149.334 702.597 148.789 690.892 148.425L677.303 147.879L685.174 141.97C697.013 133.151 710.198 122.695 713.629 119.422C715.916 117.331 727.629 117.182 735.5 112C735.702 111.909 738.182 113.761 738.182 108.5C738.182 110.591 738.519 106.875 739.999 107.057C741.546 107.33 742.017 106.784 743.228 103.511C744.035 101.42 745.717 95.7831 746.995 90.9645C751.165 75.2356 753.453 68.053 756.682 60.9614C758.363 57.0519 761.996 46.96 764.687 38.5046C768.723 26.0488 773.365 12.6838 773.768 12.6838C773.835 12.6838 773.768 18.2298 773.634 24.9578Z" fill="#0038FF"/>
<path d="M84.5169 63.4615C78.2905 64.3088 65.2717 68.8277 56.6868 73.1584C48.7623 77.2066 46.3095 79.1836 35.2718 90.0103C28.385 96.7887 21.7813 104.132 20.4605 106.391C13.5737 118.159 6.4983 144.802 0.460582 181.895C-0.105453 185.755 -0.199793 292.327 0.460582 293.362C1.30964 294.681 3.00774 336.387 3.8568 374.421C4.42283 400.593 5.27188 418.575 6.12094 424.318C6.87565 429.213 7.91338 436.462 8.57376 440.322C10.6492 454.538 14.0454 463.67 18.7624 468.001C19.8945 468.942 21.0265 470.919 21.3096 472.425C21.6869 474.026 23.2907 477.039 24.9888 479.204C26.5926 481.369 29.3284 485.323 30.9322 487.865C33.668 492.102 47.3472 505.564 53.8566 510.46C55.2717 511.495 59.1396 514.414 62.4415 516.956C65.7434 519.498 71.6867 522.981 75.5546 524.77C79.4226 526.559 83.9508 528.63 85.4603 529.477C91.9697 532.772 95.4602 533.149 121.026 532.96C142.536 532.772 147.158 532.49 153.102 530.889C156.875 529.854 162.441 528.536 165.554 527.877C176.781 525.523 191.686 515.732 203.479 502.74C212.63 492.667 215.648 487.959 220.46 476.285C222.724 470.731 225.082 465.365 225.554 464.329C226.875 461.599 229.045 444.747 230.271 428.46C231.686 409.819 230.931 329.42 228.95 284.513C228.101 265.872 227.064 239.606 226.497 226.143C224.328 169.845 221.12 147.721 212.441 129.174C207.347 118.254 202.252 111.193 193.95 103.473C183.667 93.8702 161.781 79.6543 150.366 75.0413C128.762 66.4741 100.083 61.3903 84.5169 63.4615ZM127.441 77.6773C145.837 82.7611 153.951 86.4328 168.951 96.4121C190.271 110.628 196.026 116.559 203.479 131.999C212.913 151.675 215.177 171.163 218.007 253.445C218.573 268.414 219.516 291.291 220.082 304.283C220.837 317.652 221.309 352.109 221.309 383.93V440.134L218.95 442.017C216.875 443.617 216.592 444.841 216.026 452.278C215.46 459.998 212.064 473.273 209.233 478.545C206.969 482.781 191.875 498.974 186.026 503.681C178.762 509.33 166.781 516.109 159.517 518.65C150.554 521.757 133.573 524.111 125.083 523.546C120.932 523.169 113.762 523.452 109.045 524.017C100.177 525.052 95.6489 524.299 90.3659 520.91C89.2338 520.157 85.932 518.65 83.1018 517.521C74.6112 514.226 62.5358 505.376 49.0453 492.572C40.2718 484.288 37.7246 480.804 38.4793 478.168C38.8567 476.756 38.102 475.344 35.6491 473.084C30.3661 468.189 23.668 459.339 21.5926 454.726C19.7058 450.396 16.1209 430.343 14.2341 413.585C13.6681 408.501 12.819 382.8 12.3473 356.628C11.7813 330.455 10.9322 304.942 10.4605 300.047C9.32847 290.162 8.95112 191.216 9.98885 183.684C10.3662 181.142 11.4983 174.364 12.536 168.715C13.4794 162.972 14.7058 156.006 15.1775 153.181C17.0643 141.696 25.7435 115.712 29.6114 110.063C31.0265 108.086 37.0642 101.684 43.0076 95.8472C54.9887 84.2674 60.4604 80.8782 75.5546 75.7944C83.3848 73.1584 84.0452 73.1584 98.6678 73.5349C112.724 73.9115 114.705 74.194 127.441 77.6773Z" fill="white"/>
<path d="M127.441 77.6773C145.837 82.7611 153.951 86.4328 168.951 96.4121C190.271 110.628 196.026 116.559 203.479 131.999C212.913 151.675 215.177 171.163 218.007 253.445C218.573 268.414 219.516 291.291 220.082 304.283C220.837 317.652 221.309 352.109 221.309 383.93V440.134L218.95 442.017C216.875 443.617 216.592 444.841 216.026 452.278C215.46 459.998 212.064 473.273 209.233 478.545C206.969 482.781 191.875 498.974 186.026 503.681C178.762 509.33 166.781 516.109 159.517 518.65C150.554 521.757 133.573 524.111 125.083 523.546C120.932 523.169 113.762 523.452 109.045 524.017C100.177 525.052 95.6489 524.299 90.3659 520.91C89.2338 520.157 85.932 518.65 83.1018 517.521C74.6112 514.226 62.5358 505.376 49.0453 492.572C40.2718 484.288 37.7246 480.804 38.4793 478.168C38.8567 476.756 38.102 475.344 35.6491 473.084C30.3661 468.189 23.668 459.339 21.5926 454.726C19.7058 450.396 16.1209 430.343 14.2341 413.585C13.6681 408.501 12.819 382.8 12.3473 356.628C11.7813 330.455 10.9322 304.942 10.4605 300.047C9.32847 290.162 8.95112 191.216 9.98885 183.684C10.3662 181.142 11.4983 174.364 12.536 168.715C13.4794 162.972 14.7058 156.006 15.1775 153.181C17.0643 141.696 25.7435 115.712 29.6114 110.063C31.0265 108.086 37.0642 101.684 43.0076 95.8472C54.9887 84.2674 60.4604 80.8782 75.5546 75.7944C83.3848 73.1584 84.0452 73.1584 98.6678 73.5349C112.724 73.9115 114.705 74.194 127.441 77.6773Z" fill="white"/>
<path d="M84.5169 63.4615C78.2905 64.3088 65.2717 68.8277 56.6868 73.1584C48.7623 77.2066 46.3095 79.1836 35.2718 90.0103C28.385 96.7887 21.7813 104.132 20.4605 106.391C13.5737 118.159 6.4983 144.802 0.460582 181.895C-0.105453 185.755 -0.199793 292.327 0.460582 293.362C1.30964 294.681 3.00774 336.387 3.8568 374.421C4.42283 400.593 5.27188 418.575 6.12094 424.318C6.87565 429.213 7.91338 436.462 8.57376 440.322C10.6492 454.538 14.0454 463.67 18.7624 468.001C19.8945 468.942 21.0265 470.919 21.3096 472.425C21.6869 474.026 23.2907 477.039 24.9888 479.204C26.5926 481.369 29.3284 485.323 30.9322 487.865C33.668 492.102 47.3472 505.564 53.8566 510.46C55.2717 511.495 59.1396 514.414 62.4415 516.956C65.7434 519.498 71.6867 522.981 75.5546 524.77C79.4226 526.559 83.9508 528.63 85.4603 529.477C91.9697 532.772 95.4602 533.149 121.026 532.96C142.536 532.772 147.158 532.49 153.102 530.889C156.875 529.854 162.441 528.536 165.554 527.877C176.781 525.523 191.686 515.732 203.479 502.74C212.63 492.667 215.648 487.959 220.46 476.285C222.724 470.731 225.082 465.365 225.554 464.329C226.875 461.599 229.045 444.747 230.271 428.46C231.686 409.819 230.931 329.42 228.95 284.513C228.101 265.872 227.064 239.606 226.497 226.143C224.328 169.845 221.12 147.721 212.441 129.174C207.347 118.254 202.252 111.193 193.95 103.473C183.667 93.8702 161.781 79.6543 150.366 75.0413C128.762 66.4741 100.083 61.3903 84.5169 63.4615ZM127.441 77.6773C145.837 82.7611 153.951 86.4328 168.951 96.4121C190.271 110.628 196.026 116.559 203.479 131.999C212.913 151.675 215.177 171.163 218.007 253.445C218.573 268.414 219.516 291.291 220.082 304.283C220.837 317.652 221.309 352.109 221.309 383.93V440.134L218.95 442.017C216.875 443.617 216.592 444.841 216.026 452.278C215.46 459.998 212.064 473.273 209.233 478.545C206.969 482.781 191.875 498.974 186.026 503.681C178.762 509.33 166.781 516.109 159.517 518.65C150.554 521.757 133.573 524.111 125.083 523.546C120.932 523.169 113.762 523.452 109.045 524.017C100.177 525.052 95.6489 524.299 90.3659 520.91C89.2338 520.157 85.932 518.65 83.1018 517.521C74.6112 514.226 62.5358 505.376 49.0453 492.572C40.2718 484.288 37.7246 480.804 38.4793 478.168C38.8567 476.756 38.102 475.344 35.6491 473.084C30.3661 468.189 23.668 459.339 21.5926 454.726C19.7058 450.396 16.1209 430.343 14.2341 413.585C13.6681 408.501 12.819 382.8 12.3473 356.628C11.7813 330.455 10.9322 304.942 10.4605 300.047C9.32847 290.162 8.95112 191.216 9.98885 183.684C10.3662 181.142 11.4983 174.364 12.536 168.715C13.4794 162.972 14.7058 156.006 15.1775 153.181C17.0643 141.696 25.7435 115.712 29.6114 110.063C31.0265 108.086 37.0642 101.684 43.0076 95.8472C54.9887 84.2674 60.4604 80.8782 75.5546 75.7944C83.3848 73.1584 84.0452 73.1584 98.6678 73.5349C112.724 73.9115 114.705 74.194 127.441 77.6773Z" fill="black"/>
<path d="M160.5 220.274C142.395 225.1 125.421 251.216 120.423 282.158C117.877 297.203 118.914 332.593 122.214 348.017C127.212 371.389 129.664 377.35 137.868 386.813C143.526 393.247 151.825 396.181 163.895 395.991C177.757 395.897 193.6 387.854 201.521 377.067C208.028 368.077 212.554 354.641 214.346 338.649C216.609 318.305 212.743 268.343 206.707 240.807C204.35 230.115 203.501 228.411 200.672 228.411C199.446 228.411 197.938 227.844 197.372 227.087C196.806 226.424 194.26 225.289 191.808 224.532C189.356 223.869 185.301 222.355 182.661 221.125C177.286 218.665 167.761 218.287 160.5 220.274Z" fill="black"/>
<path d="M392.588 64.9507C383.288 67.0507 371.288 72.0507 362.588 77.5507C355.288 82.0507 333.288 104.251 327.788 112.551C310.388 138.951 298.688 170.351 296.088 196.951C293.188 227.451 291.888 337.451 293.888 393.951C295.588 443.651 296.888 452.451 305.688 470.651C310.688 481.151 317.188 488.551 329.088 497.251C332.088 499.451 336.388 502.951 338.588 505.051C342.588 508.851 348.488 511.951 351.788 511.951C352.788 511.951 354.088 512.951 354.588 514.051C355.288 515.551 358.288 517.151 364.588 519.251C373.388 522.251 374.088 522.351 392.088 522.351C413.088 522.351 416.688 521.651 433.588 513.151C449.788 505.051 459.688 497.251 468.988 484.851C478.988 471.551 485.488 456.551 492.488 430.551C501.088 398.551 504.488 377.751 507.088 340.951C507.588 332.951 508.488 321.451 509.088 315.451C511.888 283.151 515.088 210.451 515.088 176.051C515.088 153.051 513.588 137.451 510.388 128.051C506.488 116.451 486.988 91.5507 474.288 82.0507C465.588 75.4507 451.588 68.5507 441.588 65.9507C429.388 62.7507 404.688 62.2507 392.588 64.9507ZM427.588 75.0507C453.988 78.2507 475.088 92.4507 492.988 119.151C499.588 128.951 500.688 131.751 502.588 142.551C507.588 171.551 499.388 342.151 490.488 391.451C481.388 442.451 468.188 474.751 450.388 489.551C440.288 497.951 428.188 504.851 415.988 509.051C406.588 512.251 381.788 512.951 369.088 510.351C362.088 508.951 360.088 508.151 360.088 506.951C360.088 504.551 357.188 502.351 353.088 501.551C350.888 501.151 347.588 499.151 344.088 495.851C341.088 493.151 336.388 489.351 333.588 487.451C323.988 481.051 318.088 473.651 312.588 460.951C306.288 446.751 305.488 439.051 304.088 382.351C302.788 326.051 304.088 229.651 306.588 201.951C308.388 182.251 315.388 154.251 320.388 146.751C321.688 144.951 324.788 139.451 327.388 134.551C335.288 119.651 340.488 112.851 353.488 100.151C364.088 89.8507 367.288 87.3507 374.788 83.6507C385.288 78.3507 388.088 77.4507 398.588 75.5507C408.488 73.7507 415.988 73.6507 427.588 75.0507Z" fill="black"/>
<path d="M433.588 192.651C430.688 193.451 417.588 200.651 411.088 205.051C404.388 209.451 398.388 215.951 394.588 222.551C392.988 225.251 389.988 230.151 387.888 233.451C385.188 237.551 384.188 240.051 384.488 241.651C384.888 242.851 384.388 248.051 383.488 253.151C379.488 276.051 385.188 323.351 394.188 341.151C402.088 356.851 409.888 365.651 418.288 368.151C420.388 368.751 422.788 370.051 423.688 371.151C425.588 373.151 428.088 373.451 430.888 372.051C431.788 371.551 435.988 370.751 440.188 370.151C449.988 368.951 457.688 365.351 464.588 358.851C477.188 346.951 481.488 334.251 482.988 304.151C484.388 278.551 482.588 254.151 478.488 242.751C477.688 240.351 475.888 233.951 474.488 228.551C473.188 223.051 470.988 216.751 469.688 214.551C466.388 208.951 460.188 202.251 456.488 200.151C454.688 199.251 451.488 197.151 449.388 195.651C445.388 192.851 437.888 191.451 433.588 192.651Z" fill="black"/>
<path d="M672.643 338.123L672.643 338.122C673.515 331.008 674.825 324.247 676.278 318.918C677.004 316.254 677.771 313.931 678.544 312.092C679.3 310.293 680.114 308.83 680.986 308.012C681.579 307.45 682.107 306.975 682.598 306.636C683.094 306.295 683.641 306.028 684.266 306.002C684.904 305.975 685.465 306.204 685.974 306.53C686.47 306.848 686.991 307.308 687.566 307.854L687.568 307.856C688.131 308.395 688.637 308.928 689.064 309.881C689.467 310.784 689.783 312.024 690.111 313.959C690.769 317.836 691.526 324.853 692.985 338.377L692.985 338.378C695.452 361.468 696.904 369.2 700.215 376.92L700.215 376.921C701.644 380.261 703.612 383.609 705.657 386.353C707.722 389.125 709.784 391.17 711.367 392.029C712.252 392.503 713.791 392.907 715.887 393.185C717.955 393.459 720.466 393.598 723.221 393.598C728.732 393.598 735.15 393.041 740.833 391.929C746.158 390.847 749.774 390.335 752.081 390.475C753.232 390.544 754.223 390.783 754.937 391.343C755.714 391.954 756 392.81 756 393.714C756 394.211 755.941 394.745 755.673 395.264C755.403 395.788 754.975 396.191 754.429 396.537C753.396 397.194 751.661 397.813 748.916 398.685C740.238 401.55 735.831 403.685 726.75 409.122C713.523 417.125 704.066 424.769 696.953 433.766C689.843 442.758 685.029 453.159 681.172 466.741C680.312 469.771 679.691 471.693 679.047 472.883C678.714 473.497 678.34 473.986 677.864 474.338C677.375 474.699 676.857 474.858 676.338 474.934C675.585 475.045 674.811 475.049 674.14 474.742C673.405 474.406 672.967 473.782 672.753 473.02C672.55 472.3 672.53 471.413 672.615 470.391C672.701 469.355 672.903 468.096 673.203 466.594L673.204 466.589C675.978 453.073 683.725 437.172 693.039 425.644L693.042 425.64C695.451 422.687 701.039 417.842 706.994 413.232C712.963 408.611 719.435 404.125 723.671 401.912L723.678 401.908L724.739 401.363L720.25 401.144L720.241 401.143C713.964 400.78 709.692 400.051 706.116 397.941C702.542 395.833 699.788 392.42 696.353 387.017C692.146 380.432 689.007 371.043 687.35 360.67L687.349 360.662C686.706 356.415 685.677 347.511 684.809 339.201C684.135 332.748 683.552 326.582 683.327 323.231C682.969 324.546 682.573 326.244 682.183 328.135C681.355 332.151 680.562 336.978 680.201 340.75L680.201 340.753C679.508 347.786 677.848 355.334 675.625 362.129C673.406 368.911 670.603 375.012 667.593 379.112L667.592 379.113C660.889 388.209 648.136 397.866 634.35 404.581L634.342 404.585L634.335 404.589L633.23 405.103L637.237 406.867L637.24 406.868C648.499 411.865 658.419 422.192 661.442 432.09L661.446 432.103L661.449 432.115C662.169 434.711 663.518 438.921 664.686 442.567C664.99 443.517 665.283 444.429 665.548 445.263C668.096 453.274 669.442 457.518 670.071 460.536C670.718 463.633 670.617 465.477 670.34 468.642C670.065 472.073 669.6 474.665 668.857 476.374C668.482 477.233 668.001 477.958 667.353 478.432C666.671 478.932 665.883 479.094 665.061 478.949C664.548 478.859 664.021 478.639 663.615 478.103C663.256 477.629 663.069 477.002 662.947 476.282C662.703 474.84 662.636 472.436 662.591 468.489L662.591 468.489V468.478C662.591 461.574 662.127 458.634 661.039 456.277C659.543 453.064 658.699 450.652 653.962 435.016C653.427 433.409 652.713 431.622 651.978 430.053C651.229 428.455 650.498 427.17 649.948 426.512L649.948 426.512C641.661 416.6 632.415 411.43 623.306 411.274C621.591 411.254 620.143 411.157 618.976 410.981C617.832 410.808 616.866 410.546 616.179 410.141C615.828 409.934 615.497 409.658 615.272 409.286C615.036 408.893 614.953 408.451 615.025 408.003C615.154 407.193 615.762 406.491 616.456 405.9C616.789 405.609 617.36 405.242 618.033 404.846C618.734 404.434 619.618 403.951 620.62 403.429C622.624 402.384 625.128 401.171 627.654 400.039C643.393 392.79 653.549 385.885 660.316 376.575C667.084 367.264 670.55 355.428 672.643 338.123Z" fill="#FF035E" stroke="#FF035E" stroke-width="2"/>
</svg>
