<svg width="773" height="334" viewBox="0 0 773 334" fill="none" xmlns="http://www.w3.org/2000/svg">
<g clip-path="url(#clip0)">
<path d="M274.5 211L284.937 262.063L336 272.5L284.937 282.937L274.5 334L264.063 282.937L213 272.5L264.063 262.063L274.5 211Z" fill="#FBC400"/>
<path d="M184.5 114L189.337 137.663L213 142.5L189.337 147.337L184.5 171L179.663 147.337L156 142.5L179.663 137.663L184.5 114Z" fill="#FBC400"/>
<path d="M373.5 97L381.222 134.778L419 142.5L381.222 150.222L373.5 188L365.778 150.222L328 142.5L365.778 134.778L373.5 97Z" fill="#FBC400"/>
<path d="M762.986 269.551C629.486 311.051 517.116 235.4 392 305.004" stroke="#0267FF" stroke-width="12" stroke-linecap="round"/>
<path d="M90.5761 100.307H69.4531V18.0019H44.9804L43.8867 27.1621C41.0611 50.4498 38.5546 66.8105 36.3671 76.2441C34.2252 85.6321 31.0807 92.2406 26.9335 96.0686C22.7864 99.8966 17.181 101.765 10.1172 101.674C6.28906 101.674 2.91667 101.173 0 100.17V82.8066C2.64323 83.7181 5.12695 84.1738 7.45117 84.1738C9.86654 84.1738 11.7805 83.08 13.1933 80.8925C14.6061 78.6595 15.9278 74.5579 17.1583 68.5878C18.4343 62.5722 20.0977 52.7513 22.1485 39.125C24.2448 25.4531 26.0221 12.5332 27.4804 0.365234H90.5761V100.307ZM130.771 61.957C130.771 69.5221 132.002 75.2415 134.463 79.1152C136.969 82.9889 141.025 84.9257 146.631 84.9257C152.191 84.9257 156.178 83.0117 158.594 79.1836C161.054 75.3099 162.285 69.5677 162.285 61.957C162.285 54.3919 161.054 48.7181 158.594 44.9355C156.133 41.153 152.099 39.2617 146.494 39.2617C140.934 39.2617 136.924 41.153 134.463 44.9355C132.002 48.6725 130.771 54.3463 130.771 61.957ZM183.613 61.957C183.613 74.3984 180.332 84.1282 173.769 91.1466C167.207 98.1646 158.069 101.674 146.357 101.674C139.02 101.674 132.549 100.079 126.943 96.8886C121.338 93.6526 117.031 89.0273 114.023 83.0117C111.015 76.9961 109.511 69.9778 109.511 61.957C109.511 49.47 112.77 39.763 119.287 32.8359C125.804 25.9088 134.964 22.4453 146.767 22.4453C154.105 22.4453 160.576 24.0403 166.181 27.2304C171.787 30.4205 176.094 35.0006 179.101 40.9707C182.109 46.9407 183.613 53.9362 183.613 61.957ZM253.613 23.8808V39.5351H221.689V100.307H200.84V23.8808H253.613ZM284.443 61.957C284.443 69.5221 285.674 75.2415 288.135 79.1152C290.641 82.9889 294.697 84.9257 300.302 84.9257C305.862 84.9257 309.85 83.0117 312.265 79.1836C314.726 75.3099 315.957 69.5677 315.957 61.957C315.957 54.3919 314.726 48.7181 312.265 44.9355C309.804 41.153 305.771 39.2617 300.166 39.2617C294.606 39.2617 290.595 41.153 288.135 44.9355C285.674 48.6725 284.443 54.3463 284.443 61.957ZM337.285 61.957C337.285 74.3984 334.004 84.1282 327.441 91.1466C320.879 98.1646 311.741 101.674 300.029 101.674C292.692 101.674 286.22 100.079 280.615 96.8886C275.01 93.6526 270.703 89.0273 267.695 83.0117C264.687 76.9961 263.183 69.9778 263.183 61.957C263.183 49.47 266.442 39.763 272.959 32.8359C279.476 25.9088 288.636 22.4453 300.439 22.4453C307.776 22.4453 314.248 24.0403 319.853 27.2304C325.459 30.4205 329.765 35.0006 332.773 40.9707C335.781 46.9407 337.285 53.9362 337.285 61.957ZM417.744 23.8808V39.5351H392.724V100.307H371.875V39.5351H346.787V23.8808H417.744ZM452.197 23.8808V54.0957C452.197 57.2858 451.673 65.0787 450.625 77.4746L485.898 23.8808H510.986V100.307H490.82V69.8183C490.82 64.3951 491.276 56.7389 492.187 46.8496L457.051 100.307H432.031V23.8808H452.197ZM602.383 23.8808V100.307H581.465V39.5351H553.779V100.307H532.929V23.8808H602.383Z" fill="black"/>
<path d="M24.61 205.275C32.494 205.275 38.076 204.637 41.358 203.361C44.685 202.085 46.348 200.057 46.348 197.277C46.348 194.816 45.14 192.971 42.725 191.74C40.31 190.51 36.322 189.895 30.762 189.895C27.253 189.895 23.265 190.327 18.799 191.193C14.379 192.059 10.345 193.244 6.69904 194.748L0.546997 180.188C5.97 178.137 11.234 176.678 16.338 175.813C21.442 174.901 27.139 174.445 33.428 174.445C42.953 174.445 50.586 176.268 56.328 179.914C62.071 183.56 64.942 188.505 64.942 194.748C64.942 203.361 59.86 208.967 49.698 211.564V212.248C55.941 213.798 60.384 216.008 63.028 218.879C65.716 221.704 67.061 225.419 67.061 230.021C67.061 234.67 65.557 238.794 62.549 242.395C59.541 245.995 55.189 248.775 49.492 250.735C43.796 252.694 37.097 253.674 29.395 253.674C16.634 253.674 6.836 252.102 0 248.957V231.73C3.92 233.553 8.20305 234.989 12.8521 236.037C17.5461 237.085 22.08 237.609 26.455 237.609C33.246 237.609 38.327 236.857 41.699 235.354C45.072 233.804 46.758 231.617 46.758 228.791C46.758 225.692 44.981 223.413 41.426 221.955C37.871 220.451 32.403 219.699 25.02 219.699H16.953V205.275H24.61ZM131.934 252.307L127.901 241.916H127.354C123.845 246.337 120.222 249.413 116.485 251.145C112.793 252.831 107.963 253.674 101.992 253.674C94.655 253.674 88.867 251.578 84.629 247.385C80.436 243.192 78.34 237.222 78.34 229.475C78.34 221.363 81.166 215.393 86.817 211.564C92.513 207.691 101.081 205.549 112.52 205.139L125.782 204.729V201.379C125.782 193.632 121.817 189.758 113.887 189.758C107.78 189.758 100.602 191.604 92.354 195.295L85.449 181.213C94.245 176.61 103.998 174.309 114.707 174.309C124.961 174.309 132.823 176.542 138.291 181.008C143.76 185.474 146.494 192.264 146.494 201.379V252.307H131.934ZM125.782 216.896L117.715 217.17C111.654 217.352 107.142 218.446 104.18 220.451C101.218 222.456 99.737 225.51 99.737 229.611C99.737 235.49 103.109 238.43 109.854 238.43C114.685 238.43 118.535 237.04 121.407 234.26C124.323 231.48 125.782 227.788 125.782 223.186V216.896ZM251.289 252.307H230.166V194.475L230.371 184.973L230.713 174.582C227.204 178.091 224.766 180.393 223.399 181.486L211.914 190.715L201.729 178L233.926 152.365H251.289V252.307ZM348.357 202.336C348.357 219.79 345.487 232.71 339.746 241.096C334.05 249.481 325.254 253.674 313.36 253.674C301.83 253.674 293.125 249.345 287.246 240.686C281.413 232.027 278.496 219.243 278.496 202.336C278.496 184.699 281.345 171.711 287.041 163.371C292.738 154.986 301.511 150.793 313.36 150.793C324.89 150.793 333.594 155.168 339.473 163.918C345.397 172.668 348.357 185.474 348.357 202.336ZM299.483 202.336C299.483 214.595 300.531 223.391 302.627 228.723C304.769 234.009 308.347 236.652 313.36 236.652C318.282 236.652 321.836 233.964 324.024 228.586C326.211 223.208 327.305 214.458 327.305 202.336C327.305 190.077 326.188 181.281 323.955 175.949C321.768 170.572 318.236 167.883 313.36 167.883C308.392 167.883 304.838 170.572 302.696 175.949C300.554 181.281 299.483 190.077 299.483 202.336ZM448.577 237.063V191.535H432.917C431.777 200.012 430.207 208.055 428.207 215.666C426.247 223.277 423.507 230.409 419.997 237.063H448.577ZM480.637 279.719H461.907V252.307H410.497V279.719H391.767V237.063H398.197C402.567 230.272 406.237 221.704 409.197 211.359C412.157 201.014 414.237 189.188 415.417 175.881H469.427V237.063H480.637V279.719ZM514.537 175.881V205.275H543.667V175.881H564.507V252.307H543.667V220.793H514.537V252.307H493.687V175.881H514.537ZM618.037 189.279C613.617 189.279 610.157 190.692 607.647 193.518C605.137 196.298 603.707 200.262 603.337 205.412H632.597C632.507 200.262 631.167 196.298 628.567 193.518C625.967 190.692 622.457 189.279 618.037 189.279ZM620.977 253.674C608.677 253.674 599.057 250.279 592.127 243.489C585.207 236.698 581.737 227.082 581.737 214.641C581.737 201.835 584.927 191.945 591.307 184.973C597.737 177.954 606.597 174.445 617.897 174.445C628.697 174.445 637.107 177.521 643.127 183.674C649.137 189.826 652.147 198.326 652.147 209.172V219.289H602.857C603.087 225.214 604.847 229.839 608.127 233.166C611.407 236.493 616.007 238.156 621.937 238.156C626.537 238.156 630.887 237.678 634.987 236.721C639.097 235.764 643.377 234.237 647.847 232.141V248.274C644.197 250.097 640.297 251.441 636.157 252.307C632.007 253.218 626.947 253.674 620.977 253.674ZM689.267 175.881V206.096C689.267 209.286 688.747 217.079 687.697 229.475L722.967 175.881H748.057V252.307H727.887V221.818C727.887 216.395 728.347 208.739 729.257 198.85L694.117 252.307H669.097V175.881H689.267ZM741.907 143C741.037 151.522 737.827 157.743 732.267 161.662C726.707 165.536 718.687 167.473 708.207 167.473C697.407 167.473 689.407 165.604 684.207 161.867C679.057 158.13 676.167 151.841 675.527 143H694.187C694.507 147.694 695.667 150.998 697.677 152.912C699.727 154.781 703.377 155.715 708.617 155.715C713.217 155.715 716.637 154.689 718.867 152.639C721.147 150.542 722.537 147.329 723.037 143H741.907Z" fill="black"/>
</g>
<defs>
<clipPath id="clip0">
<rect width="773" height="334" fill="white"/>
</clipPath>
</defs>
</svg>
