<svg width="1890" height="342" viewBox="0 0 1890 342" fill="none" xmlns="http://www.w3.org/2000/svg">
<g clip-path="url(#clip0)">
<rect width="1890" height="342" fill="white"/>
<rect width="450" height="300" rx="20" fill="#F2F7FA"/>
<path fill-rule="evenodd" clip-rule="evenodd" d="M198.15 124.468C188.858 105.605 169.441 92.6264 146.993 92.6264C115.516 92.6264 90 118.143 90 149.619C90 181.095 115.516 206.612 146.993 206.612C169.441 206.612 188.858 193.633 198.15 174.77L180.048 168.366C173.515 179.861 161.159 187.614 146.993 187.614C126.009 187.614 108.998 170.603 108.998 149.619C108.998 128.635 126.009 111.624 146.993 111.624C161.159 111.624 173.515 119.377 180.048 130.872L198.15 124.468Z" fill="#0066FF"/>
<path d="M146.993 149.61L360.525 74.0001V225.221L146.993 149.61Z" fill="url(#paint0_linear)"/>
<rect x="480" width="450" height="300" rx="20" fill="#F2F7FA"/>
<rect x="960" width="450" height="300" rx="20" fill="#F2F7FA"/>
<rect x="1440" width="450" height="300" rx="20" fill="#F2F7FA"/>
<path fill-rule="evenodd" clip-rule="evenodd" d="M817 105V134.377H719.689V194.967H690.312V134.377H593V105H817Z" fill="#36D681"/>
<path fill-rule="evenodd" clip-rule="evenodd" d="M1248.28 181.864L1264.14 166.006L1280 150.148L1264.14 134.29L1248.28 118.432L1232.43 102.574L1216.57 86.7161L1200.71 70.858L1184.85 55L1168.99 70.858L1153.14 86.7161L1137.28 102.574L1121.42 118.432L1105.56 134.29L1089.7 150.148L1105.56 166.006L1121.42 181.864L1137.28 197.722L1153.14 213.58L1168.99 229.438L1184.85 245.297L1200.71 229.438L1216.57 213.58L1232.43 197.722L1248.28 181.864ZM1153.14 181.864L1168.99 166.006L1184.85 150.148L1200.71 166.006L1216.57 181.864L1232.43 166.006L1248.28 150.148L1232.43 134.29L1216.57 118.432L1200.71 134.29L1184.85 150.148L1168.99 134.29L1153.14 118.432L1137.28 134.29L1121.42 150.148L1137.28 166.006L1153.14 181.864ZM1184.85 181.864L1168.99 197.722L1184.85 213.58L1200.71 197.722L1184.85 181.864ZM1184.85 118.432L1168.99 102.574L1184.85 86.7161L1200.71 102.574L1184.85 118.432Z" fill="#1E1E1E"/>
<path fill-rule="evenodd" clip-rule="evenodd" d="M1685.74 121.248L1664.9 67L1654.23 94.7828C1667.72 106.273 1676.49 122.169 1678.85 139.533C1681.35 157.845 1676.53 176.391 1665.38 191.339C1654.24 206.287 1637.63 216.495 1618.98 219.855C1614.65 220.635 1610.29 221.032 1605.94 221.056L1601 233.999H1605.18C1619.36 234.074 1633.42 230.591 1646.05 223.742C1663.77 214.128 1677.49 198.512 1684.75 179.693C1691.98 160.941 1692.33 140.23 1685.74 121.248ZM1701.41 162.051C1700.4 169.498 1698.53 176.852 1695.79 183.96C1692.93 191.365 1689.2 198.334 1684.7 204.737L1729 233.895L1701.41 162.051ZM1610.27 209.229C1612.45 209.066 1614.63 208.79 1616.8 208.399C1632.44 205.582 1646.36 197.025 1655.7 184.494C1665.04 171.963 1669.09 156.416 1667 141.065C1665.22 127.993 1659.1 115.914 1649.69 106.61L1645.23 118.203C1652.13 126.406 1656.11 136.716 1656.47 147.502C1656.88 159.577 1652.72 171.362 1644.83 180.508C1637.2 189.352 1626.62 195.1 1615.09 196.698L1610.27 209.229ZM1620.49 182.624C1626.23 180.569 1631.38 177.058 1635.42 172.375C1641.27 165.599 1644.34 156.868 1644.04 147.921C1643.86 142.406 1642.4 137.059 1639.83 132.277L1620.49 182.624Z" fill="#FF006B"/>
<path d="M413.156 154.036C412.272 154.92 412.051 155.859 412.051 158.566C412.051 163.481 411.499 164.034 409.013 161.88C404.76 158.124 399.899 160.996 399.899 167.237C399.899 168.95 400.286 169.944 401.501 171.27C402.937 172.871 403.434 173.092 406.086 173.092C407.687 173.092 409.179 173.313 409.4 173.645C410.283 174.86 409.565 185.962 408.571 187.011C408.35 187.177 407.466 186.68 406.528 185.851C405.589 185.078 404.594 184.415 404.318 184.415C403.766 184.415 402.109 185.962 402.109 186.459C402.109 187.564 404.594 190.491 406.086 191.099C410.118 192.756 412.603 190.988 413.763 185.686L414.426 182.482L415.089 185.244C415.862 188.226 418.127 190.657 419.563 190.104C420.612 189.718 420.612 190.325 418.458 173.976C417.685 168.121 417.022 161.217 417.022 158.676C417.022 154.699 416.856 153.981 415.973 153.484C414.536 152.766 414.426 152.766 413.156 154.036Z" fill="black"/>
<path d="M388.355 168.452C388.024 169.447 387.748 172.926 387.748 176.241C387.748 179.665 387.361 183.863 386.919 185.962C386.036 189.773 384.102 193.86 382.942 194.192C381.783 194.578 381.12 190.38 381.12 182.095C381.12 174.749 381.009 173.921 380.07 173.424C379.352 173.037 378.8 173.092 378.082 173.589C377.198 174.252 377.088 175.357 377.032 183.642C376.977 192.038 377.088 193.253 378.137 195.517C378.966 197.285 379.849 198.224 381.065 198.776C384.655 200.212 388.135 197.064 390.399 190.215L391.449 187.066L391.835 189.607C392.388 193.032 394.542 195.683 396.53 195.186C398.795 194.634 399.016 194.081 397.8 191.485C397.193 190.104 396.033 185.133 395.204 179.72C393.382 168.287 392.829 166.74 390.565 166.74C389.239 166.74 388.853 167.072 388.355 168.452Z" fill="black"/>
<path d="M367.974 180.493C367.587 180.714 366.814 183.2 366.206 185.962C365.267 190.712 362.671 197.616 362.064 197.009C361.898 196.898 361.401 194.689 360.959 192.093C360.352 188.834 359.744 187.177 358.915 186.459C357.535 185.299 356.485 185.244 356.043 186.404C355.601 187.619 357.921 208.773 358.639 209.657C358.915 210.044 359.744 210.375 360.517 210.375C362.009 210.375 362.23 209.933 362.561 206.398C362.727 204.52 363.334 203.029 364.991 200.764L367.145 197.671L367.422 201.538C367.753 206.122 368.747 207.613 371.454 207.613C373.387 207.613 374.271 206.895 374.602 205.128C374.712 204.41 374.326 203.858 373.608 203.526C372.558 203.029 372.393 202.366 372.061 197.229C371.896 194.026 371.73 189.22 371.73 186.569C371.73 182.924 371.509 181.543 370.846 180.88C369.907 179.886 369.079 179.775 367.974 180.493Z" fill="black"/>
<path d="M347.758 188.061C347.206 188.613 346.874 189.883 346.874 191.706C346.874 194.136 346.764 194.412 345.935 194.081C343.063 193.032 342.069 193.142 340.357 194.91C338.037 197.174 336.932 201.096 336.545 208C336.159 214.683 336.877 217.997 339.252 220.373C341.13 222.195 343.671 222.527 345.659 221.091C346.985 220.207 349.084 216.506 349.084 215.125C349.084 214.518 349.47 214.683 350.465 215.622C351.956 217.169 353.944 217.445 354.386 216.175C354.607 215.733 354.441 213.855 354.11 211.977C353.834 210.154 353.226 204.355 352.895 199.163C352.453 193.087 351.956 189.22 351.459 188.392C350.575 186.956 348.973 186.79 347.758 188.061ZM344.113 199.439C344.113 200.046 344.554 200.654 345.217 200.82C346.488 201.151 346.543 201.593 345.77 207.448C345.107 212.253 343.726 217.003 343.008 217.003C341.019 217.003 340.467 206.564 342.124 200.764C343.008 197.782 344.113 197.008 344.113 199.439Z" fill="black"/>
<path d="M449.776 201.759C448.837 202.808 447.787 204.631 447.401 205.791C446.517 208.497 446.075 208.939 445.191 207.89C444.418 206.951 441.767 206.785 440.22 207.614C439.613 207.945 438.508 209.326 437.679 210.651C436.52 212.64 436.078 213.026 435.47 212.529C434.421 211.701 432.819 212.364 431.88 214.021C431.217 215.291 431.272 215.512 432.101 216.175C432.874 216.727 433.205 218.274 433.647 223.134C434.476 232.248 434.642 232.966 435.801 233.574C437.017 234.236 438.342 233.795 438.839 232.579C439.005 232.138 439.392 228.326 439.613 224.184C439.944 219.489 440.441 215.899 440.993 214.573C442.43 211.149 443.148 212.75 443.424 219.876C443.7 226.78 444.087 228.05 445.909 228.05C447.732 228.05 448.505 227.001 448.505 224.46C448.505 221.477 450.439 211.259 451.598 208.221C452.482 205.846 452.593 205.791 453.035 207.116C453.366 207.834 453.753 211.535 454.029 215.346C454.305 219.157 454.636 222.748 454.747 223.355C454.913 223.963 455.078 224.626 455.078 224.847C455.133 225.123 455.631 225.288 456.293 225.288C458.061 225.288 459 222.251 459 216.396C459 209.989 458.171 205.128 456.625 202.311C455.575 200.488 455.078 200.157 453.421 199.991C451.764 199.825 451.157 200.102 449.776 201.759Z" fill="black"/>
<path d="M323.842 204.576C322.903 204.962 321.798 205.901 321.412 206.564L320.749 207.835L319.755 206.564C319.147 205.791 318.263 205.404 317.49 205.515L316.275 205.68L316.441 217.832C316.496 224.515 316.827 230.37 317.103 230.922C317.766 232.138 319.976 232.193 320.915 231.088C321.301 230.591 321.964 226.89 322.351 222.748C323.234 214.242 323.787 211.59 325.223 209.768L326.272 208.553L327.267 210.983C327.985 212.75 328.316 215.291 328.482 220.041C328.758 228.603 328.868 229.155 330.581 229.155C331.52 229.155 332.182 228.658 332.845 227.387C333.618 225.896 333.729 224.571 333.453 219.489C333.066 212.032 331.906 208 329.476 205.57C327.487 203.582 326.493 203.416 323.842 204.576Z" fill="black"/>
<path d="M306.112 208.884C305.78 209.271 304.952 213.082 304.344 217.335C303.681 221.533 302.356 227.387 301.417 230.26L299.649 235.507L299.263 232.745C299.097 231.199 298.876 227.111 298.876 223.576C298.821 216.838 298.489 215.899 296.225 215.899C294.512 215.899 294.071 217.003 293.352 223.355C292.634 229.321 291.53 235.396 290.149 240.367C289.376 243.184 289.099 243.571 288.105 243.295C286.559 242.908 285.564 243.902 285.564 245.946C285.564 247.99 285.951 248.653 287.663 249.536C290.204 250.862 293.408 246.94 295.01 240.588L295.672 237.937L296.832 239.042C299.539 241.583 302.853 239.981 304.344 235.452C305.117 233.187 306.001 232.966 306.001 235.12C306.001 236.777 307.99 239.097 309.37 239.097C311.525 239.042 313.016 236.114 311.248 235.452C310.53 235.175 310.42 233.187 310.42 222.527C310.42 211.093 310.309 209.933 309.426 209.105C308.21 208 306.885 207.89 306.112 208.884Z" fill="black"/>
<path d="M421.551 217.114C421.275 217.5 420.888 221.698 420.723 226.393C420.612 231.309 420.17 235.672 419.784 236.611L419.121 238.268L418.403 236.335C417.961 235.01 417.409 234.402 416.691 234.402C415.807 234.402 415.641 234.789 415.641 237.495C415.641 241.583 416.911 243.516 419.508 243.516C421.441 243.516 423.208 241.969 423.926 239.594C424.202 238.766 424.479 238.655 424.976 239.042C426.136 239.981 428.953 239.926 430.499 238.931C431.659 238.158 431.935 237.55 431.935 235.728C431.935 233.132 430.996 232.524 429.008 233.85C427.682 234.678 427.627 234.678 426.964 232.911C426.577 231.917 426.136 228.216 426.025 224.736C425.859 221.256 425.473 217.942 425.197 217.39C424.644 216.285 422.38 216.12 421.551 217.114Z" fill="black"/>
<path d="M256.511 218.329C254.192 219.378 251.706 222.471 247.177 229.928L243.311 236.335L243.034 230.425C242.813 225.675 242.592 224.46 241.819 223.963C241.101 223.521 240.549 223.521 239.886 223.963C239.002 224.515 238.837 226.062 238.56 238.6C238.339 246.333 237.898 253.845 237.621 255.391C236.793 259.313 236.793 269.641 237.621 270.47C238.008 270.857 238.892 271.133 239.61 271.133C241.764 271.133 242.537 268.261 242.813 259.037C243.145 249.978 243.918 246.885 246.348 245.173C247.177 244.565 248.005 244.068 248.171 244.068C248.558 244.068 249 246.94 249.718 254.01C250.436 261.577 251.319 264.173 253.584 265.057C255.849 265.996 257.892 265.333 260.267 262.792C263.471 259.423 264.576 253.458 261.924 253.458C260.378 253.458 259.715 254.176 258.113 257.324C256.456 260.528 255.462 261.301 254.965 259.699C254.799 259.147 254.302 255.17 253.86 250.862C252.811 241.306 252.203 239.76 249.11 239.539L246.901 239.373L251.099 232.469C253.363 228.658 256.567 224.239 258.113 222.637C260.488 220.262 260.875 219.599 260.378 218.771C259.549 217.556 258.61 217.445 256.511 218.329Z" fill="black"/>
<path d="M389.129 221.864C385.98 223.631 373.608 232.414 368.582 236.446C363.003 240.975 361.788 244.565 364.55 248.1C366.593 250.696 371.785 250.751 372.945 248.155C373.774 246.388 372.669 245.173 370.239 245.173C366.207 245.173 368.692 242.687 382.666 232.69C386.643 229.818 391.504 226.669 393.437 225.62C397.027 223.631 397.911 222.251 396.254 221.035C394.707 219.931 392.111 220.207 389.129 221.864Z" fill="black"/>
<path d="M272.584 228.326C271.811 229.044 271.203 230.039 271.203 230.536C271.203 231.364 271.148 231.364 270.32 230.591C269.16 229.376 268.718 229.486 266.674 231.309L264.852 232.911L264.907 239.76C264.962 247.769 266.067 251.525 269.602 255.225C271.645 257.38 271.811 257.435 274.518 257.214C277.942 256.882 279.986 255.17 281.753 251.028C282.858 248.487 282.913 247.603 282.637 241.583C282.195 233.518 281.588 231.143 279.212 228.768C276.948 226.504 274.518 226.338 272.584 228.326ZM276.727 233.518C277.114 234.292 277.555 238.048 277.666 241.859C277.887 248.1 277.776 248.929 276.782 250.531C273.634 255.502 270.099 249.978 270.099 240.146C270.099 232.911 270.43 232.193 273.579 232.138C275.733 232.082 276.175 232.248 276.727 233.518Z" fill="black"/>
<path fill-rule="evenodd" clip-rule="evenodd" d="M407.08 231.806C407.08 231.309 407.632 230.48 408.295 230.039C409.842 228.934 410.007 228.934 411.499 230.149C412.659 231.088 412.769 231.696 412.88 237.661L413.045 244.234L414.757 245.559C415.696 246.277 416.47 247.327 416.47 247.879C416.47 249.481 414.537 250.862 412.659 250.586C411.388 250.42 410.891 250.586 410.67 251.304C410.504 251.856 409.455 253.071 408.406 253.955C406.859 255.336 405.975 255.667 403.987 255.667C401.833 255.667 401.17 255.391 399.513 253.734L397.524 251.746L397.856 246.112C398.132 239.925 399.237 236.114 401.336 233.85C402.495 232.635 403.103 232.414 404.871 232.579C406.693 232.745 407.08 232.579 407.08 231.806ZM405.771 249.821L403.305 250.586C402.611 250.041 402.338 249.689 402.218 248.933V246.712V244.234V241.827L402.662 239.606L403.305 237.966L404.438 236.941L405.771 236.497L407.547 236.941L408.295 237.385L408.88 238.718V241.827L408.436 246.268L407.547 248.489L405.771 249.821Z" fill="black"/>
<path d="M377.695 244.455C377.309 245.394 376.977 250.475 376.812 257.877C376.646 267.874 376.701 269.918 377.419 270.47C378.579 271.464 379.849 270.746 380.623 268.758C380.954 267.763 381.396 263.4 381.562 258.981C381.783 251.304 381.838 250.917 383.108 249.978C384.765 248.763 389.847 247.879 391.228 248.542C391.946 248.929 392.167 249.757 392.167 251.856C392.167 256.496 390.068 259.865 386.367 261.025C384.268 261.688 384.158 263.345 386.146 264.449C388.19 265.609 390.399 264.836 393.05 262.019C398.187 256.717 398.574 246.774 393.768 244.344C391.67 243.239 388.079 243.35 384.434 244.62C382.777 245.173 381.396 245.615 381.396 245.559C381.396 245.504 381.12 244.952 380.788 244.344C379.849 242.632 378.469 242.687 377.695 244.455Z" fill="black"/>
<path d="M351.57 261.633C343.947 265.665 342.787 266.383 341.904 268.095C340.909 269.973 341.959 271.188 344.334 270.857C346.599 270.525 361.291 262.848 362.009 261.577C362.893 260.141 361.733 258.705 359.523 258.54C358.142 258.484 356.099 259.258 351.57 261.633Z" fill="black"/>
<path d="M328.371 263.069C327.874 263.787 327.266 266.659 326.99 269.531C325.775 281.517 325.167 285.328 324.173 288.034C323.069 290.907 320.141 294.331 319.423 293.558C318.926 293.116 318.871 285.549 319.202 277.319C319.478 271.575 319.036 270.525 316.827 271.575C315.667 272.072 315.446 272.679 315.004 276.491C314.783 278.866 314.562 284.002 314.562 287.869V294.994L316.385 296.596C318.429 298.419 319.699 298.584 322.406 297.259C325.388 295.878 327.598 292.398 329.586 286.046C329.697 285.604 330.415 286.93 331.078 289.084C332.735 294.221 333.894 296.375 335.331 296.817C337.871 297.645 338.258 295.325 336.38 289.912C334.723 285.052 333.674 278.81 333.121 270.47C332.845 266.272 332.403 263.069 331.961 262.572C330.967 261.356 329.365 261.577 328.371 263.069Z" fill="black"/>
<path d="M301.141 277.374C298.876 279.805 297.716 284.334 297.716 290.907C297.716 296.32 297.882 297.148 299.263 299.91C301.969 305.323 307.161 307.146 310.089 303.666C310.862 302.727 311.525 301.622 311.525 301.236C311.525 300.849 311.691 300.131 311.856 299.634C312.409 298.142 310.531 297.921 309.039 299.302C305.118 303.003 301.362 296.264 302.301 287.206C302.687 283.671 303.682 280.523 304.4 280.523C304.676 280.523 304.897 281.13 304.897 281.848C304.897 282.566 305.283 283.505 305.781 283.892C306.554 284.5 306.83 284.444 307.714 283.34C309.205 281.517 309.039 279.584 307.161 277.706C305.118 275.717 302.798 275.607 301.141 277.374Z" fill="black"/>
<path d="M287.608 279.97C285.73 281.462 282.527 285.88 280.262 290.133C278.495 293.282 278.384 293.392 278.384 291.735C278.384 289.526 276.561 288.035 274.96 288.863C273.965 289.415 273.965 290.078 274.297 303.334C274.628 316.425 274.683 317.309 275.733 318.248C277.445 319.684 279.157 318.413 279.323 315.541C279.544 311.785 280.649 304.494 281.146 303.776C281.422 303.279 281.809 304.108 282.251 305.986C283.631 311.785 285.344 313.663 289.21 313.663C293.353 313.663 295.838 310.018 296.17 303.445C296.28 301.291 296.17 300.683 295.396 300.517C294.789 300.407 293.96 301.346 292.745 303.666C291.751 305.489 290.48 307.422 289.873 307.974C288.823 308.913 288.768 308.913 287.995 307.919C287.608 307.367 286.835 305.047 286.338 302.837C285.675 299.744 285.123 298.474 284.073 297.645L282.637 296.541L284.515 292.895C285.509 290.907 287.111 288.642 288.05 287.924C289.652 286.709 292.193 282.566 292.193 281.186C292.193 280.357 290.591 278.866 289.762 278.866C289.376 278.866 288.382 279.363 287.608 279.97Z" fill="black"/>
<path d="M259.66 281.351C258.666 281.793 257.23 282.18 256.567 282.18C253.584 282.18 250.657 286.157 247.287 294.663C242.537 306.483 241.875 315.873 245.023 325.207C248.392 335.26 253.86 339.568 259.549 336.585C263.747 334.431 266.509 329.129 268.497 319.573C269.492 314.602 269.602 312.559 269.381 302.616C269.105 289.25 268.221 285.218 264.852 282.235C262.643 280.302 262.256 280.247 259.66 281.351ZM262.477 288.09C264.079 291.79 265.018 306.041 264.134 313.884C263.029 324.213 259.384 332.443 256.07 332.443C252.424 332.443 248.558 322.943 248.558 314.105C248.558 308.361 249.883 302.451 252.811 295.491C255.186 289.692 257.119 286.93 259.329 286.212C260.212 285.88 261.041 285.604 261.151 285.549C261.262 285.549 261.814 286.654 262.477 288.09Z" fill="black"/>
<path fill-rule="evenodd" clip-rule="evenodd" d="M812.808 26.8569C813.805 23.9264 814.928 21.1829 815.239 20.7464C816.299 19.4994 818.731 19.8735 819.729 21.4323C820.539 22.617 820.539 23.4276 819.791 27.7922C819.292 30.5356 818.918 35.0873 818.856 37.9555C818.856 42.6942 818.981 43.2554 820.352 44.5024C821.225 45.2506 823.408 46.3106 825.216 46.8094C829.767 48.1812 829.954 49.6153 825.715 50.4882C820.602 51.6105 818.544 51.3611 816.299 49.4906C815.177 48.5553 813.743 46.56 813.12 45.0636L811.872 42.3825L810.002 45.3753C806.386 51.1117 803.517 53.4187 799.527 53.6681C795.786 53.9799 794.663 53.7305 792.793 52.1093L790.985 50.6129L789.551 52.1093C786.246 55.601 780.572 55.1646 778.951 51.2364L778.203 49.3035L776.581 51.7352C772.092 58.6563 764.61 57.0975 764.61 49.2412C764.61 45.8742 764.36 45.6871 762.178 47.3706C760.993 48.3059 760.619 49.2412 760.37 51.9846C760.058 56.0375 758.686 57.7833 756.255 57.1598C754.01 56.5986 753.574 54.2916 754.135 46.1859C754.821 37.1449 755.756 32.4685 756.878 32.0321C757.377 31.845 758.499 32.3438 759.372 33.0921C760.619 34.3391 760.869 35.1497 760.869 38.3296V42.0707L763.425 39.639C764.797 38.2673 766.73 35.3991 767.727 33.2791C769.099 30.3486 769.91 29.2886 771.094 28.9769C774.586 28.1039 775.646 31.7203 773.339 36.2096C772.154 38.579 770.346 48.4306 771.032 49.0541C771.157 49.2412 773.464 45.1883 776.083 40.0131C781.008 30.4733 783.004 27.7298 785.622 27.1063C787.805 26.5451 790.049 27.7922 790.548 29.7874L790.985 31.5333L791.733 29.351C792.294 27.6051 792.793 27.1063 794.352 26.9816C797.407 26.6698 797.968 27.9792 797.157 33.5909C796.16 40.0755 796.16 47.433 797.22 47.4953C799.215 47.6824 800.587 47.1835 802.208 45.6871C804.951 43.0683 810.812 32.718 812.808 26.8569ZM783.627 46.8094L782.38 45.3753C782.022 43.5004 782.003 42.4506 782.38 40.5743L783.004 38.7037L784.251 37.4567L785.622 36.8332H787.68L788.927 37.9555L789.551 40.0131L788.927 44.0036L787.68 46.1859L785.622 46.8094H783.627Z" fill="#0066FF" fill-opacity="0.991353"/>
<path d="M670.646 23.0534C668.962 24.8616 667.965 35.8355 667.965 51.6729C667.965 61.2127 668.152 64.0808 668.9 65.5149C670.334 68.3208 672.142 67.8843 673.389 64.5797C674.262 62.2726 674.948 30.2239 674.2 26.3581C673.951 24.8616 673.327 23.1781 672.766 22.6793C671.955 21.8688 671.706 21.9311 670.646 23.0534Z" fill="#0066FF" fill-opacity="0.991353"/>
<path d="M654.497 28.7898C651.878 29.538 649.758 31.9697 649.696 34.4014C649.571 37.0202 651.005 37.4567 653.624 35.5238L655.494 34.0897L657.178 35.3367C659.423 37.0202 659.984 39.639 659.734 46.4977C659.547 51.3611 659.236 52.7328 657.552 56.1622C655.307 60.7139 649.883 66.5126 648.449 65.9514C647.888 65.7643 647.389 64.9538 647.264 64.1432C646.952 61.9609 645.144 62.0232 644.022 64.2055C641.652 68.6949 643.585 72.9971 647.95 72.9971C653.374 72.9971 659.298 67.6972 663.725 58.8433C666.094 54.1046 666.281 53.2316 666.593 47.3706C667.092 36.8955 664.91 31.2215 659.423 28.9768C657.178 27.9792 657.178 27.9792 654.497 28.7898Z" fill="#0066FF" fill-opacity="0.991353"/>
<path d="M686.359 30.7228C684.114 31.9074 681.62 34.5886 680.311 37.0826C677.567 42.4449 676.382 54.6034 678.191 58.9681C680.248 63.8315 686.234 65.0162 691.284 61.6492C692.906 60.5892 694.402 59.3422 694.589 58.9057C694.838 58.2198 695.275 58.3445 696.647 59.2798C699.141 61.0257 701.884 60.8386 704.939 58.7187L707.558 56.9105L707.371 61.7115C707.184 66.3256 707.122 66.5126 704.877 68.2585C697.831 73.8701 689.352 84.5946 684.8 93.5732C683.116 96.8779 682.493 102.801 683.49 106.48C685.423 113.526 693.467 114.336 700.388 108.101C706.498 102.614 711.985 87.9616 712.671 75.0548L713.045 68.7573L717.16 64.0186C719.405 61.4621 722.086 58.7187 723.021 57.9704L724.767 56.6611L724.456 61.2127C724.268 63.7691 723.957 68.6949 723.77 72.1866C723.333 80.1053 721.899 89.0216 720.59 92.3886C719.592 94.8203 719.592 94.945 720.777 96.192C722.647 98.0002 724.58 97.1896 726.014 93.8227C728.882 87.3381 730.94 71.5008 730.94 55.227C730.94 48.5553 731.002 48.2436 732.998 44.9389C735.305 41.0731 737.113 39.8884 740.231 40.0755C742.039 40.2626 742.475 40.5743 742.912 42.1331C743.66 44.6272 743.099 49.1789 741.852 51.9223C741.103 53.4188 739.856 54.5411 738.048 55.414C734.931 56.9105 734.556 58.4069 736.926 59.2798C740.231 60.5892 742.226 60.028 744.907 57.2222C748.024 54.0423 749.022 50.987 749.022 44.9389C749.022 37.5191 746.466 34.3392 740.605 34.3392C737.362 34.3392 734.868 35.2121 732.998 36.9579L731.564 38.2673V36.3344C731.564 33.9027 730.005 32.2192 728.508 33.0921C727.074 33.8403 726.077 37.7061 725.204 46.0613L724.518 52.7329L721.026 55.1023C719.093 56.3493 716.599 58.1575 715.539 59.0304L713.482 60.7139V56.0999C713.482 53.5435 713.918 48.0565 714.542 43.879C715.664 35.5238 715.415 34.3392 712.422 34.3392C710.426 34.3392 709.304 37.0203 708.743 43.3801C708.306 48.1189 708.244 48.3683 705.376 51.2988C701.448 55.3517 700.45 55.2893 701.074 50.987C702.383 42.0084 702.445 40.8861 701.385 40.0132C700.824 39.5143 699.764 39.3273 698.829 39.5767C697.582 39.8884 697.083 40.6367 696.273 43.5672C694.215 50.5506 690.723 55.9752 687.294 57.4093C684.239 58.6563 683.553 57.5963 683.553 51.2365C683.553 44.7519 684.738 40.0132 687.107 36.9579L688.853 34.6509L689.04 36.7085C689.164 37.8308 689.663 38.9532 690.162 39.1402C691.783 39.7637 692.906 38.0803 692.906 34.9003C692.906 32.531 692.656 31.7204 691.534 30.9722C689.913 29.7875 688.104 29.7251 686.359 30.7228ZM706.374 78.7335C705.501 87.4004 701.323 98.9978 697.52 103.425C695.4 105.981 691.783 107.727 690.1 107.041C688.479 106.418 688.853 99.372 690.723 95.6932C693.342 90.5804 705.189 74.8677 706.436 74.8677C706.623 74.8677 706.623 76.6136 706.374 78.7335Z" fill="#0066FF" fill-opacity="0.991353"/>
<path fill-rule="evenodd" clip-rule="evenodd" d="M761.492 68.1337C765.795 66.4502 770.409 64.5796 771.78 64.0185C774.773 62.8338 779.263 62.9585 779.263 64.2055C779.263 65.3279 760.62 76.4888 756.068 78.0476C755.507 78.2347 755.444 78.9829 755.943 80.9781C757.377 87.4627 753.511 107.353 749.084 116.332C747.65 119.262 745.468 122.442 743.785 124.063C741.291 126.557 740.605 126.869 737.425 127.118C729.88 127.742 726.513 123.066 728.384 114.461C728.695 112.965 729.132 112.59 730.317 112.59C731.751 112.59 731.938 112.902 732.312 116.332C733.746 127.68 742.662 119.449 746.466 103.238C747.214 100.12 748.024 97.0649 748.212 96.379C748.36 95.8456 748.437 95.5657 748.371 95.5259C748.298 95.482 748.049 95.7308 747.526 96.2543C746.154 97.626 744.283 98.0625 740.916 97.8131C738.796 97.6884 737.924 97.2519 736.926 95.8802C735.118 93.4485 735.242 88.6474 737.238 84.5322C740.231 78.2347 746.092 74.2442 761.492 68.1337ZM744.969 93.5732L747.526 92.6379L748.212 91.7026L748.71 90.7674L749.334 88.585L749.646 86.091V83.2852V81.4146L743.722 85.1557L742.163 86.7145L741.852 89.2086V91.3909L742.163 92.9497L743.41 93.5732H744.969Z" fill="#0066FF" fill-opacity="0.991353"/>
<path d="M773.775 77.1747C772.84 78.8582 768.912 96.4413 768.039 103.051C767.478 107.291 768.6 110.907 770.658 111.406C773.651 112.216 775.459 109.785 773.962 106.979C773.152 105.482 773.214 104.984 775.771 90.7673C777.205 82.9734 777.392 79.6687 776.456 77.9229C775.771 76.7382 774.274 76.3017 773.775 77.1747Z" fill="#0066FF" fill-opacity="0.991353"/>
<path d="M761.243 81.8511C760.806 82.6616 760.058 85.9663 759.622 89.2086C759.185 92.4508 758.187 99.1225 757.377 104.048C755.818 113.401 756.068 116.02 758.375 116.02C760.869 116.02 762.365 112.092 764.236 100.744C766.356 87.7745 766.667 83.6593 765.607 82.0381C764.36 80.1052 762.427 80.0429 761.243 81.8511Z" fill="#0066FF" fill-opacity="0.991353"/>
<path d="M906.647 90.2061C905.151 91.7649 902.719 94.7578 901.222 96.8778C899.726 98.9977 898.728 100.182 898.978 99.4965C899.227 98.8107 899.601 96.8154 899.726 95.0072C900.038 92.3261 899.851 91.7026 898.853 91.2038C896.359 89.832 894.863 91.5779 890.249 100.931C885.759 109.909 883.078 113.837 883.078 111.343C883.078 110.657 883.515 108.101 884.076 105.732C886.133 96.2543 886.32 94.6331 885.634 93.1367C884.886 91.4532 882.392 91.2038 881.208 92.6379C880.833 93.1367 878.963 96.8154 877.217 100.868C874.099 107.789 871.356 111.406 870.171 110.159C869.922 109.909 870.608 106.231 871.668 101.991C872.665 97.6883 873.414 93.5108 873.289 92.6379C872.915 90.892 871.169 90.0814 869.548 91.0167C868.425 91.5779 867.74 92.8873 862.938 103.549C861.754 106.106 860.257 108.912 859.509 109.785L858.2 111.343L858.137 109.286C858.137 108.163 858.699 104.734 859.384 101.616C860.569 96.3166 860.569 95.8178 859.696 94.3837C858.886 93.1367 858.324 92.9496 857.015 93.2614C854.521 93.8849 852.713 95.1943 850.718 98.0001L848.909 100.432L847.725 98.1248C846.415 95.3813 845.168 94.9449 842.549 96.3166C841.053 97.0025 840.679 97.0648 840.679 96.379C840.679 95.1319 838.995 94.0719 837.624 94.5084C836.875 94.7578 835.192 97.2519 833.134 101.18C829.83 107.602 826.151 112.341 823.158 113.837C820.789 115.084 819.417 113.9 819.043 110.283C818.731 107.602 818.856 107.29 821.786 104.048C826.587 98.7483 828.957 95.0696 828.707 93.0743C828.209 88.8968 822.722 92.0767 818.856 98.8107L817.048 101.928L817.422 98.3742C817.796 94.4461 817.11 92.9496 814.803 92.9496C812.932 92.9496 811.872 94.6955 809.94 101.055C807.944 107.478 804.702 113.152 802.894 113.401C799.589 113.9 799.402 109.598 802.27 99.933C803.704 95.319 803.891 94.0096 803.268 93.2614C802.146 91.8896 799.714 92.0767 799.215 93.5731C798.716 95.1319 798.155 95.1319 797.22 93.6355C796.846 93.012 795.599 92.3261 794.539 92.139C788.241 90.8297 781.445 100.182 781.445 110.034C781.445 118.639 787.805 121.818 793.853 116.269C795.786 114.586 796.347 114.336 796.659 115.084C797.157 116.456 800.836 118.514 802.769 118.514C804.453 118.514 808.381 115.272 809.877 112.59C810.438 111.655 810.438 112.029 809.94 114.274C809.441 116.519 809.503 117.454 810.127 118.202C811.374 119.698 812.496 119.324 813.992 117.017L815.364 114.897L817.484 116.706C818.981 118.015 820.165 118.514 821.849 118.514C824.467 118.514 826.089 117.579 829.954 113.9L832.573 111.406L831.576 114.336C830.329 117.953 830.765 119.262 833.01 119.013C834.444 118.826 834.943 118.202 836.626 113.837C839.557 106.355 841.864 101.866 842.861 101.429C844.482 100.806 844.046 107.727 842.238 111.967C840.43 116.02 840.617 117.89 842.861 117.89C843.984 117.89 844.732 117.142 846.166 114.586C852.775 102.739 855.02 98.9977 855.02 99.8083C855.02 99.9954 854.583 102.489 854.085 105.42C852.837 112.403 852.9 113.65 854.396 115.272C856.516 117.516 858.636 117.017 862.003 113.526C863.624 111.842 864.996 110.782 864.996 111.281C864.996 112.84 867.989 115.396 869.86 115.396C871.73 115.396 877.466 112.092 877.466 111.032C877.466 110.72 877.778 110.408 878.09 110.408C878.464 110.408 878.713 111.281 878.713 112.279C878.713 114.399 881.083 117.267 882.766 117.267C884.637 117.267 887.193 115.459 889.001 112.965C889.937 111.53 890.747 110.408 890.81 110.408C890.872 110.408 890.81 111.468 890.685 112.84C890.498 114.897 890.623 115.272 891.807 115.583C892.867 115.833 893.678 115.396 895.299 113.65C896.484 112.403 897.419 111.094 897.419 110.782C897.419 110.034 899.539 112.84 900.848 115.334C903.592 120.696 907.769 121.943 910.887 118.327C911.885 117.142 913.007 115.708 913.443 115.022C914.192 113.9 914.254 113.9 915.376 115.334C916.249 116.456 917.184 116.83 918.993 116.83C922.547 116.83 925.477 115.084 928.782 111.156L930.465 109.036V111.281C930.465 112.84 930.902 113.775 932.024 114.648C933.895 116.144 935.828 115.833 937.823 113.713C939.818 111.655 939.195 110.159 936.576 110.72L934.643 111.156L935.079 105.981C935.329 103.113 935.828 98.873 936.202 96.566C936.95 92.0143 936.389 90.4555 934.144 90.4555C932.648 90.4555 932.398 90.892 929.779 98.9977C928.532 102.801 926.911 106.916 926.225 108.039C924.978 110.034 920.863 112.902 919.242 112.902C917.309 112.902 920.489 102.676 924.542 95.7554C925.914 93.3861 926.35 93.012 927.098 93.6355C927.784 94.1966 928.158 94.1966 928.907 93.5731C931.089 91.7649 929.218 88.585 926.038 88.585C923.295 88.585 918.806 93.3861 915.875 99.4965C909.578 112.715 908.518 114.773 907.707 115.396C907.021 115.957 906.398 115.459 904.652 112.715C903.405 110.782 902.158 109.099 901.784 108.849C900.412 108.039 901.222 105.607 903.716 103.238C908.829 98.1872 913.381 90.8297 912.695 88.585C912.009 86.4027 909.64 87.0262 906.647 90.2061ZM795.474 98.9354C796.409 101.242 795.973 105.171 794.476 108.039C793.229 110.408 789.363 114.149 788.241 114.149C784.687 114.149 786.62 102.115 790.798 97.9377C792.73 96.0048 794.414 96.379 795.474 98.9354Z" fill="#0066FF" fill-opacity="0.991353"/>
<path d="M1177.41 225.872C1173.67 227.469 1170.29 230.46 1163.08 238.722C1154.91 248.078 1152.63 251.071 1149 256.982C1147.41 259.658 1144.89 262.889 1143.49 264.201L1140.89 266.503L1144.83 257.358C1147.01 252.252 1148.72 247.565 1148.71 246.803C1148.55 244.947 1145.29 243.584 1142.64 244.28C1141.47 244.592 1139.21 245.805 1137.55 247.073C1134.72 249.133 1134.55 249.198 1135.29 247.524C1135.72 246.543 1135.9 244.698 1135.72 243.38C1135.46 241.473 1135.03 240.873 1133.47 240.188C1132.43 239.731 1130.8 239.501 1129.88 239.716C1128.54 239.952 1128.22 239.883 1128.33 239.172C1128.39 238.717 1128.49 237.865 1128.54 237.269C1128.6 236.673 1128.16 235.792 1127.54 235.314C1125.74 233.906 1123.24 235.357 1117.9 240.93C1109.37 249.851 1104.66 253.02 1101.89 251.803C1100.1 251.016 1100.11 249.095 1102.06 244.65C1103.6 241.129 1106.91 236.109 1107.55 236.388C1107.66 236.439 1108.01 237.071 1108.27 237.736C1108.91 239.257 1110.97 239.268 1112.34 237.732C1113.78 236.164 1114.27 232.865 1113.29 231.473C1112.07 229.698 1107.54 228.539 1105.25 229.528C1104.31 229.941 1100.41 232.845 1096.67 236.023L1089.87 241.781L1092.86 234.969C1095.21 229.601 1095.79 227.652 1095.64 225.796C1095.36 222.506 1093.02 221.549 1089.47 223.362C1086.9 224.647 1086.79 224.596 1086.69 223.246C1086.48 220.884 1083.2 218.618 1081.09 219.344C1080.59 219.538 1080.33 218.873 1080.46 217.483C1080.71 215.184 1079.21 213.564 1077.59 214.435C1077.06 214.686 1074.79 216.719 1072.62 219.001C1070.39 221.257 1066.68 224.518 1064.48 226.237C1061.13 228.83 1060.09 229.334 1058.93 228.827C1058 228.421 1057 228.668 1055.75 229.633L1053.87 231.082L1055.01 228.004C1055.73 226.048 1057.67 223.044 1060.19 219.813C1062.45 217.019 1064.53 213.867 1064.89 212.719C1065.45 210.969 1065.38 210.662 1063.88 210.002C1062.31 209.317 1061.93 209.562 1058.83 212.539C1056.92 214.384 1054.11 216.387 1052.36 217.066C1050.62 217.746 1049.17 218.213 1049.08 218.104C1049.07 217.963 1050.69 215.37 1052.68 212.251C1057.15 205.535 1057.62 203.818 1055.25 202.777C1053.69 202.092 1053.33 202.279 1049.09 206.612C1044.38 211.362 1032.59 220.784 1029.96 221.902C1028.44 222.542 1027.22 221.868 1025.94 219.588C1025.32 218.489 1025.67 218.161 1030.19 215.255C1036.18 211.345 1040.05 208.019 1041.94 204.989C1043.14 203.038 1043.3 202.352 1042.67 200.633C1041.78 198.107 1038.97 196.806 1036.54 197.802C1032.44 199.586 1024.26 208.179 1022.21 212.855C1021.47 214.529 1020.69 215.217 1018.66 215.911C1015.97 216.863 1012.39 216.532 1011.56 215.274C1010.35 213.64 1013.83 208.836 1020.5 202.746C1025.4 198.353 1027.36 194.811 1026.08 192.87C1024.86 191.095 1020.94 190.753 1017.53 192.079C1015.45 192.888 1011.96 193.286 1007.27 193.292C1003.34 193.289 999.967 193.117 999.87 192.868C999.747 192.677 1002.03 186.521 1004.97 179.204C1010.58 165.147 1010.85 163.75 1008.15 163.46C1006.76 163.331 1005.88 164.391 997.267 176.789C993.242 182.664 993.133 182.754 991.571 182.069C989.084 180.978 980.017 181.681 978.646 183.076C976.122 185.685 977.126 189.843 980.954 192.279C982.884 193.539 982.924 193.763 981.969 194.996C979.824 197.841 974.693 201.992 972.599 202.519C967.939 203.71 964.487 199.786 966.386 195.457C966.842 194.418 966.944 193.086 966.658 192.479C965.148 189.476 961.763 192.947 961.61 197.698C961.449 203.41 964.926 207.275 970.396 207.541C974.905 207.798 979.678 204.936 985.189 198.818C987.247 196.486 987.688 196.266 989.691 196.732C990.924 197.066 991.99 197.465 992.088 197.714C992.185 197.964 991.436 200.457 990.477 203.272C989.273 206.805 988.86 208.689 989.286 209.289C990.114 210.547 990.313 210.565 991.849 210.207C993.303 209.881 993.874 208.892 995.828 202.866L997.254 198.673L1001.16 198.734C1003.28 198.77 1006.77 198.512 1008.79 198.159C1010.89 197.772 1013.06 197.693 1013.64 197.947C1014.28 198.226 1015.23 197.953 1015.93 197.297C1017.22 195.935 1021.4 194.739 1021.3 195.732C1021.27 196.129 1019.15 198.296 1016.63 200.566C1008.85 207.615 1006.04 212.3 1007.23 216.335C1008.43 220.511 1012.77 222.273 1018.46 220.918L1020.92 220.345L1022.57 223.2C1023.77 225.173 1024.87 226.276 1026.49 226.987C1029.33 228.23 1032.02 227.278 1037.87 222.753L1041.9 219.702L1039.42 225.02C1037.31 229.529 1037.08 230.529 1037.69 231.487C1038.67 233.02 1040.74 232.55 1041.89 230.573C1045.91 223.117 1045.89 223.175 1048.85 223.029L1051.61 222.864L1050.02 226.5C1047.92 231.292 1048.38 233.838 1051.62 235.259C1053.47 236.071 1054.37 235.913 1058.89 234.109C1061.74 232.951 1064.99 231.209 1066.24 230.244C1070.5 226.814 1070.63 227.005 1067.64 232.716C1065.37 237.091 1064.98 238.297 1065.42 239.178C1066.39 241.05 1068.09 240.967 1069.51 238.976C1070.22 237.981 1072.17 235.117 1073.88 232.633C1077.75 227.104 1081.47 223.504 1081.69 225.046C1081.95 226.812 1079.06 232.772 1076.55 235.663C1073.93 238.644 1073.68 240.323 1075.64 241.525C1077.15 242.466 1078.33 241.674 1081.75 237.326C1083.37 235.213 1086 232.372 1087.57 230.995L1090.44 228.538L1086.6 236.973C1084.26 242.143 1082.89 245.74 1083.09 246.239C1083.28 246.737 1084.14 247.598 1085.03 248.26C1087.05 249.629 1089.35 248.78 1094.18 244.842L1097.63 242.018L1096.41 244.789C1094 250.612 1095.12 254.34 1100.09 256.522C1102.7 257.664 1103.58 257.705 1105.99 256.908C1107.58 256.434 1110.25 255.059 1111.89 253.849L1114.86 251.641L1113.09 254.721C1111.69 257.134 1111.42 258.051 1111.9 259.156C1113.12 262.372 1115.12 261.256 1120.81 254.254C1125.74 248.222 1128.62 245.426 1130.08 245.24C1130.98 245.083 1127.87 252.324 1125.33 256.233C1122.99 259.822 1122.87 261.833 1125.05 262.515C1126.52 262.951 1127.56 262.307 1134.34 256.747L1141.94 250.442L1138.1 259.978C1134.39 269.225 1134.27 269.655 1135.14 271.278C1136.62 274.197 1139.63 273.935 1143.89 270.506C1145.99 268.877 1146.63 268.676 1147.4 269.428C1150.07 271.838 1153.01 272.991 1155.22 272.515C1157.65 271.999 1160.96 269.181 1162.1 266.583C1162.48 265.718 1163.53 264.734 1164.42 264.436C1166.03 263.904 1166.01 263.962 1164.92 266.444C1163.22 270.311 1162.98 273.853 1164.15 276.845C1166.59 283.077 1174.37 282.635 1182.27 275.778C1184.93 273.501 1185.83 272.242 1187.35 268.779C1188.36 266.47 1189.2 263.605 1189.22 262.305C1189.32 257.669 1186.02 254.501 1181.01 254.438C1179.77 254.443 1175.92 255.368 1172.36 256.56C1163.88 259.38 1162.93 259.512 1161.05 258.137L1159.52 257.054L1163.02 253.634C1167.66 249.197 1178.03 237.503 1180.82 233.496C1183.81 229.367 1184.08 227.01 1181.75 225.713C1180.47 225.014 1179.49 225.063 1177.41 225.872ZM1183.41 263.609C1183.23 265.114 1182.41 267.301 1181.59 268.527C1179.9 271.293 1174.61 275.169 1171.65 275.796C1169.66 276.233 1169.54 276.182 1169.02 274.853C1168.31 273.025 1171.06 265.49 1173.36 262.92C1175.13 260.941 1180.48 259.434 1182.56 260.347C1183.6 260.804 1183.75 261.418 1183.41 263.609Z" fill="#FBC400"/>
<path d="M981.511 219.235C980.494 219.07 978.051 218.28 976.142 217.512C970.586 215.286 951.602 211.247 949.155 211.861C944.427 213.021 941.255 219.786 943.127 224.826C944.063 227.346 944.442 227.723 946.683 228.355C949.66 229.169 952.865 228.535 953.869 226.866C954.796 225.374 953.596 224.075 951.444 224.326C950.547 224.355 949.245 224.065 948.555 223.621C947.435 222.919 947.419 222.49 948.308 219.997C949.223 217.445 949.575 217.108 950.924 217.137C953.449 217.12 969.108 220.825 971.962 222.077C974.929 223.379 983.369 225.393 986.148 225.418C988.533 225.409 989.392 223.606 987.731 221.964C986.361 220.589 984.306 219.688 981.511 219.235Z" fill="#FBC400"/>
<path d="M1181.75 312.709C1181.05 312.88 1177.86 315.38 1174.66 318.218C1171.44 321.114 1167.64 324.231 1166.21 325.109L1163.57 326.825L1164.75 323.651C1165.37 321.937 1166.78 319.344 1167.75 317.924C1170.37 314.351 1171.67 311.228 1170.99 309.906C1169.61 307.18 1166.22 308.704 1160.09 314.904C1151.21 323.866 1150.21 324.725 1149.34 323.524C1148.1 321.748 1146.5 322.07 1145.51 324.307C1144.46 326.716 1145.14 328.656 1147.36 329.63C1149.46 330.553 1152.87 328.972 1156.6 325.408L1159.13 322.964L1158.66 325.151C1158 327.936 1159.04 330.649 1161.02 331.521C1163.07 332.418 1166.83 330.991 1171.11 327.74L1174.31 325.381L1173.3 327.675C1171.09 332.722 1171.83 338.655 1174.69 339.433C1176.49 339.947 1178.12 338.611 1177.74 336.939C1177.08 333.844 1177.6 332.021 1181.39 323.839C1185.02 316.058 1185.23 315.262 1184.5 314.055C1183.59 312.49 1183.35 312.387 1181.75 312.709Z" fill="#FBC400"/>
<path d="M1125.75 290.121C1125.21 290.233 1123.81 291.843 1122.53 293.789C1121.35 295.702 1119.06 298.382 1117.58 299.682C1115.29 301.736 1114.59 302.055 1113.36 301.517C1112.13 300.979 1112 300.501 1112.39 298.656C1112.7 297.471 1113.62 295.371 1114.41 294.049C1116.1 291.454 1115.73 289.619 1113.54 289.356C1111.67 289.164 1109.83 291.138 1108.09 295.103C1106.43 298.894 1106.3 301.896 1107.73 304.192C1108.73 305.883 1112.45 307.724 1114.47 307.567C1115.64 307.452 1115.62 307.795 1114.27 311.513C1112.51 316.165 1112.86 320.283 1115.09 320.914C1117.15 321.469 1118.42 320.15 1118.62 317.316C1118.73 315.486 1120.12 311.993 1123.87 303.763C1126.68 297.691 1128.91 292.275 1128.86 291.764C1128.69 290.717 1127.16 289.908 1125.75 290.121Z" fill="#FBC400"/>
<path d="M1137.87 297.245C1134.67 297.654 1130.9 301.366 1128.25 306.645C1126.29 310.486 1126.17 311.235 1126.47 314.054C1127.29 321.058 1130.6 323.918 1137.17 323.313C1141.28 322.968 1142.81 322.093 1142.53 320.291C1142.24 318.489 1140.52 317.668 1137.37 317.827C1133.69 318.094 1133.04 317.742 1132.27 314.919C1131.4 311.99 1131.87 310.783 1133.55 311.524C1135.3 312.289 1139.92 311.699 1142.09 310.434C1143.32 309.767 1144.51 308.276 1145.62 306.212C1147.2 303.215 1147.21 302.884 1146.3 301.142C1144.96 298.677 1140.93 296.843 1137.87 297.245Z" fill="#FBC400"/>
<path d="M963.385 223.387C962.327 223.595 961.303 225.298 956.963 234.089C954.075 239.885 950.626 246.645 949.289 249.22C946.335 254.852 945.842 257.393 947.655 258.457C949.708 259.762 951.096 258.487 953.504 253.154C957.076 245.17 958.331 243.568 962.044 242.035C965.284 240.632 965.4 240.683 968.148 242.292C971.948 244.497 972.413 246.113 970.409 250.682C967.539 257.226 962.853 260.82 958.608 259.63C957.375 259.291 955.397 258.76 954.14 258.477C951.417 257.754 950.186 258.828 951.306 261.001C952.798 263.741 958.342 265.433 963.081 264.552C964.197 264.369 966.644 262.887 968.553 261.37C971.395 258.985 972.362 257.727 974.4 253.711C977.139 248.254 977.343 245.585 975.304 242.202C973.704 239.55 965.965 236.088 963.418 236.854L961.732 237.392L963.86 232.541C966.829 225.772 966.668 222.675 963.385 223.387Z" fill="#FBC400"/>
<path d="M1083.72 278.264C1080.92 279.152 1075.46 283.514 1073.64 286.269C1072.48 288.15 1072.13 288.338 1070.87 287.714C1068.73 286.777 1067.52 288.772 1069.08 290.551C1069.75 291.322 1070.11 292.501 1069.85 293.549C1068.29 300.447 1072.27 306.356 1078.15 305.932C1080.52 305.74 1082.04 304.703 1082.97 302.584C1083.85 300.58 1082.71 299.669 1079.72 300.065C1076.4 300.453 1075.75 300.099 1075.13 297.708C1074.39 294.653 1075.07 293.86 1079.31 293.057C1084.01 292.116 1088.17 289.364 1090.24 285.7C1091.5 283.451 1091.58 282.805 1090.94 281.224C1089.89 278.717 1086.64 277.426 1083.72 278.264Z" fill="#FBC400"/>
<path d="M1026.29 254.36C1025.37 255.268 1023.19 259.629 1019.71 267.56C1014.58 279.253 1014.53 279.369 1015.43 280.592C1015.99 281.252 1016.7 282.461 1017.02 283.222C1017.37 284.066 1018.48 285.105 1019.63 285.61C1024.62 287.797 1030.87 281.429 1030.96 274.081C1030.99 270.297 1029.63 268.182 1026.91 267.54L1024.81 267.104L1027.22 261.605C1028.55 258.595 1029.63 255.686 1029.69 255.093C1029.8 253.348 1027.82 252.96 1026.29 254.36Z" fill="#FBC400"/>
<path d="M1064.58 272.331C1063.38 273.532 1060.51 276.694 1058.18 279.401C1055.85 282.108 1053.37 284.682 1052.59 285.097C1051.34 285.792 1051.49 285.445 1053.84 281.158C1058.1 273.289 1059.2 270.318 1058.46 269.095C1057.28 267.335 1055.48 268.064 1052.27 271.558C1044.54 279.977 1042.86 281.657 1041.2 282.519L1039.38 283.447L1043.96 273.923C1048.23 264.953 1048.46 264.291 1047.7 263.267C1046.64 261.837 1044.92 261.913 1043.46 263.411C1042.82 264.098 1040.47 268.385 1038.27 272.944C1034.96 279.713 1034.24 281.674 1034.21 283.733C1034.11 289.49 1038.9 290.833 1044.81 286.725L1046.48 285.524L1046.57 287.154C1046.72 289.568 1048.03 291.18 1050.13 291.616C1051.5 291.871 1052.73 291.374 1054.93 289.718L1057.95 287.448L1056.6 290.518C1055.51 293.009 1055.41 294.001 1056.03 295.655C1056.65 297.308 1057.03 297.68 1058.21 297.58C1059.48 297.446 1059.78 297.09 1060.88 293.64C1061.52 291.572 1064 286.376 1066.31 282.205C1070.15 275.121 1070.4 274.401 1069.96 272.963C1069.7 272.161 1068.86 271.169 1068.12 270.847C1067.05 270.377 1066.29 270.733 1064.58 272.331Z" fill="#FBC400"/>
<path d="M1016.85 252.594C1016.23 252.874 1014.01 255.345 1011.92 258.011C1008.46 262.49 999.789 270.747 997.428 271.917C996.783 272.254 996.4 272.155 996.126 271.483C995.578 270.14 993.808 269.639 992.645 270.507C991.041 271.734 990.785 274.585 992.133 276.21C994.633 279.098 997.897 278.463 1003.47 274.017L1007 271.155L1006.63 273.129C1005.83 277.394 1008.02 280.834 1010.72 279.538C1011.64 279.048 1011.86 278.386 1012.03 275.567C1012.19 272.605 1012.79 271.076 1016.45 263.72C1020.85 254.829 1021.14 253.511 1018.93 252.544C1018.34 252.282 1017.41 252.289 1016.85 252.594Z" fill="#FBC400"/>
<path d="M991.511 242.059C987.524 241.148 985.072 242.517 979.336 248.873C975.241 253.364 972.793 258.787 972.886 262.95C973.104 268.704 977.321 272.999 982.437 272.588C986.798 272.336 993.363 264.248 996.643 255.208C999.826 246.545 998.714 243.612 991.511 242.059ZM992.696 249.984C992.243 252.579 987.082 262.47 985.031 264.645C984.006 265.732 982.469 266.734 981.573 266.9C980.09 267.157 979.911 266.939 978.963 264.568C977.978 261.97 978.055 261.794 980.084 257.794C982.562 253.083 986.375 249.236 989.439 248.345C992.254 247.554 993.059 247.907 992.696 249.984Z" fill="#FBC400"/>
<path d="M1429.52 17.0083C1427.88 18.8014 1424.07 24.1808 1421.01 29.0372C1417.94 33.8936 1413.76 40.4684 1411.74 43.6063C1409.72 46.7443 1405.17 54.3651 1401.58 60.5664C1397.99 66.6929 1393.66 73.9401 1391.94 76.5551C1388.51 81.8598 1388.36 82.6816 1390.07 84.1759C1391.12 85.0725 1391.57 84.8483 1393.36 82.7564C1394.41 81.4115 1398.67 74.5378 1402.7 67.44C1406.74 60.4169 1412.12 51.526 1414.58 47.7156C1417.12 43.9052 1421.68 36.8821 1424.74 32.0257L1430.35 23.2095L1430.64 26.9452C1430.79 28.9625 1430.49 39.4224 1429.97 50.1064C1428.78 74.3137 1429.08 84.2506 1430.94 86.1185C1431.91 87.1645 1432.51 87.2392 1433.56 86.6415C1434.68 85.8943 1434.9 83.4288 1435.5 64.2273C1435.87 52.3479 1436.25 36.2097 1436.25 28.4395L1436.32 14.2438L1434.38 14.0197C1432.96 13.8703 1431.76 14.5427 1429.52 17.0083Z" fill="black"/>
<path d="M1494.28 95.5334C1492.79 96.5047 1491.59 99.5679 1485.32 118.097C1481.95 128.183 1478.14 139.241 1476.95 142.752C1473.81 151.494 1473.29 154.557 1474.86 155.155C1476.5 155.753 1478.52 153.885 1479.71 150.597C1480.24 149.178 1481.66 145.741 1482.85 143.051C1484.64 139.166 1485.32 138.344 1486.06 138.942C1486.59 139.39 1489.05 139.988 1491.44 140.212C1493.91 140.436 1495.93 140.735 1496 140.81C1496.08 140.885 1496.45 143.051 1496.9 145.666C1497.94 152.092 1499.89 154.109 1502.2 151.27C1503.02 150.373 1502.95 147.459 1501.9 135.431C1501.16 127.361 1500.33 118.172 1499.96 115.108C1499.59 112.045 1499.29 106.74 1499.29 103.378C1499.21 97.9242 1499.06 97.1024 1497.57 96.1311C1495.7 94.7863 1495.4 94.7116 1494.28 95.5334ZM1495.33 128.333L1495.93 134.534H1492.49C1490.62 134.534 1488.45 134.758 1487.56 134.982C1486.14 135.356 1486.29 134.534 1489.8 124.074L1493.61 112.718L1494.13 117.499C1494.43 120.04 1494.95 124.971 1495.33 128.333Z" fill="black"/>
<path d="M1586.26 97.999C1585.06 98.3726 1582.89 99.6427 1581.47 100.913L1578.93 103.08L1578.86 126.839C1578.86 139.913 1579.01 151.793 1579.38 153.287C1579.83 155.379 1580.43 156.126 1582.37 156.799C1585.88 158.069 1589.47 157.919 1593.13 156.201C1597.46 154.258 1604.86 146.339 1607.77 140.511C1610.01 136.028 1610.16 135.132 1610.46 126.316C1610.84 111.298 1608.67 104.2 1602.17 100.016C1598.96 97.999 1597.46 97.5507 1593.43 97.4013C1590.74 97.3266 1587.53 97.5507 1586.26 97.999ZM1597.99 104.798C1599.63 105.769 1601.42 107.338 1601.94 108.384C1605.16 114.511 1605.38 131.247 1602.39 137.896C1599.18 145.218 1589.39 152.988 1585.43 151.419C1584.24 150.971 1584.16 149.327 1584.61 127.735C1584.91 115.034 1585.28 104.275 1585.51 103.901C1585.81 103.453 1587.97 103.154 1590.51 103.154C1593.8 103.154 1595.82 103.603 1597.99 104.798Z" fill="black"/>
<path d="M1487.87 31.1291C1481.15 32.7728 1479.21 34.043 1480.78 35.8361C1482.05 37.4051 1484.89 37.3304 1492.36 35.4625C1498.71 33.8935 1500.28 32.6234 1498.63 30.6061C1497.51 29.2613 1495.2 29.4107 1487.87 31.1291Z" fill="black"/>
<path d="M1560.55 109.056C1559.81 109.579 1559.73 111.821 1560.11 119.666L1560.7 129.603L1558.61 128.258C1556.07 126.614 1551.44 126.988 1548.6 129.154C1543.37 133.04 1542.25 141.258 1546.06 148.58C1549.72 155.827 1554.95 157.845 1561.23 154.557C1566.16 151.867 1566.61 149.701 1566.23 130.425C1566.01 120.562 1565.56 113.838 1564.96 112.269C1563.99 109.579 1562.05 108.16 1560.55 109.056ZM1560.48 141.258C1560.48 149.028 1559.96 150.224 1556.82 150.224C1554.2 150.224 1553.46 149.626 1551.59 145.965C1549.72 142.229 1549.57 137.747 1551.21 135.43C1552.26 133.936 1553.01 133.712 1556.44 133.861L1560.48 134.011V141.258Z" fill="black"/>
<path d="M1556.69 43.7558C1555.49 45.1753 1553.47 50.1811 1551.38 57.0548C1549.44 63.1066 1547.05 70.2044 1546 72.8194C1544.28 77.0034 1544.21 77.6758 1545.26 78.6471C1546 79.3942 1547.05 79.6184 1548.24 79.3195C1550.63 78.7218 1552.95 74.0895 1556.31 62.9572C1559.3 53.3191 1559.6 53.6927 1560.72 68.7849C1561.62 79.3195 1562.59 82.1586 1565.43 81.7103C1567 81.4862 1567.07 81.1873 1567.07 72.147C1567 62.2848 1564.53 46.5202 1562.44 43.158C1561.02 40.9166 1559 41.0661 1556.69 43.7558Z" fill="black"/>
<path d="M1521.57 43.0085C1512.98 43.8304 1512.16 45.3994 1513.5 57.9513C1514.02 62.2847 1514.4 68.1123 1514.4 70.8768C1514.4 76.6297 1515.74 79.9918 1518.28 80.5895C1520.6 81.1873 1530.61 78.5723 1533 76.7791C1535.92 74.6872 1537.19 70.279 1536.14 66.3939C1535.69 64.6008 1534.5 62.3594 1533.6 61.2387C1531.28 58.6237 1526.28 58.026 1522.47 60.0433C1519.18 61.7617 1519.18 61.7617 1518.43 54.365L1517.98 49.0603L1520.45 48.6868C1521.87 48.4626 1525.68 48.0891 1528.97 47.8649C1535.54 47.3419 1537.78 46.1465 1536.36 43.9051C1535.39 42.4108 1530.76 42.112 1521.57 43.0085ZM1530.09 66.0951C1530.46 66.9169 1530.83 68.4112 1530.83 69.5319C1530.83 71.6986 1528.15 73.1929 1522.69 74.0894L1519.63 74.6124V71.325C1519.63 68.4859 1520 67.8135 1522.09 66.3192C1525.08 64.2272 1528.97 64.1525 1530.09 66.0951Z" fill="black"/>
<path fill-rule="evenodd" clip-rule="evenodd" d="M1442.6 65.0491C1444.02 54.8881 1449.02 46.1466 1454.33 44.5029C1454.57 44.4425 1454.82 44.3791 1455.06 44.3163C1456.03 44.0683 1456.96 43.8304 1457.32 43.8304C1459.11 43.681 1462.92 45.4741 1463.59 46.7443C1464.86 49.0604 1464.41 53.7674 1462.7 57.2042C1461.35 59.8192 1460.08 61.0146 1456.94 62.5836C1454.7 63.779 1451.94 64.6756 1450.74 64.6756C1448.65 64.6756 1448.65 64.7503 1448.65 69.3825C1448.65 76.4804 1449.25 77.0033 1457.69 76.7792C1465.98 76.6298 1467.33 76.9286 1467.33 79.0953C1467.25 81.5609 1464.41 83.1299 1458.96 83.7276C1452.16 84.4747 1446.18 82.7563 1444.17 79.3942C1442.15 76.1068 1441.7 71.9228 1442.6 65.0491ZM1454.5 57.2042L1450.74 58C1450.97 56.2521 1451.21 55.2668 1452 53.5L1453.5 52L1455.5 51H1457L1458 52V54L1456.94 56L1454.5 57.2042Z" fill="black"/>
<path d="M1514.01 120.264C1513.26 121.31 1513.11 123.925 1513.56 131.545C1514.23 144.322 1515.13 148.132 1518.12 150.672C1520.13 152.391 1520.95 152.615 1524.54 152.316C1528.05 152.017 1528.95 151.569 1530.74 149.477C1533.73 145.891 1535.08 141.184 1535.6 132.517C1536.12 124.149 1535.6 122.58 1532.31 122.58C1530.07 122.58 1530 122.729 1529.17 132.816C1528.43 142.454 1526.93 145.965 1523.72 146.339C1521.93 146.563 1521.63 146.189 1520.95 143.724C1520.58 142.155 1519.98 136.701 1519.76 131.545C1519.24 122.132 1518.27 118.844 1516.02 118.844C1515.5 118.844 1514.53 119.442 1514.01 120.264Z" fill="black"/>
<path d="M1474.95 46.2213C1474.43 46.819 1474.05 52.7961 1473.9 61.6871C1473.75 74.3137 1473.9 76.5551 1475.02 78.6471C1476.52 81.4862 1478.31 82.6069 1481.45 82.6069C1484.59 82.6069 1488.55 78.4977 1492.51 71.0263L1495.72 65.0492V71.0263C1495.72 75.2103 1496.09 77.5264 1496.92 78.7218C1498.19 80.5149 1500.5 80.8885 1501.47 79.3942C1502.29 78.0494 1501.7 48.7616 1500.8 47.6409C1500.35 47.1926 1499.23 46.7443 1498.33 46.7443C1496.02 46.7443 1495.57 47.4915 1491.98 56.4571C1487.35 68.3366 1482.27 77.1528 1480.7 76.1816C1480.33 75.9574 1480.03 69.6067 1480.03 61.9859C1480.03 53.8421 1479.73 47.5662 1479.28 46.6696C1478.39 45.0259 1476.14 44.8018 1474.95 46.2213Z" fill="black"/>
</g>
<defs>
<linearGradient id="paint0_linear" x1="146.993" y1="149.61" x2="360.525" y2="149.61" gradientUnits="userSpaceOnUse">
<stop stop-color="#0066FF"/>
<stop offset="0.0666667" stop-color="#0066FF" stop-opacity="0.991353"/>
<stop offset="0.133333" stop-color="#0066FF" stop-opacity="0.96449"/>
<stop offset="0.2" stop-color="#0066FF" stop-opacity="0.91834"/>
<stop offset="0.266667" stop-color="#0066FF" stop-opacity="0.852589"/>
<stop offset="0.333333" stop-color="#0066FF" stop-opacity="0.768225"/>
<stop offset="0.4" stop-color="#0066FF" stop-opacity="0.668116"/>
<stop offset="0.466667" stop-color="#0066FF" stop-opacity="0.557309"/>
<stop offset="0.533333" stop-color="#0066FF" stop-opacity="0.442691"/>
<stop offset="0.6" stop-color="#0066FF" stop-opacity="0.331884"/>
<stop offset="0.666667" stop-color="#0066FF" stop-opacity="0.231775"/>
<stop offset="0.733333" stop-color="#0066FF" stop-opacity="0.147411"/>
<stop offset="0.8" stop-color="#0066FF" stop-opacity="0.0816599"/>
<stop offset="0.866667" stop-color="#0066FF" stop-opacity="0.03551"/>
<stop offset="0.933333" stop-color="#0066FF" stop-opacity="0.01"/>
<stop offset="1" stop-color="#0066FF" stop-opacity="0"/>
</linearGradient>
<clipPath id="clip0">
<rect width="1890" height="342" fill="white"/>
</clipPath>
</defs>
</svg>
