<svg width="500" height="1290" viewBox="0 0 500 1290" fill="none" xmlns="http://www.w3.org/2000/svg">
<rect width="500" height="1290" fill="white"/>
<rect x="25" width="450" height="300" rx="20" fill="#F2F7FA"/>
<path fill-rule="evenodd" clip-rule="evenodd" d="M223.15 124.468C213.858 105.605 194.441 92.6263 171.993 92.6263C140.516 92.6263 115 118.143 115 149.619C115 181.095 140.516 206.612 171.993 206.612C194.441 206.612 213.858 193.633 223.15 174.77L205.048 168.366C198.515 179.861 186.159 187.614 171.993 187.614C151.009 187.614 133.998 170.603 133.998 149.619C133.998 128.635 151.009 111.624 171.993 111.624C186.159 111.624 198.515 119.377 205.048 130.872L223.15 124.468Z" fill="#0066FF"/>
<path d="M171.993 149.61L385.525 74V225.22L171.993 149.61Z" fill="url(#paint0_linear)"/>
<rect x="25" y="990" width="450" height="300" rx="20" fill="#F2F7FA"/>
<path fill-rule="evenodd" clip-rule="evenodd" d="M270.736 1111.25L249.9 1057L239.23 1084.78C252.716 1096.27 261.489 1112.17 263.854 1129.53C266.348 1147.85 261.526 1166.39 250.382 1181.34C239.239 1196.29 222.627 1206.5 203.977 1209.85C199.648 1210.63 195.286 1211.03 190.941 1211.06L186 1224H190.181C204.357 1224.07 218.423 1220.59 231.047 1213.74C248.766 1204.13 262.486 1188.51 269.746 1169.69C276.979 1150.94 277.329 1130.23 270.736 1111.25ZM286.407 1152.05C285.404 1159.5 283.53 1166.85 280.788 1173.96C277.931 1181.36 274.198 1188.33 269.701 1194.74L314 1223.89L286.407 1152.05ZM195.274 1199.23C197.454 1199.07 199.632 1198.79 201.801 1198.4C217.435 1195.58 231.362 1187.02 240.703 1174.49C250.044 1161.96 254.087 1146.42 251.996 1131.07C250.216 1117.99 244.103 1105.91 234.687 1096.61L230.235 1108.2C237.128 1116.41 241.107 1126.72 241.47 1137.5C241.876 1149.58 237.721 1161.36 229.832 1170.51C222.203 1179.35 211.624 1185.1 200.087 1186.7L195.274 1199.23ZM205.493 1172.62C211.226 1170.57 216.381 1167.06 220.421 1162.38C226.265 1155.6 229.344 1146.87 229.043 1137.92C228.857 1132.41 227.396 1127.06 224.829 1122.28L205.493 1172.62Z" fill="#FF006B"/>
<rect x="25" y="330" width="450" height="300" rx="20" fill="#F2F7FA"/>
<path fill-rule="evenodd" clip-rule="evenodd" d="M362 435V464.377H264.689V524.967H235.312V464.377H138V435H362Z" fill="#36D681"/>
<rect x="25" y="660" width="450" height="300" rx="20" fill="#F2F7FA"/>
<path fill-rule="evenodd" clip-rule="evenodd" d="M313.284 841.864L329.142 826.006L345 810.148L329.142 794.29L313.284 778.432L297.426 762.574L281.568 746.716L265.71 730.858L249.852 715L233.994 730.858L218.136 746.716L202.278 762.574L186.42 778.432L170.562 794.29L154.703 810.148L170.562 826.006L186.42 841.864L202.278 857.722L218.136 873.58L233.994 889.438L249.852 905.296L265.71 889.438L281.568 873.58L297.426 857.722L313.284 841.864ZM218.136 841.864L233.994 826.006L249.852 810.148L265.71 826.006L281.568 841.864L297.426 826.006L313.284 810.148L297.426 794.29L281.568 778.432L265.71 794.29L249.852 810.148L233.994 794.29L218.136 778.432L202.278 794.29L186.42 810.148L202.278 826.006L218.136 841.864ZM249.852 841.864L233.994 857.722L249.852 873.58L265.71 857.722L249.852 841.864ZM249.852 778.432L233.994 762.574L249.852 746.716L265.71 762.574L249.852 778.432Z" fill="#1E1E1E"/>
<path d="M261.221 197.89C259.268 201.063 257.625 256.724 259.398 261.003C259.953 262.395 262.152 262.862 262.801 261.752C263.002 261.434 263.084 256.329 263.041 250.393C262.925 237.272 263.236 230.91 264.075 231.15C264.39 231.246 266.158 233.233 267.988 235.636C269.869 237.985 272.288 241.05 273.364 242.429C274.492 243.808 276.387 246.729 277.637 248.834C281.177 255.1 283.934 259.198 284.936 259.694C286.201 260.287 287.488 259.683 287.458 258.486C287.42 256.924 279.186 241.973 276.99 239.527C275.865 238.253 273.606 235.393 271.938 233.195L268.973 229.154L273.347 224.931C276.194 222.1 278.771 218.912 280.876 215.579C282.628 212.723 286.054 208.055 288.429 205.132C292.981 199.655 293.824 197.968 292.699 196.694C291.198 194.96 289.919 195.877 285.069 201.934C282.493 205.175 279.32 209.524 278.069 211.586C275.567 215.71 269.145 223.473 266.741 225.251C265.463 226.22 265.1 226.281 264.514 225.723C263.927 225.164 263.827 223.24 263.997 215.372C264.23 205.835 264.488 201.558 264.956 199.412C265.239 198.207 263.95 196.624 262.752 196.654C262.336 196.664 261.672 197.201 261.221 197.89Z" fill="black"/>
<path fill-rule="evenodd" clip-rule="evenodd" d="M459.113 210.126C459.116 208.147 459.351 207.151 460.113 206.351C461.382 205.018 462.267 204.996 463.336 206.115C463.979 206.828 464.29 208.904 464.645 214.832C464.959 219.095 465.695 227.774 466.267 234.061C467.792 249.387 467.801 249.751 467.091 250.498C466.278 251.351 463.972 250.731 463.052 249.348C461.972 247.812 461.171 242.781 460.231 232.18C459.798 227.295 459.333 223.244 459.225 223.091C459.066 222.99 459.005 224.711 459.062 227.001C459.266 237.359 456.336 247.327 452.528 249.192C449.285 250.73 445.447 249.263 443.957 245.863C442.139 241.845 444.636 239.648 447.066 243.13C447.767 244.102 448.882 244.96 449.509 245.048C450.502 245.18 450.907 244.701 451.942 242.332C453.369 238.964 454.531 233.31 454.447 229.927L454.389 227.585L451.058 227.667C448.455 227.732 447.461 227.548 446.556 226.737C444.801 225.27 443.854 222.794 443.772 219.463C443.633 213.842 446.27 210.964 450.92 211.578C453.429 211.933 456.507 214.252 457.076 216.217C457.419 217.459 457.47 217.405 458.301 215.197C458.79 213.935 459.15 211.635 459.113 210.126ZM450.974 224.284L448.58 224.344L447.775 223.374L447.214 221.773L447.182 220.472L447.404 218.904L447.898 217.851L448.653 216.79L450.206 216.387L451.767 216.349L453.351 217.195L454.151 217.956L454.45 219.511L454.501 221.593L454.013 222.907L452.991 223.714L450.974 224.284Z" fill="black"/>
<path d="M407.657 214.264C407.101 214.954 407.057 217.403 407.373 225.936C407.736 236.395 407.746 236.812 406.718 237.358C406.101 237.686 405.013 237.921 404.23 237.836L402.821 237.715L402.029 230.964C401.624 227.224 401.198 222.652 401.15 220.726C401.025 217.761 400.853 217.14 399.905 216.695C397.531 215.452 396.432 217.354 396.458 222.613C396.451 224.436 396.898 231.977 397.447 239.41C398.175 249.912 398.619 253.13 399.209 253.793C400.174 254.915 401.424 254.936 402.753 253.913C403.621 253.215 403.71 252.588 403.439 247.959L403.155 242.81L405.386 242.443C406.579 242.257 407.671 242.178 407.829 242.278C407.937 242.432 408.201 244.665 408.371 247.316C408.765 252.723 409.697 254.627 411.994 254.83C413.926 255.043 415.277 252.822 414.446 250.812C414.115 250.039 413.555 242.136 413.111 232.617C412.725 223.356 412.159 215.194 411.882 214.524C411.272 213.028 408.716 212.883 407.657 214.264Z" fill="black"/>
<path d="M357.753 215.915C356.774 216.304 354.453 217.247 352.65 218.021C350.69 218.798 349.152 219.774 348.958 220.352C348.422 221.875 349.273 256.226 349.935 257.72C350.656 259.525 352.425 259.429 353.108 257.59C353.349 256.803 353.565 248.673 353.547 239.559L353.501 222.947L356.334 221.679C358.909 220.522 359.22 220.462 359.552 221.235C359.771 221.698 360.045 226.431 360.228 231.738C360.765 249.224 362.59 257.72 365.765 257.641C367.899 257.588 368.288 256.485 367.37 253.07C366.285 249.191 365.673 243.426 364.899 228.967C364.376 218.355 364.187 217.058 363.278 216.091C362.102 214.87 360.33 214.81 357.753 215.915Z" fill="black"/>
<path d="M429.579 214.138C429.225 214.563 428.042 219.384 426.927 224.827C424.882 234.773 423.153 240.649 421.697 242.872C420.942 243.932 420.868 243.049 420.73 231.126L420.565 218.162L419.345 217.255C418.07 216.245 416.875 216.379 416.436 217.588C416 218.9 415.48 237.87 415.75 242.447C416.139 247.645 416.898 248.876 420.086 249.318C423.483 249.807 426.204 246.094 428.903 237.33L429.769 234.444L430.269 237.817C431.358 246.018 434.344 250.944 436.95 248.9C437.972 248.146 437.828 246.535 436.274 240.532C435.755 238.514 434.967 231.92 434.45 225.787C433.489 214.301 433.203 213.267 431.173 213.317C430.653 213.33 429.933 213.712 429.579 214.138Z" fill="black"/>
<path d="M381.741 217.197C381.072 217.526 380.047 218.176 379.538 218.657C377.961 220.155 375.745 225.313 374.519 230.499C372.91 237.049 371.402 249.742 371.94 252.541C372.732 257.208 375.109 256.42 375.607 251.304C375.722 249.635 375.975 247.233 376.152 245.979L376.408 243.681L381.504 243.398L386.548 243.065L386.695 248.999C386.82 254.047 386.999 254.98 387.798 255.69C389.127 256.802 390.167 256.725 391.281 255.447C392.091 254.49 392.122 253.656 391.632 246.481C390.656 232.287 388.951 222.33 386.949 219.307C386.19 218.076 383.753 216.418 383.134 216.641C383.082 216.643 382.463 216.918 381.741 217.197ZM383.966 225.006C384.504 227.804 385.873 236.832 385.901 237.977C385.908 238.238 385.131 238.413 384.246 238.435C383.31 238.51 381.239 238.978 379.692 239.589C378.143 240.148 376.852 240.597 376.799 240.546C376.584 240.291 378.965 229.191 379.649 227.352C380.572 224.673 382.22 221.82 382.845 221.804C383.105 221.798 383.61 223.244 383.966 225.006Z" fill="black"/>
<path d="M297.391 220.013C296.673 220.448 295.502 221.57 294.797 222.525C291.122 227.668 289.709 233.692 290.424 241.538C291.351 251.619 293.474 257.451 296.848 259.086C298.903 260.077 302.91 259.926 305.43 258.666C310.732 256.139 315.736 247.891 316.042 241.321C316.289 236.576 315.172 229.312 313.74 226.171C311.98 222.413 309.908 220.745 307.047 220.868C305.798 220.899 304.754 220.821 304.749 220.613C304.733 219.988 302.108 219.115 300.39 219.158C299.455 219.233 298.109 219.579 297.391 220.013ZM304.191 225.418C304.51 225.67 305.45 225.803 306.28 225.678C307.578 225.49 307.898 225.795 309.045 227.954C310.902 231.449 311.622 241.587 310.308 245.317C309.042 248.889 307.284 251.485 305.084 253.102C299.151 257.467 296.89 254.502 296.044 241.347C295.553 234.12 296.243 230.458 298.752 226.594C300.105 224.477 300.362 224.315 301.88 224.642C302.821 224.775 303.82 225.166 304.191 225.418Z" fill="black"/>
<path d="M336.766 220.133C336.107 220.878 335.412 222.249 335.278 223.138C334.68 226.33 332.033 233.009 331.455 232.815C331.14 232.719 329.989 230.404 328.88 227.671C326.767 222.255 325.633 220.616 324.019 220.656C321.781 220.712 321.61 222.226 321.634 237.902C321.654 249.254 321.853 253.051 322.396 253.975C323.325 255.723 324.16 255.806 325.163 254.219C325.813 253.162 326.068 250.812 326.311 243.827L326.66 234.757L328.369 236.485C331.201 239.383 334.047 238.636 336.03 234.577L337.166 232.101L337.723 244.065C338.383 258.11 338.848 260.078 341.755 259.694L343.469 259.495L343.177 254.034C342.999 251.018 342.519 242.176 342.118 234.374C341.478 221.162 341.347 220.071 340.394 219.418C338.963 218.412 338.134 218.588 336.766 220.133Z" fill="black"/>
<path d="M270.94 268.633C264.059 270.47 259.983 274.112 256.724 281.328C253.665 288.174 252.419 294.663 252.619 302.73C252.973 317.043 256.605 324.921 264.777 328.937C267.993 330.524 273.978 330.376 277.011 328.739C280.298 326.887 283.984 322.213 285.697 317.795C288.882 309.696 289.661 305.407 289.468 297.599C289.365 293.436 288.944 289.071 288.422 286.897C287.203 281.823 284.31 276.479 281.169 273.692C279.091 271.817 278.714 271.305 279.38 270.872C280.404 270.17 279.692 268.729 278.063 268.144C276.276 267.512 274.56 267.606 270.94 268.633ZM277.241 277.018C282.944 282.293 285.903 296.646 283.509 307.225C279.933 322.677 273.301 328.258 264.989 322.787C260.596 319.927 258.348 313.264 258.081 302.491C257.95 295.099 259.011 289.552 261.633 283.967C264.897 276.959 266.836 275.349 271.991 275.325C275.116 275.352 275.589 275.497 277.241 277.018Z" fill="black"/>
<path d="M411.394 268.49C407.147 269.428 400.975 270.466 397.808 270.857C391.055 271.545 389.202 272.424 387.511 275.643C386.016 278.388 386.088 283.386 387.616 286.212C388.98 288.731 391.458 289.919 394.046 289.282C396.582 288.647 397.041 288.271 397.004 286.761C396.973 285.512 396.814 285.412 394.105 285.375C391.552 285.334 390.261 281.564 391.799 278.453C392.493 277.03 392.699 276.973 399.45 276.181C407.239 275.259 423.867 271.618 425.66 270.428C427.042 269.457 427.066 268.31 425.748 267.666C423.532 266.523 419.164 266.787 411.394 268.49Z" fill="black"/>
<path d="M401.623 277.689C400.765 278.804 399.728 289.506 399.368 300.191C398.988 312.179 399.403 314.252 402.272 314.441C403.264 314.521 403.95 314.869 403.96 315.285C403.987 316.378 406.152 317.574 407.973 317.529C410.472 317.467 416.634 313.93 418.706 311.379C421.942 307.445 423.208 303.924 423.289 298.766C423.279 296.266 423.156 293.405 422.976 292.42C422.447 289.986 419.62 287.295 416.948 286.632C414.433 286.018 408.827 286.781 406.41 288.039L404.868 288.858L404.755 284.278C404.692 281.728 404.418 279.078 404.087 278.358C403.531 276.913 402.43 276.628 401.623 277.689ZM417.408 292.61C418.32 293.681 418.554 294.717 418.621 297.423C418.668 301.432 418.047 303.687 415.889 306.969C414.233 309.51 409.877 312.378 406.716 313.029C404.126 313.562 403.725 312.114 404.127 303.094C404.418 295.9 404.514 295.585 405.882 294.041C407.808 291.91 408.736 291.523 412.848 291.421C415.969 291.292 416.388 291.385 417.408 292.61Z" fill="black"/>
<path d="M357.34 283.368C357.041 283.949 356.545 287.034 356.208 290.271C355.282 299.147 354.261 304.172 352.687 307.909C351.162 311.54 349.004 314.822 348.171 314.843C347.547 314.858 347.376 305.853 347.877 296.622C348.376 287.34 348.293 286.092 347.181 285.338C344.425 283.428 343.028 287.993 342.554 300.4C342.113 312.024 342.632 316.178 344.66 318.159C348.072 321.355 352.389 319.009 356.069 311.991C357.509 309.143 357.668 309.244 358.36 314.07C359.293 320.192 362.06 322.571 363.947 318.879C364.494 317.824 364.466 316.679 363.849 312.788C363.419 310.143 362.814 302.554 362.496 296C362.176 289.394 361.669 283.626 361.395 283.112C360.74 281.878 358.035 281.997 357.34 283.368Z" fill="black"/>
<path d="M333.652 283.694C333.394 283.805 332.515 284.035 331.738 284.21C330.029 284.617 327.49 287.232 326.204 289.972C324.717 293.029 323.878 299.091 323.899 306.278C323.948 312.474 324.004 312.629 325.815 316.334C327.676 319.985 330.994 323.601 332.503 323.563C333.961 323.527 336.12 322.38 336.872 321.216C337.325 320.58 338.058 318.635 338.484 316.905C339.198 314.18 339.185 313.659 338.545 313.05C337.852 312.39 337.543 312.554 335.925 314.521C334.966 315.743 333.793 316.761 333.377 316.771C333.013 316.781 332.157 315.864 331.556 314.733C329.7 311.29 329.252 307.916 329.653 300.979C329.944 295.921 330.266 294.194 331.405 291.822C332.492 289.452 333 288.918 334.041 288.893C335.03 288.868 335.562 289.324 336.38 290.814C337.146 292.305 337.625 292.71 338.507 292.584C339.492 292.403 339.588 292.088 339.376 289.802C339.286 288.294 338.778 286.692 338.238 285.924C337.27 284.698 334.634 283.41 333.652 283.694Z" fill="black"/>
<path d="M434.069 281.938C430.429 284.267 427.945 293.287 427.8 304.279C427.702 312.927 428.341 315.619 430.586 315.824C432.464 315.986 433.091 313.939 432.945 308.058C432.819 302.957 432.719 303.116 436.972 302.437L439.566 302.009L439.61 303.778C439.634 304.767 439.429 307.012 439.213 308.788C438.9 310.879 438.939 312.44 439.325 313.316C439.992 315.018 442.192 315.536 443.465 314.359C445.399 312.541 445.701 291.076 443.895 285.444C443.558 284.463 442.637 283.028 441.836 282.214C440.661 281.046 439.978 280.802 438.053 280.85C436.595 280.886 434.992 281.342 434.069 281.938ZM438.886 287.183C439.059 287.856 439.282 290.558 439.347 293.161L439.467 298.001L437.541 298.049C436.448 298.076 434.994 298.268 434.323 298.493C433.134 298.835 433.08 298.784 433.396 296.797C433.888 293.556 435.627 288.045 436.486 286.982C437.549 285.758 438.436 285.84 438.886 287.183Z" fill="black"/>
<path d="M297.826 285.987C297.327 286.885 297.142 289.91 297.053 296.839C297.028 302.152 296.908 309.914 296.855 314.082L296.68 321.742L298.107 322.592C299.377 323.394 299.585 323.389 300.66 322.633C301.787 321.876 301.877 321.301 302.283 312.49C302.761 302.322 302.803 301.905 303.635 301.884C304.78 301.856 305.809 305.528 306.433 311.814C307.182 318.93 307.64 320.585 309.439 321.739C313.516 324.45 318.773 320.102 319.136 313.739C319.247 311.913 319.084 311.657 318.092 311.525C316.891 311.399 315.82 312.311 313.909 315.066C313.257 316.072 312.542 316.662 312.328 316.407C312.114 316.204 311.576 313.405 311.185 310.238C310.283 303.23 309.215 300.079 307.091 298.413C306.24 297.705 305.648 296.939 305.799 296.727C305.949 296.462 307.839 294.957 310.038 293.341C313.21 291.023 314.445 290.419 316.11 290.378C317.88 290.334 318.239 290.117 318.624 288.858C319.253 286.915 317.705 285.391 315.048 285.353C313.433 285.341 312.148 285.997 307.798 289.126L302.476 292.903L302.125 291.349C301.948 290.52 301.756 289.067 301.731 288.078C301.658 285.111 299.177 283.767 297.826 285.987Z" fill="black"/>
<path d="M462.817 281.903C462.051 282.547 460.194 283.27 458.742 283.515C457.291 283.811 455.846 284.315 455.49 284.689C455.033 285.169 454.788 287.883 454.776 293.716C454.774 302.049 454.242 305.812 452.421 310.075L451.584 312.023L451.334 310.363C451.08 308.494 449.7 307.435 448.573 308.192C447.547 308.842 447.766 313.472 448.9 315.11C449.388 315.879 450.395 316.583 451.129 316.773C455.528 317.758 459.098 308.4 459.49 294.797L459.694 288.282L461.658 287.713L463.675 287.142L463.958 298.541C464.277 311.448 464.628 313.002 467.439 312.932C468.375 312.909 469.147 312.526 469.393 311.947C469.937 310.787 468.374 283.38 467.709 281.782C467.047 280.288 464.809 280.344 462.817 281.903Z" fill="black"/>
<path d="M476.087 281.523C472.822 282.177 471.901 282.824 471.941 284.438C471.977 285.895 472.871 286.238 476.358 286.151L479.064 286.084L479.11 296.343C479.144 306.133 479.911 313.978 481.048 315.72C482.022 317.207 482.975 315.725 483.506 311.91C484.045 308.459 483.537 290.036 482.883 286.771C482.652 285.839 483.012 285.674 486.857 285.318C489.196 285.104 491.322 284.739 491.681 284.522C492.45 284.034 492.347 281.954 491.547 281.192C490.8 280.482 480.441 280.686 476.087 281.523Z" fill="black"/>
<path d="M373.835 297.542C372.516 298.929 372.579 299.396 374.009 300.35C374.804 300.903 376.372 301.125 378.714 301.067C383.138 300.958 384.84 300.291 384.8 298.677C384.75 296.647 383.803 296.254 379.171 296.369C375.527 296.459 374.698 296.636 373.835 297.542Z" fill="black"/>
<path d="M39.5991 480.571C38.804 481.032 38.6053 482.874 38.6053 489.911C38.6053 494.713 38.539 503.066 38.4065 508.525L38.274 518.391L34.564 511.813C28.6676 501.421 22.3738 490.964 20.585 488.596C18.5975 485.899 15.4174 485.636 14.3574 488.07C13.4961 489.845 13.6949 490.306 20.7175 501.882C23.3675 506.289 28.1376 514.576 31.3177 520.364C36.4853 529.769 37.0153 531.085 36.419 532.663C36.0878 533.65 31.4502 540.556 26.2826 547.988C14.6224 564.497 14.8874 564.037 16.0137 565.747C17.0074 567.194 18.3325 567.654 19.3925 566.865C19.79 566.602 24.0963 560.88 28.9326 554.039C33.8352 547.265 37.9428 541.74 38.0753 541.74C38.274 541.74 38.274 547.331 38.1415 554.105C37.9428 567.391 38.274 568.97 41.1891 568.575C43.5079 568.246 44.2366 565.484 44.7004 554.894L45.0979 544.963L49.5367 553.447C54.4393 562.919 57.2881 566.931 60.2694 568.444C64.2445 570.483 65.437 566.602 62.1907 561.932C61.1969 560.419 58.6794 555.881 56.6256 551.935C54.6381 547.923 51.193 541.608 49.0067 537.794L44.9654 530.887L46.6879 527.928C49.2055 523.652 61.1969 505.17 63.9795 501.29C65.3045 499.448 67.6233 496.488 69.2133 494.647C72.2609 491.095 72.6584 489.78 71.1346 488.53C70.4058 487.872 69.7433 487.938 68.087 488.793C63.9132 490.964 61.3294 494.186 48.2117 514.115L44.1041 520.364L44.5679 502.934C45.0317 485.241 44.8329 483.202 42.5804 481.032C41.3216 479.782 40.9903 479.716 39.5991 480.571Z" fill="#0038FF"/>
<path d="M202.717 503.942C199.436 505.714 198.78 505.845 195.104 505.452C191.298 505.058 190.97 505.124 189.986 506.633C189.198 507.88 189.067 508.733 189.592 510.439C189.986 511.686 190.248 519.364 190.248 527.435C190.248 539.379 190.051 542.791 189.132 545.613C188.148 548.828 188.017 549.025 187.361 547.647C186.245 545.547 184.473 545.416 183.685 547.516C181.454 553.488 184.998 558.869 189.592 556.375C191.167 555.522 193.267 551.913 194.973 546.991C196.22 543.382 196.417 541.151 196.68 527.763L196.942 512.539L199.567 512.145C201.011 511.883 203.045 511.292 204.095 510.701L205.998 509.717V523.039C206.064 541.216 206.786 549.616 208.492 551.257C210.067 552.897 212.43 552.306 212.889 550.272C213.086 549.485 213.021 538.723 212.692 526.385C212.299 509.455 211.97 503.745 211.314 502.958C210.002 501.383 206.72 501.777 202.717 503.942Z" fill="#0038FF"/>
<path d="M169.789 506.532C167.679 507.122 165.568 510.465 164.034 515.708C162.243 521.476 160.069 540.484 160.005 550.185C159.941 558.509 160.516 561 162.691 561C164.289 561 165.313 557.919 165.313 553.135C165.313 551.037 165.504 548.022 165.696 546.449C166.08 543.499 166.144 543.434 168.766 543.106C170.237 542.909 171.964 542.516 172.539 542.254C173.498 541.926 173.626 542.451 173.626 547.17C173.626 551.627 173.818 552.676 174.905 553.79C176.504 555.429 177.591 555.429 179.062 553.79C180.085 552.61 180.149 551.299 179.829 537.928C179.446 523.311 179.126 520.1 177.08 512.955C176.056 509.547 173.243 505.811 171.836 506.007C171.58 506.073 170.684 506.27 169.789 506.532ZM172.283 518.199C172.731 520.296 173.243 525.278 173.434 529.21L173.818 536.42L170.365 537.207C168.446 537.6 166.847 537.862 166.72 537.731C166.592 537.6 166.975 533.864 167.551 529.473C168.574 520.952 170.109 514.463 171.004 514.463C171.26 514.463 171.9 516.167 172.283 518.199Z" fill="#0038FF"/>
<path d="M148.192 508.24C147.313 509.908 147.313 517.648 148.26 526.39C148.868 532.662 148.868 533.396 147.787 534.13C147.111 534.597 145.759 534.998 144.745 534.998C142.514 534.998 142.311 534.264 141.703 519.784C141.297 510.642 141.094 509.507 139.945 508.64C138.187 507.506 136.903 507.973 135.686 510.241C134.943 511.709 134.875 516.447 135.145 536.666C135.348 551.413 135.821 561.689 136.227 562.156C137.173 563.424 140.621 563.224 141.365 561.822C141.703 561.222 142.176 556.284 142.446 550.879L142.919 541.137L146.164 540.87L149.409 540.669L149.679 549.544C149.95 557.685 150.085 558.486 151.572 560.021C153.533 562.089 155.358 562.156 156.372 560.221C158.332 556.617 155.29 510.842 152.924 507.973C151.707 506.571 149.071 506.705 148.192 508.24Z" fill="#0038FF"/>
<path d="M111.548 509.831C110.176 510.358 108.543 511.214 107.89 511.807C107.237 512.399 106.061 512.86 105.147 512.86C101.358 512.926 100.444 515.493 101.293 523.592C101.685 526.949 102.142 536.759 102.338 545.45C102.534 554.141 102.795 561.91 102.991 562.7C103.122 563.556 103.971 564.675 104.885 565.267C106.388 566.255 106.649 566.255 108.217 565.202L109.915 564.082L109.654 551.77L109.458 539.393L111.744 540.38C113.181 540.973 115.402 541.236 118.014 541.039C123.109 540.71 125.983 538.669 128.466 533.599C129.968 530.373 130.164 529.385 129.903 525.369C129.38 518.325 125.33 512.662 118.668 509.897C115.859 508.712 114.748 508.712 111.548 509.831ZM118.21 516.81C119.713 517.93 121.476 519.773 122.195 520.958C124.612 524.843 123.501 532.151 120.301 533.928C118.472 534.916 114.748 534.718 111.809 533.533C108.87 532.348 108.804 532.085 108.151 523.723C107.694 517.995 108.086 517.074 111.744 515.559C114.357 514.506 115.271 514.703 118.21 516.81Z" fill="#0038FF"/>
<path d="M90.0204 512.191C88.5054 513.381 88.4396 513.91 88.3737 520.987C88.3737 526.609 88.1103 529.123 87.1881 531.107C85.7391 534.546 82.9727 537.39 81.1943 537.39C78.7573 537.39 77.9669 534.546 77.8351 526.014C77.7693 520.855 77.5058 517.879 76.913 517.217C75.7933 515.828 73.4221 515.961 72.0389 517.482C70.9851 518.606 70.8533 519.929 71.1168 527.602C71.3144 535.009 71.5779 536.795 72.7634 539.11C74.476 542.351 76.5178 543.806 80.0746 544.401C82.9068 544.864 84.7511 544.137 87.6492 541.491L89.4276 539.772V549.164C89.4276 562.987 88.4396 564.509 80.6015 563.583C76.7154 563.053 75.8592 563.583 76.5178 566.03C77.0447 568.212 80.6015 570.064 84.29 569.998C88.5713 569.932 91.8646 567.683 94.0382 563.45C95.5531 560.474 95.6849 559.283 95.9483 550.288C96.0801 544.798 95.9483 534.282 95.6849 526.874C95.2897 514.968 95.0921 513.315 93.9723 512.191C92.3916 510.603 91.9305 510.603 90.0204 512.191Z" fill="#0038FF"/>
<path d="M32.8708 579.449C30.7126 580.177 12.924 581.502 12.1392 581.038C11.0928 580.376 9 582.164 9 583.754C9 586.866 11.3544 587.595 20.5103 587.462C24.9575 587.396 29.0777 587.197 29.6663 586.932C30.5164 586.601 30.5818 590.177 30.1894 616.271C29.7971 642.629 29.8625 646.271 30.778 648.457C31.8898 651.172 33.721 651.768 35.1598 649.98C35.7484 649.318 36.0754 640.509 36.5332 617.728C36.991 594.548 37.3834 586.336 37.972 585.939C38.4298 585.674 41.4382 585.409 44.7081 585.409C49.1553 585.409 50.9211 585.144 51.5097 584.416C52.6215 583.091 51.7713 581.104 49.6785 580.111C47.4549 579.051 35.4868 578.588 32.8708 579.449Z" fill="#0038FF"/>
<path d="M211.125 591.433C210.599 592.29 209.678 595.72 209.086 599.149C208.495 602.513 206.324 612.471 204.154 621.243C200.208 637.598 200.142 638.785 202.97 638.785C204.943 638.785 206.982 633.443 210.468 618.934C212.243 611.746 213.822 606.206 214.085 606.601C214.348 607.063 214.743 609.635 215.006 612.405C215.203 615.109 215.532 618.407 215.729 619.726C216.058 621.902 215.861 622.166 213.033 623.947C210.862 625.397 210.073 626.255 210.205 627.244C210.402 628.563 211.783 628.827 215.006 628.167C216.189 627.904 216.387 628.365 216.847 633.18C217.571 640.632 217.965 641.687 220.07 641.951C223.292 642.347 223.555 640.566 222.306 628.299C219.938 605.348 217.899 593.279 215.926 590.839C214.743 589.52 212.178 589.784 211.125 591.433Z" fill="#0038FF"/>
<path d="M156.516 592.936C155.454 593.729 154.724 595.182 154.458 597.031C153.064 605.948 149.148 623.385 148.019 626.027C147.289 627.81 145.63 630.584 144.435 632.301L142.178 635.472V616.846C142.178 600.796 142.045 598.088 141.116 597.23C139.855 595.975 138.793 595.909 137.266 597.031C136.27 597.758 135.872 599.409 135.407 604.825C134.611 613.345 135.075 637.519 136.005 639.831C137.863 644.124 141.979 645.115 144.966 641.945C147.754 638.906 152.334 631.773 153.927 627.876L155.454 624.243V633.622C155.454 641.218 155.653 643.2 156.516 643.992C157.777 645.313 158.839 645.313 160.499 644.124C161.694 643.2 161.76 642.077 161.959 619.488C162.092 605.221 161.893 595.116 161.494 594.059C160.631 591.814 158.507 591.351 156.516 592.936Z" fill="#0038FF"/>
<path d="M168.885 592.275C167.593 593.733 167.657 595.789 169.467 618.795C171.083 638.818 171.794 642 174.637 642C177.417 642 177.869 640.608 177.223 633.845L176.641 627.679L179.485 629.933C181.101 631.127 184.009 632.983 186.013 634.044C188.016 635.105 190.02 636.364 190.472 636.961C192.282 639.215 195.707 637.823 195.707 634.906C195.707 632.718 193.575 630.729 188.275 627.812C185.754 626.486 182.91 624.629 181.876 623.701L180.002 621.977L184.526 617.27C187.047 614.618 189.697 611.502 190.472 610.308C192.347 607.59 197 596.385 197 594.794C197 593.137 195.449 592.606 193.122 593.601C191.571 594.264 190.601 595.722 188.21 600.761C186.013 605.535 184.268 608.121 181.036 611.568C178.709 614.088 176.576 616.143 176.318 616.143C176.059 616.143 175.672 613.69 175.413 610.64C174.12 593.601 173.926 592.142 173.022 591.545C171.535 590.617 170.113 590.882 168.885 592.275Z" fill="#0038FF"/>
<path d="M82.3271 596.23C81.2654 597.278 81 598.391 81 601.927C81 606.184 82.0617 627.205 82.6589 634.867C82.7916 636.832 82.9243 639.713 82.9243 641.219C82.9906 643.773 84.2514 646 85.7112 646C87.4364 646 88.9625 643.25 88.9625 640.106C88.9625 638.273 89.0952 636.832 89.2943 636.832C89.8251 636.832 96.3942 640.827 98.6502 642.529C101.437 644.559 103.959 644.232 104.622 641.678C105.153 639.582 102.565 636.766 97.1241 633.558C95.0007 632.379 92.3466 630.48 91.1522 629.432L89.0289 627.467L93.4746 622.818C95.9961 620.133 99.1811 615.811 100.906 612.733L103.892 607.363H107.21C109.068 607.363 111.855 607.035 113.447 606.642C115.04 606.315 116.433 606.119 116.566 606.184C116.632 606.315 117.03 614.304 117.428 623.996C118.158 642.529 118.557 644.69 121.41 644.69C124.197 644.69 124.329 643.642 124.064 623.538L123.798 604.416L128.112 603.957C131.031 603.63 132.69 603.106 133.221 602.32C134.349 600.88 134.282 600.552 132.823 598.784C131.827 597.54 131.031 597.278 127.382 597.278C123.002 597.278 102.963 600.945 100.442 602.189C99.7119 602.582 98.1858 604.416 97.1904 606.315C94.9344 610.506 90.7541 616.662 89.4933 617.71C88.6307 618.365 88.4317 617.513 88.0999 611.488C87.8345 607.69 87.6354 602.844 87.6354 600.814C87.6354 598.064 87.3037 596.819 86.441 596.034C84.8485 594.593 83.9196 594.658 82.3271 596.23Z" fill="#0038FF"/>
<path d="M57.9873 597.585C55.1353 598.691 51.7527 603.309 50.2936 608.057C48.9007 612.48 48.8344 613.585 49.166 629.716C49.365 640.447 49.763 647.212 50.2272 648.122C51.2221 649.878 52.8139 650.464 54.4057 649.618C55.5333 648.968 55.6659 648.187 55.6659 641.228V633.553L59.1812 633.618C61.0383 633.618 63.8903 633.423 65.4821 633.098L68.2677 632.512V639.732C68.2677 646.366 68.4004 647.017 69.6606 647.927C71.1861 648.968 72.7779 648.708 74.1044 647.147C75.6962 645.13 75.0993 625.683 72.8442 609.683C72.1146 604.089 69.7269 598.691 67.6708 597.585C66.1453 596.805 59.9107 596.805 57.9873 597.585ZM65.2168 605.455C65.8137 606.951 66.6096 611.114 66.9412 614.756C67.3392 618.333 67.8035 622.691 68.0024 624.382L68.4667 627.504H66.1453C64.9515 627.504 62.1658 627.96 60.1097 628.48C57.9873 629 55.9976 629.456 55.6659 629.456C54.8037 629.456 54.8037 619.374 55.5996 613.976C56.3292 609.033 58.6506 604.22 60.574 603.439C63.2933 602.333 64.0892 602.724 65.2168 605.455Z" fill="#0038FF"/>
<path d="M232.93 898.399C231.787 899.838 231.419 907.277 231.776 920.321C231.897 924.6 231.624 933.039 231.092 939.021C229.973 953.535 229.38 964.33 229.413 969.457C229.415 973.567 229.49 973.818 230.936 974.754C231.973 975.47 232.758 975.576 233.606 974.979C234.856 974.124 235.32 971.108 236.157 959.075L236.532 952.798L241.068 951.024C243.568 949.999 246.829 948.54 248.412 947.654C250.837 946.377 251.232 946.327 251.497 947.206C252.635 950.769 259.936 966.179 260.791 966.744C262.582 967.918 265.484 966.635 265.754 964.568C265.998 962.645 265.671 961.785 251.76 928.702C238.761 897.743 238.842 897.787 235.788 897.197C234.035 896.834 234.161 896.796 232.93 898.399ZM247.906 938.901L249.252 941.785L247.115 942.426C245.922 942.785 243.503 943.854 241.606 944.835C239.79 945.86 238.069 946.514 237.824 946.382C237.579 946.25 237.696 941.626 238.09 936.096C238.421 930.586 238.664 923.869 238.581 921.085L238.378 916.078L242.478 926.079C244.805 931.545 247.227 937.324 247.906 938.901Z" fill="#36D681"/>
<path d="M386.942 872.064C382.74 874.491 380.56 876.584 380.19 878.544C379.557 881.68 382.893 881.842 388.045 878.925C390.557 877.485 390.318 877.146 391.741 885.075C392.975 891.691 397.933 909.106 399.26 911.242C400.347 913.038 402.559 913.333 403.558 911.868C404.537 910.341 403.819 905.214 400.723 892.171C399.175 885.65 397.689 879.11 397.507 877.589L397.091 874.837L400.553 873.592C403.951 872.365 403.995 872.284 403.599 870.279C403.278 868.526 402.831 868.181 401.015 867.836C398.313 867.278 391.591 869.297 386.942 872.064Z" fill="#36D681"/>
<path d="M416.571 863.985C415.34 864.903 412.677 867.21 411.377 868.354C409.838 869.843 409.971 873.023 412.098 882.384C416.233 900.937 421.799 912.622 424.87 909.165C425.579 908.335 426.183 908.291 427.923 909.069C432.102 910.896 436.789 908.256 439.916 902.248C442.446 897.446 442.778 895.36 441.802 890.516C440.588 884.648 439.148 882.135 435.874 880.584L433.134 879.216L433.522 875.948C434.424 868.691 431.839 862.823 427.34 861.983C424.802 861.512 418.249 862.728 416.571 863.985ZM424.892 868.198C426.054 868.191 426.538 868.662 426.991 870.17C427.897 873.186 426.718 879.293 424.922 881.066C421.204 884.649 423.718 888.003 428.87 886.456C433.519 885.059 434.336 885.498 435.77 890.273C436.959 894.231 436.953 894.439 435.032 898.304C433.927 900.553 432.52 902.483 431.829 902.69C431.138 902.898 429.247 902.302 427.594 901.36L424.571 899.734L420.853 888.042C417.286 876.853 417.179 876.268 418.052 874.842C418.617 873.987 418.9 872.875 418.749 872.372C418.088 870.173 420.758 868.344 424.892 868.198Z" fill="#36D681"/>
<path d="M334.937 892.071C333.297 893.454 332.952 894.585 333.556 896.595C334.273 898.982 335.631 899.397 339.212 898.321L342.353 897.377L347.657 915.031L352.96 932.685L354.745 933.382C355.769 933.828 356.994 933.802 357.503 933.444C359.752 931.809 359.594 930.829 355.008 915.563C352.555 907.395 350.422 899.611 350.214 898.235L349.955 895.778L354.227 894.495C357.746 893.438 358.738 892.866 359.441 891.559C359.925 890.66 360.264 889.736 360.169 889.422C359.773 888.103 357.052 886.797 354.727 886.81C351.158 886.787 336.639 890.669 334.937 892.071Z" fill="#36D681"/>
<path d="M449.82 858.381C448.928 859.059 447.49 860.656 446.686 861.856C445.882 863.057 444.406 865.212 443.433 866.532C439.081 872.566 439.701 885.12 444.801 895.027C449.391 903.922 455.832 906.439 462.975 902.17C468.553 898.85 471.993 888.639 470.864 879.183C469.648 869.89 463.839 860.128 457.655 857.328C454.708 855.953 452.747 856.268 449.82 858.381ZM458.406 865.528C461.322 868.624 464.637 877.149 464.915 882.408C465.193 886.983 463.047 894.203 460.899 895.944C458.6 897.868 455.936 898.12 454.069 896.694C452.02 895.118 448.367 887.517 447.662 883.345C446.761 877.382 447.507 872.569 450.345 867.196C452.724 862.577 453.089 862.193 454.49 862.526C455.332 862.821 457.098 864.14 458.406 865.528Z" fill="#36D681"/>
<path d="M363.932 886.442C362.155 888.278 361.264 891.696 361.322 896.679C361.374 899.814 361.997 902.572 364.186 909.175C366.715 916.909 367.161 917.939 369.361 920.018C372.831 923.36 375.281 923.993 380.088 922.892C385.918 921.551 389.303 918 388.209 914.356C387.492 911.969 384.959 911.976 382.334 914.409C378.283 918.023 374.449 917.12 372.047 912.088C369.884 907.395 367.486 896.677 367.994 893.579C368.401 891.059 368.596 890.795 370.914 890.304C373.17 889.832 373.622 889.97 374.836 891.729C375.967 893.444 376.502 893.626 378.072 893.154C379.831 892.625 379.9 892.399 379.334 889.83C378.547 886.299 376.605 884.622 372.741 884.07C369.184 883.632 365.879 884.488 363.932 886.442Z" fill="#36D681"/>
<path d="M322.857 899.741C322.75 900.526 323.7 904.83 325.04 909.291L327.494 917.458L325.22 919.237C323.945 920.237 321.809 921.563 320.421 922.186L317.958 923.336L315.41 914.855C312.768 906.059 311.756 904.514 309.431 905.212C306.855 905.986 307.019 907.444 311.908 925.77C316.162 941.753 316.772 943.557 318.148 944.718C320.053 946.27 322.623 945.703 323.062 943.516C323.256 942.568 322.545 939.288 321.331 935.475C319.261 929.041 319.305 928.96 320.687 928.544C321.504 928.299 323.696 927.161 325.556 926.054C327.459 924.866 329.061 924.042 329.224 924.13C329.388 924.218 329.923 926.455 330.382 929.125C331.629 936.011 333.214 939.234 335.69 939.723C337.173 940.099 337.738 939.929 338.322 939.138C339.302 937.61 337.218 928.167 332.563 913.127C329.235 902.277 328.311 899.883 327.116 898.872C325.294 897.365 323.308 897.824 322.857 899.741Z" fill="#36D681"/>
<path d="M270.762 915.802C263.839 918.977 261.772 920.762 261.642 923.747C261.523 926.317 264.222 935.301 268.896 948.35C272.518 958.358 273.952 960.393 276.779 959.543C279.229 958.807 279.913 956.753 278.586 953.932C277.901 952.562 275.416 945.432 272.9 937.968L268.447 924.511L272.021 922.958C276.708 921.002 280.741 918.694 281.438 917.595C282.392 916.212 281.198 913.146 279.589 912.807C277.917 912.488 278.294 912.374 270.762 915.802Z" fill="#36D681"/>
<path fill-rule="evenodd" clip-rule="evenodd" d="M287.277 940.91C284.201 930.669 284.637 920.264 288.448 912.886C290.363 909.228 290.834 908.744 293.347 907.989C296.74 906.97 300.692 908.043 302.157 910.411C302.773 911.322 303.371 913.54 303.567 915.33C304.55 924.761 299.948 934.295 294.268 934.768L292.314 934.876L293.296 938.143C294.523 942.226 296.943 945.267 298.576 944.776C299.267 944.568 301.158 943.11 302.785 941.457C306.334 937.993 307.917 937.792 308.201 940.789C308.68 945.576 305.772 949.806 300.998 951.24C297.04 952.429 294.426 951.708 291.176 948.643C289.378 946.991 288.712 945.684 287.277 940.91ZM295.491 927.209L292.57 929.114L291.91 928.97L290.777 923.145L292.282 916.529L293.601 914.078L295.8 913.417L297.623 914.924L298.661 918.38L298.348 921.898L295.491 927.209Z" fill="#36D681"/>
<path d="M260.62 978.713C260.337 979.141 256.951 980.638 253.05 982.015C235.66 988.198 234.234 990.065 238.718 1000.43C239.806 1002.91 242.536 1010.86 244.725 1018.15C249.375 1033.39 250.639 1036.23 253.567 1037.55C255.289 1038.26 255.911 1038.28 257.079 1037.38C258.078 1036.6 259.397 1036.21 261.308 1036.18C267.145 1036 273.024 1031.63 276.163 1025.21C278.505 1020.47 278.549 1019.01 276.68 1012.79C273.944 1003.68 268.815 999.609 262.532 1001.5C258.763 1002.63 252.494 1006.84 251.2 1009.15L250.195 1010.82L249.082 1008.48C248.498 1007.22 246.957 1003.23 245.611 999.661L243.233 993.115L246.431 991.675C248.24 990.857 252.902 989.046 256.91 987.568C264.361 984.782 265.931 983.625 265.961 980.534C266.004 977.712 261.957 976.325 260.62 978.713ZM268.064 1008.74C269.252 1009.96 270.29 1012.04 271.12 1014.81C272.272 1018.64 272.272 1019.32 271.054 1021.88C270.363 1023.46 268.825 1025.63 267.669 1026.8C265.577 1028.73 263.711 1029.36 256.851 1030.46C256.203 1030.59 255.468 1028.82 253.977 1023.86L251.957 1017.14L253.571 1014.53C254.463 1013.17 256.303 1011.31 257.635 1010.5C259.029 1009.67 260.405 1008.78 260.681 1008.56C261.021 1008.32 262.384 1007.84 263.785 1007.49C266.022 1006.95 266.537 1007.07 268.064 1008.74Z" fill="#36D681"/>
<path fill-rule="evenodd" clip-rule="evenodd" d="M327.714 981.572C325.94 975.667 324.769 970.402 324.951 969.867C325.447 968.554 325.924 968.548 328.231 969.841C330.066 970.934 330.38 971.524 332.834 979.007L335.501 986.973L337.668 985.979C340.696 984.659 345.729 985.681 348.105 988.118C354.19 994.236 350.638 1005.44 341.798 1008.16L338.343 1009.2L336.049 1006.81C333.974 1004.69 333.566 1003.79 332.275 998.353C331.482 995.029 329.406 987.434 327.714 981.572ZM343.617 1000.77L340.948 1003.28L338.748 1000.52L336.766 993.922L336.724 991.956L338.618 990.968L341.729 991.061L343.363 991.94L344.651 993.95L344.967 997.28L343.617 1000.77Z" fill="#36D681"/>
<path d="M432.546 937.682C431.811 938.656 431.83 940.089 432.667 944.015C433.738 949.174 433.545 955.601 432.289 955.979C431.849 956.111 430.918 953.925 429.729 949.967C428.276 945.129 427.534 943.571 426.553 943.044C424.982 942.146 423.977 942.448 422.746 944.051C421.967 945.106 422.037 946.25 423.553 951.754C425.397 958.803 426.661 960.957 429.84 962.194C431.952 963.067 434.855 962.469 436.5 960.878C437.442 959.91 437.562 960.08 439.242 965.671C441.506 973.211 443.128 975.874 445.478 975.716C446.433 975.703 447.608 975.282 448.06 974.735C449.116 973.459 448.919 969.614 447.7 968.747C447.028 968.333 445.386 963.552 442.234 953.06C438.038 938.635 437.748 937.9 436.114 937.021C434.154 935.966 433.777 936.079 432.546 937.682Z" fill="#36D681"/>
<path fill-rule="evenodd" clip-rule="evenodd" d="M388.804 975.618C387.179 966.106 388.551 956.309 392.118 951.539C396.916 945.166 404.702 947.827 405.924 956.227C407.109 964.502 404.083 970.617 397.8 972.504L394.973 973.353L396.03 976.872C397.559 981.961 398.432 982.589 402.39 981.4C404.193 980.789 406.216 979.771 406.945 979.004C408.873 976.986 409.746 976.929 410.275 978.688C411.558 982.961 408.99 986.951 403.964 988.461C395.985 990.858 390.561 986.255 388.804 975.618ZM396.717 966.847L394.091 968.139L393.336 965.626L392.77 963.741L392.707 962.39L393.522 959.405L393.923 957.546L395.28 956.137L397.291 954.848L398.547 954.471L400.056 956.073L400.811 958.586L400.812 962.01L399.493 964.461L396.717 966.847Z" fill="#36D681"/>
<path d="M465.178 928.427C464.827 929.08 465.311 931.606 466.381 935.394C467.381 938.724 468.91 945.183 469.83 949.838C471.542 958.502 472.127 959.765 474.263 959.123C475.896 958.633 476.523 955.704 475.944 950.81L475.389 946.456L477.525 945.814C479.096 945.342 480.164 944.337 481.495 942.156C482.543 940.402 483.423 939.453 483.574 939.956C483.725 940.458 484.512 944.674 485.242 949.386C486.791 958.647 488.414 962.681 490.739 963.352C493.127 964.005 493.403 961.73 491.979 953.116C488.805 933.658 486.521 924.686 484.491 923.858C481.89 922.721 480.326 925.041 478.934 932.034C477.441 939.606 476.493 941.466 475.035 939.576C474.557 938.897 473.249 936.139 472.211 933.369C471.192 930.661 469.922 928.029 469.419 927.495C468.413 926.427 465.969 926.956 465.178 928.427Z" fill="#36D681"/>
<path d="M307.8 977.075C307.273 978.055 307.123 980.977 307.306 983.867C308.228 995.371 308.57 1002.67 308.478 1007.83C308.304 1014.32 308.38 1014.57 310.384 1015.55C314.067 1017.32 315.623 1011.78 315.21 998.548L315 993.063L317.214 997.467C319.918 1002.82 324.123 1007.93 326.769 1008.98C329.314 1009.93 331.494 1009.2 331.927 1007.23C332.215 1005.91 331.718 1005.16 329.022 1002.34C326.508 999.675 324.647 996.672 319.981 987.526C316.472 980.634 313.63 975.734 312.794 975.232C311.041 974.183 308.798 974.925 307.8 977.075Z" fill="#36D681"/>
<path d="M349.14 965.341C348.644 966.654 349.135 968.973 351.054 975.588C352.387 980.256 354.558 988.166 355.798 993.205C358.101 1002.24 358.918 1004.05 360.489 1003.58C361.557 1003.26 363.215 999.881 362.856 998.687C362.63 997.933 364.728 997.166 375.182 993.889C385.906 990.598 387.923 989.787 388.557 988.706C389.11 987.581 388.738 985.432 385.995 975.845C384.233 969.525 382.264 963.198 381.579 961.829C380.057 958.587 378.021 957.966 376.212 960.153L374.988 961.549L378.668 973.8L382.348 986.051L379.71 986.843C378.202 987.296 376.499 988.013 375.865 988.409C374.766 989.082 374.608 988.787 371.211 977.478C368.286 967.74 367.474 965.724 366.412 965.152C365.74 964.738 364.785 964.751 364.276 965.109C362.662 966.347 363.367 971.204 366.619 981.118L369.658 990.548L365.825 991.699L362.056 992.832L358.853 981.259C357.092 974.939 355.694 968.92 355.726 967.883C356.063 963.535 350.42 961.394 349.14 965.341Z" fill="#36D681"/>
<path fill-rule="evenodd" clip-rule="evenodd" d="M446.518 947.937C447.602 940.83 448.424 938.323 450.484 936.06C452.375 933.917 456.232 932.621 457.696 933.62C459.406 934.75 460.263 940.794 459.366 945.105C458.444 949.56 456.146 953.538 453.721 954.815C452.119 955.638 452.069 955.927 452.899 958.692C453.522 960.765 454.314 962.034 455.634 963.007C457.425 964.182 457.777 964.213 461.597 962.791C465.498 961.414 465.706 961.42 466.309 962.746C466.718 963.65 466.618 964.913 466.022 966.12C465.268 967.716 464.464 968.232 461.7 969.062C457.616 970.289 454.889 969.875 451.64 967.495C449.364 965.85 449.069 965.322 447.389 959.731C445.691 954.076 445.671 953.329 446.518 947.937ZM453.995 947.746L451.357 951.278L450.916 948.671L451.041 945.893L451.385 943.393L452.484 941.35L453.049 939.81L454.211 939.119L454.84 938.93L455.626 940.406L455.532 943.517L453.995 947.746Z" fill="#36D681"/>
<path d="M285.103 987.935C281.497 989.84 278.344 993.253 277.402 996.275C275.131 1003.53 277.177 1014.91 281.665 1020.27C286.034 1025.46 291.331 1026.68 296.344 1023.53C299.579 1021.53 301.067 1018.28 301.806 1011.62C302.414 1006.57 302.332 1005.84 300.199 998.742C298.217 992.146 297.651 990.946 295.759 988.98C292.051 985.299 290.354 985.124 285.103 987.935ZM291.344 992.978C291.928 993.556 293.318 996.357 294.274 999.084C295.771 1003.15 296.092 1004.91 295.962 1008.58C295.75 1014.94 294.495 1018.06 291.906 1018.56C287.188 1019.5 283.327 1012.58 283.399 1003.24C283.46 998.428 283.818 997.567 287.172 994.368C289.973 991.608 289.973 991.608 291.344 992.978Z" fill="#36D681"/>
<path d="M39.7545 1142.51C38.3853 1144 35.2114 1148.48 32.6598 1152.53C30.1083 1156.57 26.6232 1162.05 24.9429 1164.66C23.2626 1167.27 19.4663 1173.62 16.4791 1178.79C13.4919 1183.89 9.88238 1189.93 8.45101 1192.11C5.58827 1196.52 5.4638 1197.21 6.89517 1198.45C7.76644 1199.2 8.13984 1199.01 9.63344 1197.27C10.5047 1196.15 14.052 1190.43 17.4126 1184.51C20.7732 1178.66 25.2541 1171.26 27.3078 1168.08C29.4237 1164.91 33.2199 1159.06 35.7715 1155.01L40.439 1147.67L40.688 1150.78C40.8124 1152.46 40.5635 1161.18 40.1279 1170.08C39.1321 1190.24 39.3811 1198.52 40.9369 1200.07C41.7459 1200.94 42.2438 1201.01 43.1151 1200.51C44.0486 1199.89 44.2353 1197.83 44.7331 1181.84C45.0443 1171.94 45.3555 1158.5 45.3555 1152.03L45.4177 1140.2L43.7996 1140.02C42.6172 1139.89 41.6215 1140.45 39.7545 1142.51Z" fill="#FBC400"/>
<path d="M72.8944 1207.91C71.6497 1208.72 70.6539 1211.27 65.4263 1226.71C62.6258 1235.11 59.4519 1244.32 58.4562 1247.25C55.8424 1254.53 55.4067 1257.08 56.7136 1257.58C58.0828 1258.07 59.7631 1256.52 60.7588 1253.78C61.1945 1252.6 62.3769 1249.73 63.3726 1247.49C64.8662 1244.26 65.4263 1243.57 66.0487 1244.07C66.4843 1244.45 68.538 1244.94 70.5295 1245.13C72.5832 1245.32 74.2635 1245.57 74.3257 1245.63C74.388 1245.69 74.6991 1247.49 75.0725 1249.67C75.9438 1255.02 77.5619 1256.71 79.4911 1254.34C80.1757 1253.59 80.1134 1251.17 79.2422 1241.15C78.6198 1234.43 77.9353 1226.77 77.6241 1224.22C77.3129 1221.67 77.064 1217.25 77.064 1214.45C77.0018 1209.91 76.8773 1209.22 75.6326 1208.41C74.0768 1207.29 73.8279 1207.23 72.8944 1207.91ZM73.7656 1235.23L74.2635 1240.4H71.4007C69.8449 1240.4 68.0401 1240.59 67.2933 1240.77C66.1109 1241.08 66.2354 1240.4 69.1603 1231.69L72.3343 1222.23L72.7699 1226.21C73.0188 1228.33 73.4545 1232.43 73.7656 1235.23Z" fill="#FBC400"/>
<path d="M149.504 1209.97C148.508 1210.28 146.703 1211.34 145.521 1212.39L143.405 1214.2L143.343 1233.99C143.343 1244.88 143.467 1254.78 143.778 1256.02C144.152 1257.76 144.65 1258.39 146.268 1258.95C149.193 1260 152.18 1259.88 155.229 1258.45C158.839 1256.83 165 1250.23 167.427 1245.38C169.294 1241.64 169.419 1240.9 169.668 1233.55C169.979 1221.05 168.174 1215.13 162.76 1211.65C160.084 1209.97 158.839 1209.59 155.478 1209.47C153.238 1209.41 150.562 1209.59 149.504 1209.97ZM159.275 1215.63C160.644 1216.44 162.137 1217.75 162.573 1218.62C165.249 1223.72 165.436 1237.66 162.946 1243.2C160.27 1249.3 152.118 1255.77 148.819 1254.46C147.824 1254.09 147.761 1252.72 148.135 1234.74C148.384 1224.16 148.695 1215.2 148.882 1214.88C149.13 1214.51 150.935 1214.26 153.051 1214.26C155.789 1214.26 157.47 1214.64 159.275 1215.63Z" fill="#FBC400"/>
<path d="M88.3585 1154.27C82.7575 1155.64 81.1394 1156.69 82.4463 1158.19C83.5043 1159.5 85.8692 1159.43 92.0925 1157.88C97.3824 1156.57 98.6893 1155.51 97.3202 1153.83C96.3867 1152.71 94.4574 1152.84 88.3585 1154.27Z" fill="#FBC400"/>
<path d="M128.095 1219.18C127.473 1219.61 127.411 1221.48 127.722 1228.02L128.22 1236.29L126.477 1235.17C124.361 1233.8 120.503 1234.11 118.138 1235.92C113.782 1239.16 112.848 1246 116.022 1252.1C119.072 1258.14 123.428 1259.82 128.655 1257.08C132.763 1254.84 133.136 1253.03 132.825 1236.98C132.638 1228.76 132.265 1223.16 131.767 1221.85C130.958 1219.61 129.34 1218.43 128.095 1219.18ZM128.033 1246C128.033 1252.47 127.597 1253.47 124.984 1253.47C122.806 1253.47 122.183 1252.97 120.627 1249.92C119.072 1246.81 118.947 1243.08 120.316 1241.15C121.187 1239.9 121.81 1239.72 124.673 1239.84L128.033 1239.96V1246Z" fill="#FBC400"/>
<path d="M145.676 1164.79C144.68 1165.97 143 1170.14 141.257 1175.86C139.639 1180.9 137.648 1186.82 136.776 1188.99C135.345 1192.48 135.283 1193.04 136.154 1193.85C136.776 1194.47 137.648 1194.66 138.643 1194.41C140.635 1193.91 142.564 1190.05 145.365 1180.78C147.854 1172.75 148.103 1173.06 149.036 1185.63C149.783 1194.41 150.592 1196.77 152.957 1196.4C154.264 1196.21 154.326 1195.96 154.326 1188.43C154.264 1180.22 152.21 1167.09 150.468 1164.29C149.285 1162.42 147.605 1162.54 145.676 1164.79Z" fill="#FBC400"/>
<path d="M116.426 1164.16C109.269 1164.85 108.584 1166.15 109.705 1176.61C110.14 1180.22 110.451 1185.07 110.451 1187.38C110.451 1192.17 111.572 1194.97 113.688 1195.47C115.617 1195.96 123.956 1193.79 125.948 1192.29C128.375 1190.55 129.433 1186.88 128.561 1183.64C128.188 1182.15 127.192 1180.28 126.445 1179.35C124.516 1177.17 120.347 1176.67 117.173 1178.35C114.434 1179.78 114.434 1179.78 113.812 1173.62L113.439 1169.2L115.492 1168.89C116.675 1168.71 119.849 1168.39 122.587 1168.21C128.064 1167.77 129.931 1166.78 128.748 1164.91C127.939 1163.67 124.081 1163.42 116.426 1164.16ZM123.52 1183.39C123.832 1184.08 124.143 1185.32 124.143 1186.26C124.143 1188.06 121.902 1189.31 117.359 1190.05L114.808 1190.49V1187.75C114.808 1185.38 115.119 1184.82 116.861 1183.58C119.351 1181.84 122.587 1181.78 123.52 1183.39Z" fill="#FBC400"/>
<path fill-rule="evenodd" clip-rule="evenodd" d="M50.6456 1182.52C51.828 1174.06 55.9976 1166.78 60.4162 1165.41C60.6174 1165.36 60.8237 1165.3 61.0278 1165.25C61.8341 1165.05 62.6076 1164.85 62.9056 1164.85C64.3992 1164.72 67.5731 1166.22 68.1332 1167.27C69.1912 1169.2 68.8178 1173.12 67.3864 1175.99C66.2662 1178.17 65.2082 1179.16 62.5944 1180.47C60.7274 1181.46 58.4248 1182.21 57.429 1182.21C55.6865 1182.21 55.6865 1182.27 55.6865 1186.13C55.6865 1192.04 56.1844 1192.48 63.2167 1192.29C70.1247 1192.17 71.2449 1192.42 71.2449 1194.22C71.1826 1196.28 68.8178 1197.58 64.2747 1198.08C58.6115 1198.7 53.6328 1197.27 51.9525 1194.47C50.2722 1191.73 49.8988 1188.25 50.6456 1182.52ZM60.559 1175.99L57.429 1176.65C57.6191 1175.19 57.8216 1174.37 58.4766 1172.9L59.7261 1171.65L61.392 1170.82H62.6414L63.4744 1171.65V1173.32L62.5944 1174.98L60.559 1175.99Z" fill="#FBC400"/>
<path d="M89.3237 1228.51C88.7013 1229.38 88.5769 1231.56 88.9503 1237.91C89.5104 1248.55 90.2572 1251.73 92.7465 1253.84C94.4268 1255.27 95.1114 1255.46 98.0986 1255.21C101.024 1254.96 101.77 1254.59 103.264 1252.85C105.753 1249.86 106.874 1245.94 107.309 1238.72C107.745 1231.75 107.309 1230.44 104.571 1230.44C102.704 1230.44 102.642 1230.57 101.957 1238.97C101.335 1247 100.09 1249.92 97.414 1250.23C95.9204 1250.42 95.6715 1250.11 95.1114 1248.05C94.8002 1246.75 94.3024 1242.2 94.1157 1237.91C93.68 1230.07 92.871 1227.33 91.004 1227.33C90.5683 1227.33 89.7593 1227.83 89.3237 1228.51Z" fill="#FBC400"/>
<path d="M77.5923 1166.84C77.1566 1167.34 76.8455 1172.32 76.721 1179.72C76.5965 1190.24 76.721 1192.11 77.6545 1193.85C78.8992 1196.21 80.3928 1197.15 83.0066 1197.15C85.6204 1197.15 88.9188 1193.72 92.2171 1187.5L94.8932 1182.52V1187.5C94.8932 1190.99 95.2044 1192.91 95.8889 1193.91C96.9469 1195.4 98.8761 1195.72 99.6852 1194.47C100.37 1193.35 99.8719 1168.95 99.1251 1168.02C98.7517 1167.65 97.8182 1167.27 97.0714 1167.27C95.1421 1167.27 94.7687 1167.9 91.7815 1175.36C87.923 1185.26 83.6912 1192.6 82.3843 1191.79C82.0731 1191.61 81.8242 1186.32 81.8242 1179.97C81.8242 1173.19 81.5752 1167.96 81.2018 1167.21C80.455 1165.84 78.588 1165.66 77.5923 1166.84Z" fill="#FBC400"/>
<defs>
<linearGradient id="paint0_linear" x1="171.993" y1="149.61" x2="385.525" y2="149.61" gradientUnits="userSpaceOnUse">
<stop stop-color="#0066FF"/>
<stop offset="0.0666667" stop-color="#0066FF" stop-opacity="0.991353"/>
<stop offset="0.133333" stop-color="#0066FF" stop-opacity="0.96449"/>
<stop offset="0.2" stop-color="#0066FF" stop-opacity="0.91834"/>
<stop offset="0.266667" stop-color="#0066FF" stop-opacity="0.852589"/>
<stop offset="0.333333" stop-color="#0066FF" stop-opacity="0.768225"/>
<stop offset="0.4" stop-color="#0066FF" stop-opacity="0.668116"/>
<stop offset="0.466667" stop-color="#0066FF" stop-opacity="0.557309"/>
<stop offset="0.533333" stop-color="#0066FF" stop-opacity="0.442691"/>
<stop offset="0.6" stop-color="#0066FF" stop-opacity="0.331884"/>
<stop offset="0.666667" stop-color="#0066FF" stop-opacity="0.231775"/>
<stop offset="0.733333" stop-color="#0066FF" stop-opacity="0.147411"/>
<stop offset="0.8" stop-color="#0066FF" stop-opacity="0.0816599"/>
<stop offset="0.866667" stop-color="#0066FF" stop-opacity="0.03551"/>
<stop offset="0.933333" stop-color="#0066FF" stop-opacity="0.01"/>
<stop offset="1" stop-color="#0066FF" stop-opacity="0"/>
</linearGradient>
</defs>
</svg>
