<svg width="1890" height="342" viewBox="0 0 1890 342" fill="none" xmlns="http://www.w3.org/2000/svg">
<g clip-path="url(#clip0)">
<rect width="1890" height="342" fill="white"/>
<rect width="450" height="300" rx="20" fill="#F2F7FA"/>
<path fill-rule="evenodd" clip-rule="evenodd" d="M198.15 124.468C188.858 105.605 169.441 92.6264 146.993 92.6264C115.516 92.6264 90 118.143 90 149.619C90 181.095 115.516 206.612 146.993 206.612C169.441 206.612 188.858 193.633 198.15 174.77L180.048 168.366C173.515 179.861 161.159 187.614 146.993 187.614C126.009 187.614 108.998 170.603 108.998 149.619C108.998 128.635 126.009 111.624 146.993 111.624C161.159 111.624 173.515 119.377 180.048 130.872L198.15 124.468Z" fill="#0066FF"/>
<path d="M146.993 149.61L360.525 74.0001V225.221L146.993 149.61Z" fill="url(#paint0_linear)"/>
<rect x="480" width="450" height="300" rx="20" fill="#F2F7FA"/>
<rect x="960" width="450" height="300" rx="20" fill="#F2F7FA"/>
<rect x="1440" width="450" height="300" rx="20" fill="#F2F7FA"/>
<path fill-rule="evenodd" clip-rule="evenodd" d="M817 105V134.377H719.689V194.967H690.312V134.377H593V105H817Z" fill="#36D681"/>
<path fill-rule="evenodd" clip-rule="evenodd" d="M1248.28 181.864L1264.14 166.006L1280 150.148L1264.14 134.29L1248.28 118.432L1232.43 102.574L1216.57 86.7161L1200.71 70.858L1184.85 55L1168.99 70.858L1153.14 86.7161L1137.28 102.574L1121.42 118.432L1105.56 134.29L1089.7 150.148L1105.56 166.006L1121.42 181.864L1137.28 197.722L1153.14 213.58L1168.99 229.438L1184.85 245.297L1200.71 229.438L1216.57 213.58L1232.43 197.722L1248.28 181.864ZM1153.14 181.864L1168.99 166.006L1184.85 150.148L1200.71 166.006L1216.57 181.864L1232.43 166.006L1248.28 150.148L1232.43 134.29L1216.57 118.432L1200.71 134.29L1184.85 150.148L1168.99 134.29L1153.14 118.432L1137.28 134.29L1121.42 150.148L1137.28 166.006L1153.14 181.864ZM1184.85 181.864L1168.99 197.722L1184.85 213.58L1200.71 197.722L1184.85 181.864ZM1184.85 118.432L1168.99 102.574L1184.85 86.7161L1200.71 102.574L1184.85 118.432Z" fill="#1E1E1E"/>
<path fill-rule="evenodd" clip-rule="evenodd" d="M1685.74 121.248L1664.9 67L1654.23 94.7829C1667.72 106.273 1676.49 122.169 1678.85 139.533C1681.35 157.845 1676.53 176.391 1665.38 191.339C1654.24 206.287 1637.63 216.495 1618.98 219.855C1614.65 220.635 1610.29 221.032 1605.94 221.056L1601 233.999H1605.18C1619.36 234.074 1633.42 230.591 1646.05 223.742C1663.77 214.128 1677.49 198.512 1684.75 179.693C1691.98 160.941 1692.33 140.23 1685.74 121.248ZM1701.41 162.051C1700.4 169.498 1698.53 176.852 1695.79 183.96C1692.93 191.365 1689.2 198.334 1684.7 204.737L1729 233.895L1701.41 162.051ZM1610.27 209.229C1612.45 209.066 1614.63 208.79 1616.8 208.399C1632.44 205.582 1646.36 197.025 1655.7 184.494C1665.04 171.963 1669.09 156.416 1667 141.065C1665.22 127.993 1659.1 115.914 1649.69 106.61L1645.23 118.203C1652.13 126.406 1656.11 136.716 1656.47 147.502C1656.88 159.577 1652.72 171.362 1644.83 180.508C1637.2 189.352 1626.62 195.1 1615.09 196.698L1610.27 209.229ZM1620.49 182.624C1626.23 180.569 1631.38 177.058 1635.42 172.375C1641.27 165.599 1644.34 156.868 1644.04 147.921C1643.86 142.406 1642.4 137.059 1639.83 132.277L1620.49 182.624Z" fill="#FF006B"/>
<path d="M1459.75 182.506C1458.39 183.999 1455.21 188.48 1452.66 192.525C1450.11 196.57 1446.62 202.047 1444.94 204.661C1443.26 207.275 1439.47 213.622 1436.48 218.788C1433.49 223.891 1429.88 229.928 1428.45 232.106C1425.59 236.524 1425.46 237.209 1426.9 238.454C1427.77 239.2 1428.14 239.014 1429.63 237.271C1430.5 236.151 1434.05 230.426 1437.41 224.513C1440.77 218.663 1445.25 211.258 1447.31 208.084C1449.42 204.91 1453.22 199.06 1455.77 195.015L1460.44 187.671L1460.69 190.783C1460.81 192.463 1460.56 201.176 1460.13 210.075C1459.13 230.239 1459.38 238.516 1460.94 240.072C1461.75 240.943 1462.24 241.005 1463.12 240.507C1464.05 239.885 1464.24 237.831 1464.73 221.837C1465.04 211.942 1465.36 198.5 1465.36 192.027L1465.42 180.203L1463.8 180.016C1462.62 179.892 1461.62 180.452 1459.75 182.506Z" fill="#FBC400"/>
<path d="M1492.89 247.914C1491.65 248.723 1490.65 251.275 1485.43 266.709C1482.63 275.11 1479.45 284.321 1478.46 287.246C1475.84 294.527 1475.41 297.078 1476.71 297.576C1478.08 298.074 1479.76 296.518 1480.76 293.78C1481.19 292.598 1482.38 289.735 1483.37 287.494C1484.87 284.258 1485.43 283.574 1486.05 284.072C1486.48 284.445 1488.54 284.943 1490.53 285.13C1492.58 285.316 1494.26 285.565 1494.33 285.627C1494.39 285.69 1494.7 287.494 1495.07 289.673C1495.94 295.025 1497.56 296.705 1499.49 294.34C1500.18 293.593 1500.11 291.166 1499.24 281.147C1498.62 274.425 1497.94 266.771 1497.62 264.219C1497.31 261.668 1497.06 257.249 1497.06 254.449C1497 249.905 1496.88 249.221 1495.63 248.412C1494.08 247.292 1493.83 247.229 1492.89 247.914ZM1493.77 275.234L1494.26 280.4H1491.4C1489.84 280.4 1488.04 280.587 1487.29 280.773C1486.11 281.084 1486.24 280.4 1489.16 271.687L1492.33 262.228L1492.77 266.211C1493.02 268.327 1493.45 272.434 1493.77 275.234Z" fill="#FBC400"/>
<path d="M1569.5 249.968C1568.51 250.279 1566.7 251.337 1565.52 252.395L1563.41 254.2L1563.34 273.99C1563.34 284.881 1563.47 294.776 1563.78 296.021C1564.15 297.763 1564.65 298.385 1566.27 298.946C1569.19 300.003 1572.18 299.879 1575.23 298.448C1578.84 296.83 1585 290.233 1587.43 285.379C1589.29 281.645 1589.42 280.898 1589.67 273.554C1589.98 261.045 1588.17 255.133 1582.76 251.648C1580.08 249.968 1578.84 249.594 1575.48 249.47C1573.24 249.408 1570.56 249.594 1569.5 249.968ZM1579.27 255.631C1580.64 256.44 1582.14 257.747 1582.57 258.618C1585.25 263.721 1585.44 277.662 1582.95 283.2C1580.27 289.299 1572.12 295.772 1568.82 294.465C1567.82 294.091 1567.76 292.722 1568.13 274.737C1568.38 264.157 1568.69 255.195 1568.88 254.884C1569.13 254.511 1570.94 254.262 1573.05 254.262C1575.79 254.262 1577.47 254.635 1579.27 255.631Z" fill="#FBC400"/>
<path d="M1508.36 194.268C1502.76 195.637 1501.14 196.695 1502.45 198.189C1503.5 199.495 1505.87 199.433 1512.09 197.877C1517.38 196.57 1518.69 195.513 1517.32 193.832C1516.39 192.712 1514.46 192.836 1508.36 194.268Z" fill="#FBC400"/>
<path d="M1548.1 259.178C1547.47 259.614 1547.41 261.481 1547.72 268.015L1548.22 276.292L1546.48 275.172C1544.36 273.803 1540.5 274.114 1538.14 275.919C1533.78 279.155 1532.85 286.001 1536.02 292.1C1539.07 298.136 1543.43 299.817 1548.66 297.078C1552.76 294.838 1553.14 293.033 1552.83 276.977C1552.64 268.762 1552.27 263.161 1551.77 261.854C1550.96 259.614 1549.34 258.431 1548.1 259.178ZM1548.03 286.001C1548.03 292.473 1547.6 293.469 1544.98 293.469C1542.81 293.469 1542.18 292.971 1540.63 289.922C1539.07 286.81 1538.95 283.076 1540.32 281.147C1541.19 279.902 1541.81 279.715 1544.67 279.84L1548.03 279.964V286.001Z" fill="#FBC400"/>
<path d="M1565.68 204.785C1564.68 205.968 1563 210.137 1561.26 215.863C1559.64 220.904 1557.65 226.816 1556.78 228.994C1555.35 232.479 1555.28 233.039 1556.15 233.848C1556.78 234.471 1557.65 234.657 1558.64 234.408C1560.63 233.911 1562.56 230.052 1565.36 220.779C1567.85 212.751 1568.1 213.062 1569.04 225.634C1569.78 234.408 1570.59 236.773 1572.96 236.4C1574.26 236.213 1574.33 235.964 1574.33 228.434C1574.26 220.219 1572.21 207.088 1570.47 204.287C1569.29 202.42 1567.61 202.545 1565.68 204.785Z" fill="#FBC400"/>
<path d="M1536.43 204.163C1529.27 204.847 1528.58 206.154 1529.7 216.61C1530.14 220.219 1530.45 225.073 1530.45 227.376C1530.45 232.168 1531.57 234.969 1533.69 235.466C1535.62 235.964 1543.96 233.786 1545.95 232.292C1548.37 230.55 1549.43 226.878 1548.56 223.642C1548.19 222.148 1547.19 220.281 1546.45 219.348C1544.52 217.17 1540.35 216.672 1537.17 218.352C1534.43 219.784 1534.43 219.784 1533.81 213.622L1533.44 209.204L1535.49 208.893C1536.67 208.706 1539.85 208.395 1542.59 208.208C1548.06 207.772 1549.93 206.777 1548.75 204.91C1547.94 203.665 1544.08 203.416 1536.43 204.163ZM1543.52 223.393C1543.83 224.078 1544.14 225.322 1544.14 226.256C1544.14 228.061 1541.9 229.305 1537.36 230.052L1534.81 230.488V227.749C1534.81 225.385 1535.12 224.824 1536.86 223.58C1539.35 221.837 1542.59 221.775 1543.52 223.393Z" fill="#FBC400"/>
<path fill-rule="evenodd" clip-rule="evenodd" d="M1470.65 222.522C1471.83 214.058 1476 206.777 1480.42 205.408C1480.62 205.357 1480.82 205.304 1481.03 205.252C1481.83 205.046 1482.61 204.848 1482.91 204.848C1484.4 204.723 1487.57 206.217 1488.13 207.275C1489.19 209.204 1488.82 213.125 1487.39 215.987C1486.27 218.165 1485.21 219.161 1482.59 220.468C1480.73 221.464 1478.42 222.211 1477.43 222.211C1475.69 222.211 1475.69 222.273 1475.69 226.131C1475.69 232.044 1476.18 232.479 1483.22 232.292C1490.12 232.168 1491.24 232.417 1491.24 234.222C1491.18 236.275 1488.82 237.582 1484.27 238.08C1478.61 238.703 1473.63 237.271 1471.95 234.471C1470.27 231.732 1469.9 228.247 1470.65 222.522ZM1480.56 215.987L1477.43 216.65C1477.62 215.194 1477.82 214.374 1478.48 212.902L1479.73 211.652L1481.39 210.819H1482.64L1483.47 211.652V213.318L1482.59 214.984L1480.56 215.987Z" fill="#FBC400"/>
<path d="M1509.32 268.513C1508.7 269.385 1508.58 271.563 1508.95 277.911C1509.51 288.553 1510.26 291.726 1512.75 293.842C1514.43 295.274 1515.11 295.46 1518.1 295.211C1521.02 294.963 1521.77 294.589 1523.26 292.847C1525.75 289.859 1526.87 285.939 1527.31 278.72C1527.74 271.749 1527.31 270.443 1524.57 270.443C1522.7 270.443 1522.64 270.567 1521.96 278.969C1521.33 286.997 1520.09 289.922 1517.41 290.233C1515.92 290.42 1515.67 290.108 1515.11 288.055C1514.8 286.748 1514.3 282.205 1514.12 277.911C1513.68 270.069 1512.87 267.331 1511 267.331C1510.57 267.331 1509.76 267.829 1509.32 268.513Z" fill="#FBC400"/>
<path d="M1497.59 206.839C1497.16 207.337 1496.85 212.316 1496.72 219.721C1496.6 230.239 1496.72 232.106 1497.65 233.848C1498.9 236.213 1500.39 237.147 1503.01 237.147C1505.62 237.147 1508.92 233.724 1512.22 227.501L1514.89 222.522V227.501C1514.89 230.986 1515.2 232.915 1515.89 233.911C1516.95 235.404 1518.88 235.715 1519.69 234.471C1520.37 233.351 1519.87 208.955 1519.13 208.022C1518.75 207.648 1517.82 207.275 1517.07 207.275C1515.14 207.275 1514.77 207.897 1511.78 215.365C1507.92 225.26 1503.69 232.604 1502.38 231.795C1502.07 231.608 1501.82 226.318 1501.82 219.97C1501.82 213.187 1501.58 207.959 1501.2 207.212C1500.46 205.843 1498.59 205.657 1497.59 206.839Z" fill="#FBC400"/>
<path d="M299.221 8.88963C297.268 12.0627 295.625 67.7242 297.398 72.0029C297.953 73.3953 300.152 73.8616 300.801 72.7519C301.002 72.4345 301.084 67.3286 301.041 61.3927C300.925 48.2715 301.236 41.9102 302.075 42.1498C302.39 42.2461 304.158 44.2335 305.988 46.6359C307.869 48.985 310.288 52.0499 311.364 53.4294C312.492 54.8076 314.387 57.7292 315.637 59.8336C319.177 66.0996 321.934 70.1977 322.936 70.6937C324.201 71.2874 325.488 70.6826 325.458 69.4855C325.42 67.9241 317.186 52.9728 314.99 50.5274C313.865 49.2532 311.606 46.3927 309.938 44.1946L306.973 40.1537L311.347 35.9311C314.194 33.1005 316.771 29.9119 318.876 26.5788C320.628 23.7232 324.054 19.0554 326.429 16.1322C330.981 10.6554 331.824 8.96799 330.699 7.69385C329.198 5.96031 327.919 6.87733 323.069 12.9344C320.493 16.175 317.32 20.5241 316.069 22.5861C313.567 26.7102 307.145 34.4728 304.741 36.2509C303.463 37.22 303.1 37.281 302.514 36.7227C301.927 36.1643 301.827 34.2398 301.997 26.3717C302.23 16.8354 302.488 12.5585 302.956 10.4116C303.239 9.20682 301.95 7.62426 300.752 7.65389C300.336 7.6642 299.672 8.20142 299.221 8.88963Z" fill="black"/>
<path fill-rule="evenodd" clip-rule="evenodd" d="M497.113 21.1256C497.116 19.1465 497.351 18.1511 498.113 17.3511C499.382 16.0177 500.267 15.9958 501.336 17.1151C501.979 17.8283 502.29 19.9037 502.645 25.832C502.959 30.0947 503.695 38.7738 504.267 45.0612C505.792 60.3869 505.801 60.7512 505.091 61.4979C504.278 62.3513 501.972 61.7313 501.052 60.348C499.972 58.8123 499.171 53.7805 498.231 43.1795C497.798 38.2948 497.333 34.2441 497.225 34.0905C497.066 33.9903 497.005 35.7104 497.062 38.0005C497.266 48.3593 494.336 58.3269 490.528 60.1918C487.285 61.7303 483.447 60.2629 481.957 56.8626C480.139 52.8454 482.636 50.6483 485.066 54.1296C485.767 55.1017 486.882 55.9595 487.509 56.0481C488.502 56.1798 488.907 55.701 489.942 53.3319C491.369 49.9635 492.531 44.3101 492.447 40.927L492.389 38.5849L489.058 38.6673C486.455 38.7318 485.461 38.548 484.556 37.7372C482.801 36.2703 481.854 33.7939 481.772 30.4629C481.633 24.8418 484.27 21.9642 488.92 22.5782C491.429 22.9328 494.507 25.2522 495.076 27.2172C495.419 28.4586 495.47 28.4052 496.301 26.1973C496.79 24.9353 497.15 22.6349 497.113 21.1256ZM488.974 35.2843L486.58 35.3435L485.775 34.3739L485.214 32.7734L485.182 31.4722L485.404 29.9043L485.898 28.8505L486.653 27.7902L488.206 27.3872L489.767 27.3486L491.351 28.1947L492.151 28.9561L492.45 30.5111L492.501 32.593L492.013 33.9071L490.991 34.7136L488.974 35.2843Z" fill="black"/>
<path d="M445.657 25.2636C445.101 25.9543 445.057 28.4031 445.373 36.9364C445.736 47.3953 445.746 47.8117 444.718 48.3579C444.101 48.6857 443.013 48.9209 442.23 48.8362L440.821 48.7148L440.029 41.9641C439.624 38.2244 439.198 33.6519 439.15 31.7262C439.025 28.7608 438.853 28.1401 437.905 27.6948C435.531 26.4516 434.432 28.3537 434.458 33.613C434.451 35.436 434.898 42.9764 435.447 50.4102C436.175 60.9122 436.619 64.1301 437.209 64.7926C438.174 65.9144 439.424 65.9356 440.753 64.9132C441.621 64.2146 441.71 63.5875 441.439 58.9591L441.155 53.8103L443.386 53.4426C444.579 53.2568 445.671 53.1777 445.829 53.278C445.937 53.4315 446.201 55.6644 446.371 58.3163C446.765 63.7228 447.697 65.6266 449.994 65.8302C451.926 66.0428 453.277 63.822 452.446 61.8114C452.115 61.0385 451.555 53.1363 451.111 43.6167C450.725 34.3561 450.159 26.1937 449.882 25.5235C449.272 24.0283 446.716 23.8833 445.657 25.2636Z" fill="black"/>
<path d="M395.753 26.9154C394.774 27.3042 392.453 28.247 390.65 29.0207C388.69 29.7983 387.152 30.7738 386.958 31.3515C386.422 32.8751 387.273 67.2264 387.935 68.7203C388.656 70.5252 390.425 70.4294 391.108 68.5897C391.349 67.8025 391.565 59.6728 391.547 50.5593L391.501 33.9472L394.334 32.6792C396.909 31.5218 397.22 31.4621 397.552 32.235C397.771 32.6983 398.045 37.4308 398.228 42.7383C398.765 60.2237 400.59 68.7195 403.765 68.641C405.899 68.5881 406.288 67.4848 405.37 64.0703C404.285 60.1912 403.673 54.4256 402.899 39.9667C402.376 29.3554 402.187 28.0581 401.278 27.0911C400.102 25.8703 398.33 25.81 395.753 26.9154Z" fill="black"/>
<path d="M467.579 25.1376C467.225 25.5629 466.042 30.3835 464.927 35.8274C462.882 45.7731 461.153 51.6488 459.697 53.8721C458.942 54.9324 458.868 54.0489 458.73 42.1262L458.565 29.1625L457.345 28.2552C456.07 27.2452 454.875 27.3789 454.436 28.5876C454 29.9004 453.48 48.8702 453.75 53.4465C454.139 58.6448 454.898 59.8759 458.086 60.3178C461.483 60.8066 464.204 57.0937 466.903 48.3296L467.769 45.4438L468.269 48.8166C469.358 57.0182 472.344 61.9439 474.95 59.9004C475.972 59.1459 475.828 57.5351 474.274 51.5323C473.755 49.5141 472.967 42.9195 472.45 36.7869C471.489 25.3012 471.203 24.2667 469.173 24.3169C468.653 24.3298 467.933 24.7122 467.579 25.1376Z" fill="black"/>
<path d="M419.741 28.1965C419.072 28.5255 418.047 29.1759 417.538 29.6572C415.961 31.1544 413.745 36.3131 412.519 41.4993C410.91 48.049 409.402 60.7416 409.94 63.5406C410.732 68.2081 413.109 67.4202 413.607 62.3041C413.722 60.6347 413.975 58.2328 414.152 56.9785L414.408 54.6807L419.504 54.3983L424.548 54.0651L424.695 59.9985C424.82 65.0471 424.999 65.9801 425.798 66.6895C427.127 67.8023 428.167 67.7245 429.281 66.447C430.091 65.4895 430.122 64.6555 429.632 57.4807C428.656 43.2872 426.951 33.3301 424.949 30.307C424.19 29.0759 421.753 27.4176 421.134 27.6412C421.082 27.6425 420.463 27.9182 419.741 28.1965ZM421.966 36.0054C422.504 38.8044 423.873 47.8323 423.901 48.9774C423.908 49.2376 423.131 49.4131 422.246 49.435C421.31 49.5102 419.239 49.9781 417.692 50.5893C416.143 51.1484 414.852 51.597 414.799 51.5462C414.584 51.2911 416.965 40.1914 417.649 38.3517C418.572 35.6728 420.22 32.8197 420.845 32.8042C421.105 32.7978 421.61 34.2435 421.966 36.0054Z" fill="black"/>
<path d="M335.391 31.0134C334.673 31.4478 333.502 32.5705 332.797 33.5253C329.122 38.668 327.709 44.6921 328.424 52.5384C329.351 62.6188 331.474 68.4513 334.848 70.0864C336.903 71.0771 340.91 70.9258 343.43 69.6656C348.732 67.1387 353.736 58.8905 354.042 52.3209C354.289 47.5756 353.172 40.3121 351.74 37.1707C349.98 33.4125 347.908 31.7452 345.047 31.8681C343.798 31.899 342.754 31.8207 342.749 31.6125C342.733 30.9879 340.108 30.1155 338.39 30.158C337.455 30.2332 336.109 30.579 335.391 31.0134ZM342.191 36.4176C342.51 36.6701 343.45 36.8031 344.28 36.6783C345.578 36.49 345.898 36.7946 347.045 38.9535C348.902 42.4489 349.622 52.5866 348.308 56.3167C347.042 59.8895 345.284 62.4849 343.084 64.1017C337.151 68.467 334.89 65.5023 334.044 52.3472C333.553 45.1203 334.243 41.4577 336.752 37.5938C338.105 35.4771 338.362 35.3145 339.88 35.6415C340.821 35.7745 341.82 36.1664 342.191 36.4176Z" fill="black"/>
<path d="M374.766 31.1325C374.107 31.8779 373.412 33.2492 373.278 34.1379C372.68 37.3295 370.033 44.0091 369.455 43.8151C369.14 43.7187 367.989 41.4036 366.88 38.6709C364.767 33.2548 363.633 31.6164 362.019 31.6563C359.781 31.7117 359.61 33.2262 359.634 48.9016C359.654 60.2543 359.853 64.0512 360.396 64.9752C361.325 66.7229 362.16 66.8064 363.163 65.2192C363.813 64.1615 364.068 61.8116 364.311 54.827L364.66 45.7565L366.369 47.4849C369.201 50.3834 372.047 49.6359 374.03 45.5767L375.166 43.1008L375.723 55.0653C376.383 69.1104 376.848 71.0779 379.755 70.6935L381.469 70.4948L381.177 65.0337C380.999 62.0175 380.519 53.1759 380.118 45.3739C379.478 32.1616 379.347 31.0712 378.394 30.4178C376.963 29.4116 376.134 29.5883 374.766 31.1325Z" fill="black"/>
<path d="M308.94 79.6332C302.059 81.4701 297.983 85.1124 294.724 92.3279C291.665 99.1739 290.419 105.663 290.619 113.73C290.973 128.043 294.605 135.921 302.777 139.937C305.993 141.524 311.978 141.376 315.011 139.739C318.298 137.887 321.984 133.212 323.697 128.795C326.882 120.696 327.661 116.407 327.468 108.599C327.365 104.436 326.944 100.071 326.422 97.897C325.203 92.8234 322.31 87.4787 319.169 84.6921C317.091 82.8166 316.714 82.3052 317.38 81.872C318.404 81.1696 317.692 79.7291 316.063 79.1444C314.276 78.5116 312.56 78.6062 308.94 79.6332ZM315.241 88.0183C320.944 93.2934 323.903 107.646 321.509 118.225C317.933 133.677 311.301 139.258 302.989 133.787C298.596 130.927 296.348 124.264 296.081 113.491C295.95 106.099 297.011 100.552 299.633 94.9666C302.897 87.9593 304.836 86.3489 309.991 86.3254C313.116 86.3522 313.589 86.4968 315.241 88.0183Z" fill="black"/>
<path d="M449.394 79.4898C445.147 80.4282 438.975 81.4663 435.808 81.8572C429.055 82.5451 427.202 83.4243 425.511 86.643C424.016 89.3881 424.088 94.3859 425.616 97.2125C426.98 99.7306 429.458 100.919 432.046 100.282C434.582 99.6466 435.041 99.2707 435.004 97.7613C434.973 96.5121 434.814 96.4119 432.105 96.3748C429.552 96.3338 428.261 92.564 429.799 89.4533C430.493 88.03 430.699 87.9728 437.45 87.1807C445.239 86.2588 461.867 82.6183 463.66 81.4282C465.042 80.4566 465.066 79.3102 463.748 78.6658C461.532 77.5228 457.164 77.7872 449.394 79.4898Z" fill="black"/>
<path d="M439.623 88.6893C438.765 89.8042 437.728 100.506 437.368 111.191C436.988 123.179 437.403 125.252 440.272 125.441C441.264 125.521 441.95 125.868 441.96 126.285C441.987 127.378 444.152 128.574 445.973 128.529C448.472 128.467 454.634 124.93 456.706 122.378C459.942 118.445 461.208 114.924 461.289 109.766C461.279 107.266 461.156 104.405 460.976 103.42C460.447 100.985 457.62 98.2952 454.948 97.6322C452.433 97.0175 446.827 97.7812 444.41 99.0388L442.868 99.8582L442.755 95.278C442.692 92.7277 442.418 90.0784 442.087 89.3575C441.531 87.913 440.43 87.6278 439.623 88.6893ZM455.408 103.61C456.32 104.681 456.554 105.717 456.621 108.423C456.668 112.432 456.047 114.687 453.889 117.969C452.233 120.51 447.877 123.378 444.716 124.029C442.126 124.562 441.725 123.114 442.127 114.094C442.418 106.9 442.514 106.585 443.882 105.041C445.808 102.91 446.736 102.523 450.848 102.421C453.969 102.292 454.388 102.385 455.408 103.61Z" fill="black"/>
<path d="M395.34 94.3684C395.041 94.9486 394.545 98.0336 394.208 101.271C393.282 110.147 392.261 115.172 390.687 118.909C389.162 122.54 387.004 125.822 386.171 125.843C385.547 125.858 385.376 116.853 385.877 107.622C386.376 98.34 386.293 97.0921 385.181 96.3384C382.425 94.4276 381.028 98.9931 380.554 111.4C380.113 123.024 380.632 127.178 382.66 129.159C386.072 132.355 390.389 130.009 394.069 122.991C395.509 120.143 395.668 120.244 396.36 125.07C397.293 131.192 400.06 133.571 401.947 129.879C402.494 128.824 402.466 127.679 401.849 123.788C401.419 121.143 400.814 113.554 400.496 107C400.176 100.394 399.669 94.6258 399.395 94.1118C398.74 92.8781 396.035 92.9971 395.34 94.3684Z" fill="black"/>
<path d="M371.652 94.6943C371.394 94.8049 370.515 95.0349 369.738 95.2104C368.029 95.6173 365.49 98.232 364.204 100.972C362.717 104.029 361.878 110.091 361.899 117.278C361.948 123.474 362.004 123.629 363.815 127.334C365.676 130.985 368.994 134.601 370.503 134.563C371.961 134.527 374.12 133.38 374.872 132.216C375.325 131.58 376.058 129.635 376.484 127.906C377.198 125.18 377.185 124.659 376.545 124.05C375.852 123.39 375.543 123.554 373.925 125.521C372.966 126.743 371.793 127.761 371.377 127.772C371.013 127.781 370.157 126.864 369.556 125.733C367.7 122.29 367.252 118.916 367.653 111.979C367.944 106.921 368.266 105.194 369.405 102.822C370.492 100.452 371 99.9184 372.041 99.8926C373.03 99.8681 373.562 100.324 374.38 101.814C375.146 103.305 375.625 103.71 376.507 103.584C377.492 103.403 377.588 103.088 377.376 100.802C377.286 99.2941 376.778 97.6922 376.238 96.9244C375.27 95.6984 372.634 94.4096 371.652 94.6943Z" fill="black"/>
<path d="M472.069 92.9379C468.429 95.2674 465.945 104.287 465.8 115.279C465.702 123.927 466.341 126.619 468.586 126.824C470.464 126.985 471.091 124.939 470.945 119.057C470.819 113.957 470.719 114.116 474.972 113.437L477.566 113.009L477.61 114.778C477.634 115.767 477.429 118.012 477.213 119.788C476.9 121.879 476.939 123.44 477.325 124.316C477.992 126.018 480.192 126.536 481.465 125.359C483.399 123.541 483.701 102.076 481.895 96.4444C481.558 95.4632 480.637 94.0278 479.836 93.2144C478.661 92.0456 477.978 91.8021 476.053 91.8498C474.595 91.8859 472.992 92.3422 472.069 92.9379ZM476.886 98.1829C477.059 98.8556 477.282 101.558 477.347 104.161L477.467 109.001L475.541 109.049C474.448 109.076 472.994 109.268 472.323 109.493C471.134 109.835 471.08 109.784 471.396 107.797C471.888 104.556 473.627 99.0447 474.486 97.9819C475.549 96.7577 476.436 96.8399 476.886 98.1829Z" fill="black"/>
<path d="M335.826 96.9872C335.327 97.8849 335.142 100.91 335.053 107.839C335.028 113.152 334.908 120.914 334.855 125.082L334.68 132.742L336.107 133.592C337.377 134.394 337.585 134.389 338.66 133.633C339.787 132.876 339.877 132.301 340.283 123.489C340.761 113.322 340.803 112.904 341.635 112.884C342.78 112.856 343.809 116.528 344.433 122.814C345.182 129.93 345.64 131.585 347.439 132.739C351.516 135.45 356.773 131.102 357.136 124.739C357.247 122.913 357.084 122.657 356.092 122.525C354.891 122.399 353.82 123.311 351.909 126.066C351.257 127.072 350.542 127.662 350.328 127.407C350.114 127.204 349.576 124.405 349.185 121.238C348.283 114.23 347.215 111.079 345.091 109.413C344.24 108.705 343.648 107.939 343.799 107.727C343.949 107.462 345.839 105.957 348.038 104.341C351.21 102.023 352.445 101.419 354.11 101.378C355.88 101.334 356.239 101.117 356.624 99.8576C357.253 97.9151 355.705 96.391 353.048 96.3526C351.433 96.3405 350.148 96.9973 345.798 100.126L340.476 103.903L340.125 102.349C339.948 101.52 339.756 100.067 339.731 99.0779C339.658 96.1112 337.177 94.7664 335.826 96.9872Z" fill="black"/>
<path d="M500.817 92.9034C500.051 93.5473 498.194 94.2703 496.742 94.5146C495.291 94.8109 493.846 95.3154 493.49 95.6887C493.033 96.1687 492.788 98.8829 492.776 104.716C492.774 113.049 492.242 116.812 490.421 121.075L489.584 123.023L489.334 121.363C489.08 119.494 487.7 118.434 486.573 119.191C485.547 119.842 485.766 124.471 486.9 126.11C487.388 126.879 488.395 127.583 489.129 127.773C493.528 128.758 497.098 119.4 497.49 105.797L497.694 99.2823L499.658 98.7129L501.675 98.1422L501.958 109.541C502.277 122.448 502.628 124.002 505.439 123.932C506.375 123.909 507.147 123.526 507.393 122.947C507.937 121.787 506.374 94.3803 505.709 92.7823C505.047 91.2884 502.809 91.3438 500.817 92.9034Z" fill="black"/>
<path d="M514.087 92.5228C510.822 93.1765 509.901 93.8243 509.941 95.4378C509.977 96.8951 510.871 97.2375 514.358 97.1512L517.064 97.0842L517.11 107.343C517.144 117.133 517.911 124.978 519.048 126.72C520.022 128.207 520.975 126.725 521.506 122.91C522.045 119.459 521.537 101.036 520.883 97.7709C520.652 96.8392 521.012 96.674 524.857 96.3185C527.196 96.1043 529.322 95.7392 529.681 95.522C530.45 95.0343 530.347 92.9537 529.547 92.1923C528.8 91.4817 518.441 91.686 514.087 92.5228Z" fill="black"/>
<path d="M411.835 108.542C410.516 109.929 410.579 110.396 412.009 111.35C412.804 111.904 414.372 112.125 416.714 112.067C421.138 111.958 422.84 111.291 422.8 109.677C422.75 107.647 421.803 107.254 417.171 107.369C413.527 107.459 412.698 107.636 411.835 108.542Z" fill="black"/>
<path d="M740.599 140.571C739.804 141.032 739.605 142.874 739.605 149.911C739.605 154.713 739.539 163.066 739.407 168.525L739.274 178.391L735.564 171.813C729.668 161.421 723.374 150.964 721.585 148.596C719.597 145.899 716.417 145.636 715.357 148.07C714.496 149.845 714.695 150.306 721.717 161.882C724.368 166.289 729.138 174.576 732.318 180.364C737.485 189.769 738.015 191.085 737.419 192.663C737.088 193.65 732.45 200.556 727.283 207.988C715.622 224.497 715.887 224.037 717.014 225.747C718.007 227.194 719.332 227.654 720.392 226.865C720.79 226.602 725.096 220.88 729.933 214.039C734.835 207.265 738.943 201.74 739.075 201.74C739.274 201.74 739.274 207.331 739.142 214.105C738.943 227.391 739.274 228.97 742.189 228.575C744.508 228.246 745.237 225.484 745.7 214.894L746.098 204.963L750.537 213.447C755.439 222.919 758.288 226.931 761.269 228.444C765.244 230.483 766.437 226.602 763.191 221.932C762.197 220.419 759.679 215.881 757.626 211.935C755.638 207.923 752.193 201.608 750.007 197.794L745.965 190.887L747.688 187.928C750.205 183.652 762.197 165.17 764.979 161.29C766.304 159.448 768.623 156.488 770.213 154.647C773.261 151.095 773.658 149.78 772.135 148.53C771.406 147.872 770.743 147.938 769.087 148.793C764.913 150.964 762.329 154.186 749.212 174.115L745.104 180.364L745.568 162.934C746.032 145.241 745.833 143.202 743.58 141.032C742.322 139.782 741.99 139.716 740.599 140.571Z" fill="#0038FF"/>
<path d="M903.717 163.942C900.436 165.714 899.78 165.845 896.104 165.452C892.298 165.058 891.97 165.124 890.986 166.633C890.198 167.88 890.067 168.733 890.592 170.439C890.986 171.686 891.248 179.364 891.248 187.435C891.248 199.379 891.051 202.791 890.132 205.613C889.148 208.828 889.017 209.025 888.361 207.647C887.245 205.547 885.473 205.416 884.685 207.516C882.454 213.488 885.998 218.869 890.592 216.375C892.167 215.522 894.267 211.913 895.973 206.991C897.22 203.382 897.417 201.151 897.68 187.763L897.942 172.539L900.567 172.145C902.011 171.883 904.045 171.292 905.095 170.701L906.998 169.717V183.039C907.064 201.216 907.786 209.616 909.492 211.257C911.067 212.897 913.43 212.306 913.889 210.272C914.086 209.485 914.021 198.723 913.692 186.385C913.299 169.455 912.97 163.745 912.314 162.958C911.002 161.383 907.72 161.777 903.717 163.942Z" fill="#0038FF"/>
<path d="M870.789 166.532C868.679 167.122 866.568 170.465 865.034 175.708C863.243 181.476 861.069 200.484 861.005 210.185C860.941 218.509 861.516 221 863.691 221C865.289 221 866.313 217.919 866.313 213.135C866.313 211.037 866.504 208.022 866.696 206.449C867.08 203.499 867.144 203.434 869.766 203.106C871.237 202.909 872.964 202.516 873.539 202.254C874.498 201.926 874.626 202.451 874.626 207.17C874.626 211.627 874.818 212.676 875.905 213.79C877.504 215.429 878.591 215.429 880.062 213.79C881.085 212.61 881.149 211.299 880.829 197.928C880.446 183.311 880.126 180.1 878.08 172.955C877.056 169.547 874.243 165.811 872.836 166.007C872.58 166.073 871.684 166.27 870.789 166.532ZM873.283 178.199C873.731 180.296 874.243 185.278 874.434 189.21L874.818 196.42L871.365 197.207C869.446 197.6 867.847 197.862 867.72 197.731C867.592 197.6 867.975 193.864 868.551 189.473C869.574 180.952 871.109 174.463 872.004 174.463C872.26 174.463 872.9 176.167 873.283 178.199Z" fill="#0038FF"/>
<path d="M849.192 168.24C848.313 169.908 848.313 177.648 849.26 186.39C849.868 192.662 849.868 193.396 848.787 194.13C848.111 194.597 846.759 194.998 845.745 194.998C843.514 194.998 843.311 194.264 842.703 179.784C842.297 170.642 842.094 169.507 840.945 168.64C839.187 167.506 837.903 167.973 836.686 170.241C835.943 171.709 835.875 176.447 836.145 196.666C836.348 211.413 836.821 221.689 837.227 222.156C838.173 223.424 841.621 223.224 842.365 221.822C842.703 221.222 843.176 216.284 843.446 210.879L843.919 201.137L847.164 200.87L850.409 200.669L850.679 209.544C850.95 217.685 851.085 218.486 852.572 220.021C854.533 222.089 856.358 222.156 857.372 220.221C859.332 216.617 856.29 170.842 853.924 167.973C852.707 166.571 850.071 166.705 849.192 168.24Z" fill="#0038FF"/>
<path d="M812.548 169.831C811.176 170.358 809.543 171.214 808.89 171.807C808.237 172.399 807.061 172.86 806.147 172.86C802.358 172.926 801.444 175.493 802.293 183.592C802.685 186.949 803.142 196.759 803.338 205.45C803.534 214.141 803.795 221.91 803.991 222.7C804.122 223.556 804.971 224.675 805.885 225.267C807.388 226.255 807.649 226.255 809.217 225.202L810.915 224.082L810.654 211.77L810.458 199.393L812.744 200.38C814.181 200.973 816.402 201.236 819.014 201.039C824.109 200.71 826.983 198.669 829.466 193.599C830.968 190.373 831.164 189.385 830.903 185.369C830.38 178.325 826.33 172.662 819.668 169.897C816.859 168.712 815.748 168.712 812.548 169.831ZM819.21 176.81C820.713 177.93 822.476 179.773 823.195 180.958C825.612 184.843 824.501 192.151 821.301 193.928C819.472 194.916 815.748 194.718 812.809 193.533C809.87 192.348 809.804 192.085 809.151 183.723C808.694 177.995 809.086 177.074 812.744 175.559C815.357 174.506 816.271 174.703 819.21 176.81Z" fill="#0038FF"/>
<path d="M791.02 172.191C789.505 173.381 789.44 173.91 789.374 180.987C789.374 186.609 789.11 189.123 788.188 191.107C786.739 194.546 783.973 197.39 782.194 197.39C779.757 197.39 778.967 194.546 778.835 186.014C778.769 180.855 778.506 177.879 777.913 177.217C776.793 175.828 774.422 175.961 773.039 177.482C771.985 178.606 771.853 179.929 772.117 187.602C772.314 195.009 772.578 196.795 773.763 199.11C775.476 202.351 777.518 203.806 781.075 204.401C783.907 204.864 785.751 204.137 788.649 201.491L790.428 199.772V209.164C790.428 222.987 789.44 224.509 781.602 223.583C777.715 223.053 776.859 223.583 777.518 226.03C778.045 228.212 781.602 230.064 785.29 229.998C789.571 229.932 792.865 227.683 795.038 223.45C796.553 220.474 796.685 219.283 796.948 210.288C797.08 204.798 796.948 194.282 796.685 186.874C796.29 174.968 796.092 173.315 794.972 172.191C793.392 170.603 792.93 170.603 791.02 172.191Z" fill="#0038FF"/>
<path d="M733.871 239.449C731.713 240.177 713.924 241.502 713.139 241.038C712.093 240.376 710 242.164 710 243.754C710 246.866 712.354 247.595 721.51 247.462C725.957 247.396 730.078 247.197 730.666 246.932C731.516 246.601 731.582 250.177 731.189 276.271C730.797 302.629 730.862 306.271 731.778 308.457C732.89 311.172 734.721 311.768 736.16 309.98C736.748 309.318 737.075 300.509 737.533 277.728C737.991 254.548 738.383 246.336 738.972 245.939C739.43 245.674 742.438 245.409 745.708 245.409C750.155 245.409 751.921 245.144 752.51 244.416C753.621 243.091 752.771 241.104 750.679 240.111C748.455 239.051 736.487 238.588 733.871 239.449Z" fill="#0038FF"/>
<path d="M912.125 251.433C911.599 252.29 910.678 255.72 910.086 259.149C909.495 262.513 907.324 272.471 905.154 281.243C901.208 297.598 901.142 298.785 903.97 298.785C905.943 298.785 907.982 293.443 911.468 278.934C913.243 271.746 914.822 266.206 915.085 266.601C915.348 267.063 915.743 269.635 916.006 272.405C916.203 275.109 916.532 278.407 916.729 279.726C917.058 281.902 916.861 282.166 914.033 283.947C911.862 285.397 911.073 286.255 911.205 287.244C911.402 288.563 912.783 288.827 916.006 288.167C917.189 287.904 917.387 288.365 917.847 293.18C918.571 300.632 918.965 301.687 921.07 301.951C924.292 302.347 924.555 300.566 923.306 288.299C920.938 265.348 918.899 253.279 916.926 250.839C915.743 249.52 913.178 249.784 912.125 251.433Z" fill="#0038FF"/>
<path d="M857.516 252.936C856.454 253.729 855.724 255.182 855.458 257.031C854.064 265.948 850.148 283.385 849.019 286.027C848.289 287.81 846.63 290.584 845.435 292.301L843.178 295.472V276.846C843.178 260.796 843.045 258.088 842.116 257.23C840.855 255.975 839.793 255.909 838.266 257.031C837.27 257.758 836.872 259.409 836.407 264.825C835.611 273.345 836.075 297.519 837.005 299.831C838.863 304.124 842.979 305.115 845.966 301.945C848.754 298.906 853.334 291.773 854.927 287.876L856.454 284.243V293.622C856.454 301.218 856.653 303.2 857.516 303.992C858.777 305.313 859.839 305.313 861.499 304.124C862.694 303.2 862.76 302.077 862.959 279.488C863.092 265.221 862.893 255.116 862.494 254.059C861.631 251.814 859.507 251.351 857.516 252.936Z" fill="#0038FF"/>
<path d="M869.885 252.275C868.593 253.733 868.657 255.789 870.467 278.795C872.083 298.818 872.794 302 875.637 302C878.417 302 878.869 300.608 878.223 293.845L877.641 287.679L880.485 289.933C882.101 291.127 885.009 292.983 887.013 294.044C889.016 295.105 891.02 296.364 891.472 296.961C893.282 299.215 896.707 297.823 896.707 294.906C896.707 292.718 894.575 290.729 889.275 287.812C886.754 286.486 883.91 284.629 882.876 283.701L881.002 281.977L885.526 277.27C888.047 274.618 890.697 271.502 891.472 270.308C893.347 267.59 898 256.385 898 254.794C898 253.137 896.449 252.606 894.122 253.601C892.571 254.264 891.601 255.722 889.21 260.761C887.013 265.535 885.268 268.121 882.036 271.568C879.709 274.088 877.576 276.143 877.318 276.143C877.059 276.143 876.672 273.69 876.413 270.64C875.12 253.601 874.926 252.142 874.022 251.545C872.535 250.617 871.113 250.882 869.885 252.275Z" fill="#0038FF"/>
<path d="M783.327 256.23C782.265 257.278 782 258.391 782 261.927C782 266.184 783.062 287.205 783.659 294.867C783.792 296.832 783.924 299.713 783.924 301.219C783.991 303.773 785.251 306 786.711 306C788.436 306 789.963 303.25 789.963 300.106C789.963 298.273 790.095 296.832 790.294 296.832C790.825 296.832 797.394 300.827 799.65 302.529C802.437 304.559 804.959 304.232 805.622 301.678C806.153 299.582 803.565 296.766 798.124 293.558C796.001 292.379 793.347 290.48 792.152 289.432L790.029 287.467L794.475 282.818C796.996 280.133 800.181 275.811 801.906 272.733L804.892 267.363H808.21C810.068 267.363 812.855 267.035 814.447 266.642C816.04 266.315 817.433 266.119 817.566 266.184C817.632 266.315 818.03 274.304 818.428 283.996C819.158 302.529 819.557 304.69 822.41 304.69C825.197 304.69 825.329 303.642 825.064 283.538L824.798 264.416L829.112 263.957C832.031 263.63 833.69 263.106 834.221 262.32C835.349 260.88 835.282 260.552 833.823 258.784C832.827 257.54 832.031 257.278 828.382 257.278C824.002 257.278 803.963 260.945 801.442 262.189C800.712 262.582 799.186 264.416 798.19 266.315C795.934 270.506 791.754 276.662 790.493 277.71C789.631 278.365 789.432 277.513 789.1 271.488C788.834 267.69 788.635 262.844 788.635 260.814C788.635 258.064 788.304 256.819 787.441 256.034C785.849 254.593 784.92 254.658 783.327 256.23Z" fill="#0038FF"/>
<path d="M758.987 257.585C756.135 258.691 752.753 263.309 751.294 268.057C749.901 272.48 749.834 273.585 750.166 289.716C750.365 300.447 750.763 307.212 751.227 308.122C752.222 309.878 753.814 310.464 755.406 309.618C756.533 308.968 756.666 308.187 756.666 301.228V293.553L760.181 293.618C762.038 293.618 764.89 293.423 766.482 293.098L769.268 292.512V299.732C769.268 306.366 769.4 307.017 770.661 307.927C772.186 308.968 773.778 308.708 775.104 307.147C776.696 305.13 776.099 285.683 773.844 269.683C773.115 264.089 770.727 258.691 768.671 257.585C767.145 256.805 760.911 256.805 758.987 257.585ZM766.217 265.455C766.814 266.951 767.61 271.114 767.941 274.756C768.339 278.333 768.803 282.691 769.002 284.382L769.467 287.504H767.145C765.951 287.504 763.166 287.96 761.11 288.48C758.987 289 756.998 289.456 756.666 289.456C755.804 289.456 755.804 279.374 756.6 273.976C757.329 269.033 759.651 264.22 761.574 263.439C764.293 262.333 765.089 262.724 766.217 265.455Z" fill="#0038FF"/>
<path d="M1240.69 10.1685C1239.28 11.3443 1237.4 18.5523 1235.09 31.3947C1234.34 35.6082 1232.35 43.8135 1230.61 49.5611C1226.55 63.5423 1223.77 73.9892 1222.75 79.0153C1221.92 83.0384 1221.94 83.2998 1223.16 84.5107C1224.03 85.4231 1224.78 85.6877 1225.73 85.276C1227.13 84.694 1228.2 81.836 1231.47 70.2271L1233.12 64.1584L1237.92 63.3475C1240.58 62.8541 1244.07 62.091 1245.8 61.5461C1248.44 60.7913 1248.83 60.8227 1248.91 61.7377C1249.3 65.4572 1253.3 82.0327 1254.03 82.7604C1255.54 84.2754 1258.64 83.6117 1259.33 81.6428C1259.96 79.8103 1259.81 78.901 1252.95 43.6762C1246.54 10.7162 1246.61 10.7759 1243.74 9.57573C1242.1 8.86193 1242.23 8.85062 1240.69 10.1685ZM1247.09 52.8746L1247.82 55.972L1245.6 56.1644C1244.36 56.2719 1241.77 56.825 1239.71 57.3983C1237.73 58.0312 1235.91 58.3203 1235.7 58.1412C1235.48 57.9621 1236.54 53.4589 1238.06 48.1261C1239.5 42.7989 1241.11 36.2728 1241.6 33.531L1242.42 28.5872L1244.39 39.2149C1245.56 45.0402 1246.75 51.1923 1247.09 52.8746Z" fill="#36D681"/>
<path d="M1396.84 15.8093C1392.23 17.3277 1389.67 18.9322 1388.91 20.776C1387.65 23.7164 1390.88 24.5558 1396.52 22.7507C1399.27 21.8539 1399.11 21.473 1398.88 29.5256C1398.74 36.254 1400.04 54.3146 1400.91 56.6761C1401.6 58.6568 1403.71 59.3964 1404.99 58.1665C1406.26 56.8713 1406.6 51.7057 1406.23 38.3054C1406.04 31.6053 1405.92 24.8995 1406.06 23.3737L1406.21 20.5948L1409.85 20.0819C1413.43 19.5746 1413.49 19.5035 1413.51 17.4606C1413.55 15.679 1413.19 15.2498 1411.48 14.5417C1408.95 13.444 1401.96 14.0495 1396.84 15.8093Z" fill="#36D681"/>
<path d="M1427.49 13.9452C1426.1 14.5925 1423.02 16.3076 1421.52 17.1623C1419.71 18.3067 1419.19 21.4463 1419.36 31.0447C1419.63 50.0511 1422.69 62.6255 1426.4 59.8678C1427.27 59.2004 1427.86 59.2802 1429.41 60.3975C1433.13 63.0385 1438.25 61.4094 1442.54 56.1657C1446 51.9816 1446.75 50.0071 1446.78 45.0658C1446.79 39.0733 1445.89 36.3196 1443 34.1335L1440.6 32.2345L1441.65 29.115C1444.01 22.1942 1442.68 15.9227 1438.45 14.1822C1436.06 13.2038 1429.39 13.0565 1427.49 13.9452ZM1434.78 19.7671C1435.92 19.9976 1436.3 20.5575 1436.43 22.1261C1436.71 25.2631 1434.31 31.0019 1432.18 32.3707C1427.81 35.1196 1429.59 38.9164 1434.95 38.4523C1439.79 38.0336 1440.5 38.6305 1440.93 43.5975C1441.28 47.7149 1441.23 47.9166 1438.57 51.3083C1437.02 53.2853 1435.25 54.8872 1434.54 54.9495C1433.82 55.0117 1432.09 54.0422 1430.66 52.7829L1428.03 50.5741L1426.78 38.3698C1425.57 26.6882 1425.58 26.0944 1426.73 24.8758C1427.46 24.1544 1427.96 23.1231 1427.92 22.6003C1427.72 20.3129 1430.7 19.0666 1434.78 19.7671Z" fill="#36D681"/>
<path d="M1341.85 24.785C1339.96 25.8044 1339.39 26.8413 1339.57 28.9327C1339.79 31.4161 1341.03 32.0985 1344.76 31.776L1348.02 31.493L1349.61 49.8577L1351.2 68.2225L1352.81 69.2687C1353.72 69.914 1354.93 70.1389 1355.5 69.8919C1358.03 68.7506 1358.08 67.759 1356.7 51.8778C1355.97 43.3816 1355.47 35.326 1355.54 33.9366L1355.79 31.4788L1360.24 31.094C1363.9 30.7772 1364.99 30.4195 1365.94 29.2833C1366.6 28.5022 1367.12 27.667 1367.09 27.3402C1366.97 25.9678 1364.57 24.1342 1362.29 23.673C1358.81 22.9216 1343.8 23.76 1341.85 24.785Z" fill="#36D681"/>
<path d="M1461.19 15.2419C1460.18 15.7246 1458.44 16.9941 1457.41 18.0052C1456.38 19.0164 1454.49 20.8257 1453.27 21.9192C1447.78 26.938 1445.83 39.3543 1448.8 50.0931C1451.48 59.7379 1457.27 63.5163 1465.13 60.7942C1471.27 58.6825 1476.72 49.3873 1477.55 39.9001C1478.25 30.555 1474.55 19.813 1469.07 15.8103C1466.47 13.8629 1464.48 13.7713 1461.19 15.2419ZM1468.13 23.9904C1470.36 27.6169 1471.86 36.6389 1471.06 41.8441C1470.4 46.3788 1466.83 53.0094 1464.37 54.2757C1461.73 55.6898 1459.07 55.3933 1457.53 53.6169C1455.85 51.6557 1453.82 43.4688 1453.98 39.2408C1454.32 33.2199 1456.03 28.6601 1459.9 23.9788C1463.17 19.9424 1463.61 19.6413 1464.91 20.2527C1465.68 20.7133 1467.14 22.3647 1468.13 23.9904Z" fill="#36D681"/>
<path d="M1371.38 25.1908C1369.27 26.6249 1367.7 29.7897 1366.74 34.6794C1366.15 37.7593 1366.2 40.5865 1366.99 47.4972C1367.89 55.5842 1368.12 56.6839 1369.85 59.1679C1372.56 63.1469 1374.83 64.2673 1379.76 64.1696C1385.74 64.0468 1389.78 61.2609 1389.45 57.4703C1389.24 54.9868 1386.76 54.4773 1383.69 56.3231C1378.99 59.0349 1375.42 57.3685 1374.09 51.9523C1372.93 46.9169 1372.77 35.9347 1373.9 33.0056C1374.81 30.622 1375.06 30.4033 1377.43 30.3956C1379.73 30.3936 1380.15 30.6211 1380.98 32.5905C1381.73 34.5002 1382.22 34.7874 1383.85 34.6459C1385.68 34.4875 1385.8 34.2801 1385.77 31.6489C1385.72 28.0318 1384.16 25.9939 1380.49 24.6656C1377.1 23.5107 1373.69 23.6743 1371.38 25.1908Z" fill="#36D681"/>
<path d="M1328.46 29.8293C1328.19 30.5765 1328.24 34.9836 1328.65 39.6237L1329.38 48.1199L1326.79 49.3976C1325.34 50.1159 1322.98 50.9788 1321.49 51.305L1318.85 51.9292L1318.08 43.1063C1317.29 33.9566 1316.61 32.2373 1314.2 32.4467C1311.52 32.6787 1311.38 34.1391 1312.43 53.0776C1313.33 69.5923 1313.56 71.4819 1314.67 72.9002C1316.22 74.8074 1318.85 74.7771 1319.73 72.7259C1320.11 71.8367 1320.08 68.4809 1319.67 64.5C1318.96 57.7797 1319.02 57.7087 1320.46 57.5842C1321.31 57.5107 1323.68 56.8438 1325.73 56.1399C1327.84 55.3649 1329.57 54.8854 1329.71 55.0048C1329.86 55.1242 1329.92 57.4229 1329.83 60.1307C1329.64 67.1263 1330.54 70.6045 1332.86 71.5885C1334.24 72.2596 1334.83 72.2086 1335.56 71.5525C1336.83 70.2573 1336.72 60.5879 1335.23 44.9141C1334.18 33.6133 1333.77 31.0815 1332.8 29.8479C1331.33 28.0005 1329.29 28.0452 1328.46 29.8293Z" fill="#36D681"/>
<path d="M1274.18 34.9239C1266.76 36.6203 1264.37 37.9464 1263.63 40.8415C1262.99 43.3332 1263.8 52.679 1265.71 66.4066C1267.22 76.9431 1268.21 79.228 1271.15 78.9734C1273.7 78.7527 1274.78 76.8806 1274.06 73.8485C1273.67 72.368 1272.69 64.8805 1271.75 57.0605L1270.14 42.9778L1273.95 42.1865C1278.94 41.2279 1283.36 39.7918 1284.27 38.8573C1285.48 37.6984 1284.94 34.4533 1283.43 33.7936C1281.86 33.1395 1282.25 33.1055 1274.18 34.9239Z" fill="#36D681"/>
<path fill-rule="evenodd" clip-rule="evenodd" d="M1285.23 62.8734C1284.3 52.2205 1286.85 42.1231 1292.09 35.6778C1294.71 32.4878 1295.27 32.1101 1297.88 31.8838C1301.41 31.5782 1305.06 33.435 1306.02 36.0523C1306.43 37.0697 1306.57 39.3628 1306.39 41.1556C1305.43 50.5888 1298.98 58.9828 1293.32 58.2874L1291.39 57.9941L1291.68 61.3925C1292.05 65.6406 1293.8 69.1106 1295.5 68.9635C1296.22 68.9012 1298.37 67.8592 1300.3 66.5728C1304.48 63.9062 1306.07 64.0318 1305.73 67.0237C1305.23 71.8085 1301.52 75.3561 1296.55 75.7861C1292.43 76.1426 1290.02 74.9029 1287.47 71.2393C1286.04 69.2555 1285.66 67.8403 1285.23 62.8734ZM1296.06 51.1366L1292.81 52.4055L1292.2 52.1297L1292.28 46.1968L1295.1 40.0263L1296.89 37.8959L1299.18 37.6978L1300.66 39.5453L1300.97 43.1398L1299.94 46.5207L1296.06 51.1366Z" fill="#36D681"/>
<path d="M1251.42 94.4433C1251.05 94.8041 1247.43 95.5784 1243.33 96.131C1225.05 98.6361 1223.27 100.173 1225.54 111.235C1226.1 113.886 1227.15 122.224 1227.81 129.805C1229.25 145.68 1229.91 148.718 1232.51 150.6C1234.05 151.652 1234.65 151.797 1235.98 151.155C1237.12 150.596 1238.49 150.477 1240.36 150.842C1246.12 151.858 1252.76 148.78 1257.15 143.133C1260.41 138.966 1260.75 137.554 1260.19 131.084C1259.36 121.607 1255.18 116.571 1248.64 117.137C1244.72 117.476 1237.72 120.321 1235.99 122.315L1234.66 123.746L1234.05 121.232C1233.73 119.876 1233.04 115.656 1232.45 111.888L1231.46 104.995L1234.88 104.237C1236.82 103.806 1241.75 102.984 1245.98 102.355C1253.84 101.147 1255.61 100.335 1256.27 97.3149C1256.89 94.5618 1253.21 92.3783 1251.42 94.4433ZM1252.58 125.356C1253.49 126.791 1254.08 129.044 1254.33 131.92C1254.68 135.907 1254.54 136.577 1252.82 138.833C1251.83 140.236 1249.88 142.051 1248.51 142.96C1246.06 144.422 1244.11 144.657 1237.17 144.336C1236.51 144.328 1236.15 142.449 1235.7 137.286L1235.1 130.293L1237.21 128.069C1238.36 126.916 1240.54 125.476 1242.01 124.954C1243.54 124.426 1245.07 123.833 1245.39 123.674C1245.77 123.509 1247.2 123.319 1248.64 123.26C1250.94 123.193 1251.42 123.414 1252.58 125.356Z" fill="#36D681"/>
<path fill-rule="evenodd" clip-rule="evenodd" d="M1316.52 110.93C1315.98 104.787 1315.91 99.3941 1316.2 98.9083C1316.95 97.7237 1317.42 97.8148 1319.42 99.5516C1320.99 100.996 1321.18 101.638 1322.05 109.463L1323.04 117.806L1325.36 117.276C1328.6 116.601 1333.31 118.628 1335.14 121.499C1339.85 128.729 1334.09 138.973 1324.88 139.836L1321.28 140.148L1319.53 137.337C1317.93 134.842 1317.71 133.873 1317.56 128.289C1317.46 124.874 1316.98 117.014 1316.52 110.93ZM1328.17 132.967L1325.04 134.884L1323.45 131.729L1322.86 124.867L1323.22 122.934L1325.27 122.353L1328.3 123.079L1329.72 124.273L1330.57 126.504L1330.2 129.828L1328.17 132.967Z" fill="#36D681"/>
<path d="M1428.1 89.3511C1427.18 90.1549 1426.91 91.5613 1426.92 95.5763C1426.92 100.844 1425.42 107.098 1424.11 107.211C1423.66 107.25 1423.19 104.92 1422.83 100.803C1422.4 95.7707 1421.99 94.0941 1421.14 93.3777C1419.78 92.1781 1418.74 92.2687 1417.2 93.5865C1416.23 94.4613 1416.06 95.595 1416.42 101.292C1416.79 108.569 1417.59 110.936 1420.45 112.796C1422.34 114.081 1425.3 114.088 1427.24 112.866C1428.36 112.111 1428.44 112.301 1428.94 118.118C1429.62 125.961 1430.67 128.899 1433 129.224C1433.94 129.406 1435.17 129.233 1435.73 128.79C1437.02 127.756 1437.61 123.952 1436.6 122.855C1436.02 122.312 1435.39 117.296 1434.44 106.382C1433.28 91.4045 1433.15 90.6259 1431.73 89.432C1430.02 87.9993 1429.63 88.0333 1428.1 89.3511Z" fill="#36D681"/>
<path fill-rule="evenodd" clip-rule="evenodd" d="M1377.54 117.565C1377.89 107.921 1381.23 98.6111 1385.69 94.6689C1391.69 89.4088 1398.77 93.6025 1398.25 102.075C1397.72 110.418 1393.51 115.786 1386.98 116.352L1384.04 116.607L1384.35 120.267C1384.81 125.561 1385.54 126.354 1389.66 125.997C1391.55 125.768 1393.73 125.183 1394.6 124.581C1396.9 122.999 1397.77 123.122 1397.93 124.952C1398.31 129.396 1394.98 132.779 1389.76 133.231C1381.46 133.95 1377.09 128.337 1377.54 117.565ZM1387.07 110.593L1384.24 111.322L1384.01 108.708L1383.84 106.747L1384.06 105.412L1385.46 102.656L1386.23 100.918L1387.85 99.8155L1390.08 98.9639L1391.39 98.8507L1392.54 100.726L1392.76 103.341L1392.07 106.693L1390.28 108.824L1387.07 110.593Z" fill="#36D681"/>
<path d="M1461.93 86.9483C1461.45 87.5164 1461.41 90.0879 1461.69 94.0149C1461.99 97.4787 1462.17 104.113 1462.12 108.859C1462.03 117.69 1462.34 119.045 1464.56 118.853C1466.26 118.706 1467.47 115.967 1467.9 111.057L1468.25 106.682L1470.47 106.489C1472.11 106.348 1473.36 105.581 1475.1 103.718C1476.49 102.215 1477.54 101.465 1477.59 101.988C1477.63 102.511 1477.54 106.799 1477.3 111.561C1476.92 120.943 1477.69 125.222 1479.83 126.354C1482.03 127.48 1482.77 125.31 1483.13 116.586C1483.99 96.8901 1483.59 87.6411 1481.77 86.4158C1479.46 84.7726 1477.45 86.7239 1474.66 93.2866C1471.66 100.395 1470.35 102.022 1469.31 99.8738C1468.98 99.1122 1468.26 96.1455 1467.81 93.2215C1467.36 90.3629 1466.66 87.5269 1466.27 86.9016C1465.51 85.6511 1463.01 85.6701 1461.93 86.9483Z" fill="#36D681"/>
<path d="M1297.94 102.465C1297.22 103.317 1296.48 106.147 1296.07 109.014C1294.62 120.464 1293.47 127.675 1292.33 132.712C1290.83 139.031 1290.86 139.293 1292.62 140.654C1295.86 143.139 1298.52 138.037 1300.81 124.998L1301.73 119.586L1302.99 124.348C1304.55 130.14 1307.62 135.997 1310 137.569C1312.3 139.016 1314.58 138.753 1315.41 136.904C1315.96 135.671 1315.62 134.844 1313.56 131.533C1311.64 128.406 1310.43 125.087 1307.73 115.181C1305.7 107.719 1303.92 102.342 1303.2 101.68C1301.7 100.295 1299.35 100.564 1297.94 102.465Z" fill="#36D681"/>
<path d="M1340.8 99.4117C1340.05 100.596 1340.06 102.966 1340.59 109.834C1340.94 114.676 1341.45 122.862 1341.64 128.048C1342.05 137.362 1342.48 139.3 1344.11 139.159C1345.22 139.063 1347.53 136.097 1347.43 134.855C1347.36 134.071 1349.57 133.748 1360.47 132.672C1371.64 131.639 1373.78 131.256 1374.62 130.327C1375.39 129.339 1375.47 127.16 1374.74 117.214C1374.3 110.668 1373.67 104.072 1373.28 102.592C1372.45 99.108 1370.58 98.0844 1368.36 99.8566L1366.88 100.973L1367.98 113.717L1369.09 126.461L1366.34 126.699C1364.77 126.835 1362.96 127.189 1362.26 127.447C1361.05 127.882 1360.95 127.561 1359.93 115.797C1359.06 105.667 1358.67 103.527 1357.75 102.751C1357.18 102.208 1356.24 102.026 1355.67 102.273C1353.83 103.156 1353.53 108.054 1354.7 118.423L1355.75 128.275L1351.76 128.62L1347.84 128.959L1347.06 116.977C1346.63 110.43 1346.49 104.253 1346.73 103.244C1347.95 99.0563 1342.86 95.8096 1340.8 99.4117Z" fill="#36D681"/>
<path fill-rule="evenodd" clip-rule="evenodd" d="M1439.68 102.241C1442.19 95.5052 1443.51 93.2183 1445.99 91.4234C1448.28 89.7109 1452.32 89.2293 1453.55 90.5056C1454.99 91.9609 1454.6 98.0528 1452.84 102.09C1451.03 106.263 1447.97 109.689 1445.33 110.444C1443.6 110.923 1443.49 111.196 1443.74 114.072C1443.92 116.228 1444.44 117.632 1445.53 118.854C1447.05 120.369 1447.39 120.472 1451.41 119.86C1455.51 119.307 1455.72 119.355 1456.04 120.776C1456.25 121.745 1455.9 122.961 1455.07 124.021C1454 125.43 1453.11 125.77 1450.24 126.019C1445.99 126.387 1443.4 125.426 1440.71 122.433C1438.82 120.358 1438.63 119.781 1438.13 113.964C1437.62 108.082 1437.75 107.347 1439.68 102.241ZM1447.04 103.579L1443.74 106.499L1443.84 103.857L1444.53 101.163L1445.38 98.7853L1446.87 97.01L1447.74 95.618L1449.01 95.1781L1449.67 95.1215L1450.14 96.727L1449.41 99.7529L1447.04 103.579Z" fill="#36D681"/>
<path d="M1273.5 108.465C1269.58 109.595 1265.8 112.293 1264.26 115.06C1260.56 121.702 1260.24 133.252 1263.54 139.419C1266.76 145.396 1271.7 147.668 1277.25 145.607C1280.82 144.31 1282.94 141.427 1285.02 135.057C1286.65 130.241 1286.72 129.511 1286.08 122.126C1285.48 115.264 1285.17 113.973 1283.72 111.663C1280.84 107.303 1279.22 106.785 1273.5 108.465ZM1278.58 114.676C1279.04 115.361 1279.83 118.387 1280.21 121.251C1280.84 125.542 1280.8 127.324 1279.92 130.889C1278.42 137.077 1276.55 139.873 1273.91 139.838C1269.1 139.793 1266.74 132.229 1268.71 123.103C1269.75 118.403 1270.28 117.633 1274.22 115.186C1277.52 113.056 1277.52 113.056 1278.58 114.676Z" fill="#36D681"/>
</g>
<defs>
<linearGradient id="paint0_linear" x1="146.993" y1="149.61" x2="360.525" y2="149.61" gradientUnits="userSpaceOnUse">
<stop stop-color="#0066FF"/>
<stop offset="0.0666667" stop-color="#0066FF" stop-opacity="0.991353"/>
<stop offset="0.133333" stop-color="#0066FF" stop-opacity="0.96449"/>
<stop offset="0.2" stop-color="#0066FF" stop-opacity="0.91834"/>
<stop offset="0.266667" stop-color="#0066FF" stop-opacity="0.852589"/>
<stop offset="0.333333" stop-color="#0066FF" stop-opacity="0.768225"/>
<stop offset="0.4" stop-color="#0066FF" stop-opacity="0.668116"/>
<stop offset="0.466667" stop-color="#0066FF" stop-opacity="0.557309"/>
<stop offset="0.533333" stop-color="#0066FF" stop-opacity="0.442691"/>
<stop offset="0.6" stop-color="#0066FF" stop-opacity="0.331884"/>
<stop offset="0.666667" stop-color="#0066FF" stop-opacity="0.231775"/>
<stop offset="0.733333" stop-color="#0066FF" stop-opacity="0.147411"/>
<stop offset="0.8" stop-color="#0066FF" stop-opacity="0.0816599"/>
<stop offset="0.866667" stop-color="#0066FF" stop-opacity="0.03551"/>
<stop offset="0.933333" stop-color="#0066FF" stop-opacity="0.01"/>
<stop offset="1" stop-color="#0066FF" stop-opacity="0"/>
</linearGradient>
<clipPath id="clip0">
<rect width="1890" height="342" fill="white"/>
</clipPath>
</defs>
</svg>
