<svg width="98" height="42" viewBox="0 0 98 42" fill="none" xmlns="http://www.w3.org/2000/svg">
<rect width="97.2348" height="41.5372" rx="9.44027" fill="#0038FF"/>
<path d="M13.686 11.612V28.7761H16.15V16.3472H16.3092L21.3713 28.7509H23.4163L28.4783 16.3556H28.6376V28.7761H31.1016V11.612H27.9587L22.4944 24.9544H22.2932L16.8288 11.612H13.686ZM38.4118 29.061C40.5406 29.061 41.739 27.9799 42.2168 27.0161H42.3173V28.7761H44.7646V20.2276C44.7646 16.4813 41.8145 15.7354 39.7695 15.7354C37.4396 15.7354 35.2941 16.674 34.456 19.0207L36.8111 19.5571C37.1798 18.6436 38.1185 17.7636 39.8031 17.7636C41.4206 17.7636 42.2503 18.61 42.2503 20.0683V20.127C42.2503 21.0405 41.3116 21.0237 38.9985 21.2919C36.5596 21.5769 34.0621 22.2138 34.0621 25.1388C34.0621 27.6698 35.9646 29.061 38.4118 29.061ZM38.9566 27.0496C37.5402 27.0496 36.5177 26.4127 36.5177 25.1723C36.5177 23.8313 37.7078 23.3536 39.1577 23.1609C39.9707 23.0519 41.8983 22.834 42.2587 22.4736V24.1331C42.2587 25.6584 41.0434 27.0496 38.9566 27.0496ZM48.1023 28.7761H50.6082V23.6302H52.2341L56.1144 28.7761H59.2237L54.1784 22.1635L59.1651 15.903H56.0641L51.815 21.3003H50.6082V15.903H48.1023V28.7761ZM66.1883 29.0359C68.9959 29.0359 70.9822 27.653 71.5521 25.5578L69.1803 25.1304C68.7277 26.3456 67.6382 26.9658 66.2134 26.9658C64.0679 26.9658 62.6264 25.5746 62.5594 23.0938H71.7113V22.2054C71.7113 17.554 68.9289 15.7354 66.0123 15.7354C62.4253 15.7354 60.0618 18.4676 60.0618 22.4234C60.0618 26.4211 62.3917 29.0359 66.1883 29.0359ZM62.5677 21.2165C62.6683 19.3895 63.9925 17.8055 66.0291 17.8055C67.9734 17.8055 69.2473 19.247 69.2557 21.2165H62.5677ZM73.3561 18.0653H77.5717V28.7761H80.0189V18.0653H84.2178V15.903H73.3561V18.0653Z" fill="white"/>
</svg>
