<svg width="1433" height="237" viewBox="0 0 1433 237" fill="none" xmlns="http://www.w3.org/2000/svg">
<g clip-path="url(#clip0)">
<path d="M1025.5 0L1035.94 51.0631L1087 61.5L1035.94 71.9369L1025.5 123L1015.06 71.9369L964 61.5L1015.06 51.0631L1025.5 0Z" fill="#FBC400"/>
<path d="M923.5 163L928.337 186.663L952 191.5L928.337 196.337L923.5 220L918.663 196.337L895 191.5L918.663 186.663L923.5 163Z" fill="#FBC400"/>
<path d="M840.5 32L848.222 69.7784L886 77.5L848.222 85.2216L840.5 123L832.778 85.2216L795 77.5L832.778 69.7784L840.5 32Z" fill="#FBC400"/>
<path d="M91.6699 179H70.5469V96.6953H46.0742L44.9805 105.855C42.1549 129.143 39.6484 145.504 37.4609 154.938C35.319 164.326 32.1745 170.934 28.0273 174.762C23.8802 178.59 18.2747 180.458 11.2109 180.367C7.38281 180.367 4.01042 179.866 1.09375 178.863V161.5C3.73698 162.411 6.2207 162.867 8.54492 162.867C10.9603 162.867 12.8743 161.773 14.2871 159.586C15.6999 157.353 17.0215 153.251 18.252 147.281C19.528 141.266 21.1914 131.445 23.2422 117.818C25.3385 104.146 27.1159 91.2266 28.5742 79.0586H91.6699V179ZM131.865 140.65C131.865 148.215 133.096 153.935 135.557 157.809C138.063 161.682 142.119 163.619 147.725 163.619C153.285 163.619 157.272 161.705 159.688 157.877C162.148 154.003 163.379 148.261 163.379 140.65C163.379 133.085 162.148 127.411 159.688 123.629C157.227 119.846 153.193 117.955 147.588 117.955C142.028 117.955 138.018 119.846 135.557 123.629C133.096 127.366 131.865 133.04 131.865 140.65ZM184.707 140.65C184.707 153.092 181.426 162.822 174.863 169.84C168.301 176.858 159.163 180.367 147.451 180.367C140.114 180.367 133.643 178.772 128.037 175.582C122.432 172.346 118.125 167.721 115.117 161.705C112.109 155.689 110.605 148.671 110.605 140.65C110.605 128.163 113.864 118.456 120.381 111.529C126.898 104.602 136.058 101.139 147.861 101.139C155.199 101.139 161.67 102.734 167.275 105.924C172.881 109.114 177.188 113.694 180.195 119.664C183.203 125.634 184.707 132.63 184.707 140.65ZM254.707 102.574V118.229H222.783V179H201.934V102.574H254.707ZM285.537 140.65C285.537 148.215 286.768 153.935 289.229 157.809C291.735 161.682 295.791 163.619 301.396 163.619C306.956 163.619 310.944 161.705 313.359 157.877C315.82 154.003 317.051 148.261 317.051 140.65C317.051 133.085 315.82 127.411 313.359 123.629C310.898 119.846 306.865 117.955 301.26 117.955C295.7 117.955 291.689 119.846 289.229 123.629C286.768 127.366 285.537 133.04 285.537 140.65ZM338.379 140.65C338.379 153.092 335.098 162.822 328.535 169.84C321.973 176.858 312.835 180.367 301.123 180.367C293.786 180.367 287.314 178.772 281.709 175.582C276.104 172.346 271.797 167.721 268.789 161.705C265.781 155.689 264.277 148.671 264.277 140.65C264.277 128.163 267.536 118.456 274.053 111.529C280.57 104.602 289.73 101.139 301.533 101.139C308.87 101.139 315.342 102.734 320.947 105.924C326.553 109.114 330.859 113.694 333.867 119.664C336.875 125.634 338.379 132.63 338.379 140.65ZM418.838 102.574V118.229H393.818V179H372.969V118.229H347.881V102.574H418.838ZM453.291 102.574V132.789C453.291 135.979 452.767 143.772 451.719 156.168L486.992 102.574H512.08V179H491.914V148.512C491.914 143.089 492.37 135.432 493.281 125.543L458.145 179H433.125V102.574H453.291ZM603.477 102.574V179H582.559V118.229H554.873V179H534.023V102.574H603.477ZM680.723 131.969C688.607 131.969 694.189 131.331 697.471 130.055C700.798 128.779 702.461 126.751 702.461 123.971C702.461 121.51 701.253 119.664 698.838 118.434C696.423 117.203 692.435 116.588 686.875 116.588C683.366 116.588 679.378 117.021 674.912 117.887C670.492 118.753 666.458 119.938 662.812 121.441L656.66 106.881C662.083 104.83 667.347 103.372 672.451 102.506C677.555 101.594 683.252 101.139 689.541 101.139C699.066 101.139 706.699 102.962 712.441 106.607C718.184 110.253 721.055 115.198 721.055 121.441C721.055 130.055 715.973 135.66 705.811 138.258V138.941C712.054 140.491 716.497 142.701 719.141 145.572C721.829 148.398 723.174 152.112 723.174 156.715C723.174 161.363 721.67 165.488 718.662 169.088C715.654 172.688 711.302 175.468 705.605 177.428C699.909 179.387 693.21 180.367 685.508 180.367C672.747 180.367 662.949 178.795 656.113 175.65V158.424C660.033 160.247 664.316 161.682 668.965 162.73C673.659 163.779 678.193 164.303 682.568 164.303C689.359 164.303 694.44 163.551 697.812 162.047C701.185 160.497 702.871 158.31 702.871 155.484C702.871 152.385 701.094 150.107 697.539 148.648C693.984 147.145 688.516 146.393 681.133 146.393H673.066V131.969H680.723ZM788.047 179L784.014 168.609H783.467C779.958 173.03 776.335 176.106 772.598 177.838C768.906 179.524 764.076 180.367 758.105 180.367C750.768 180.367 744.98 178.271 740.742 174.078C736.549 169.885 734.453 163.915 734.453 156.168C734.453 148.056 737.279 142.086 742.93 138.258C748.626 134.384 757.194 132.242 768.633 131.832L781.895 131.422V128.072C781.895 120.325 777.93 116.451 770 116.451C763.893 116.451 756.715 118.297 748.467 121.988L741.562 107.906C750.358 103.303 760.111 101.002 770.82 101.002C781.074 101.002 788.936 103.235 794.404 107.701C799.873 112.167 802.607 118.958 802.607 128.072V179H788.047ZM781.895 143.59L773.828 143.863C767.767 144.046 763.255 145.139 760.293 147.145C757.331 149.15 755.85 152.203 755.85 156.305C755.85 162.184 759.222 165.123 765.967 165.123C770.798 165.123 774.648 163.733 777.52 160.953C780.436 158.173 781.895 154.482 781.895 149.879V143.59ZM907.402 179H886.279V121.168L886.484 111.666L886.826 101.275C883.317 104.785 880.879 107.086 879.512 108.18L868.027 117.408L857.842 104.693L890.039 79.0586H907.402V179ZM1004.47 129.029C1004.47 146.484 1001.6 159.404 995.859 167.789C990.163 176.174 981.367 180.367 969.473 180.367C957.943 180.367 949.238 176.038 943.359 167.379C937.526 158.72 934.609 145.937 934.609 129.029C934.609 111.393 937.458 98.4043 943.154 90.0645C948.851 81.679 957.624 77.4863 969.473 77.4863C981.003 77.4863 989.707 81.8613 995.586 90.6113C1001.51 99.3613 1004.47 112.167 1004.47 129.029ZM955.596 129.029C955.596 141.288 956.644 150.084 958.74 155.416C960.882 160.702 964.46 163.346 969.473 163.346C974.395 163.346 977.949 160.657 980.137 155.279C982.324 149.902 983.418 141.152 983.418 129.029C983.418 116.77 982.301 107.975 980.068 102.643C977.881 97.265 974.349 94.5762 969.473 94.5762C964.505 94.5762 960.951 97.265 958.809 102.643C956.667 107.975 955.596 116.77 955.596 129.029ZM1104.69 163.756V118.229H1089.03C1087.89 126.705 1086.32 134.749 1084.32 142.359C1082.36 149.97 1079.62 157.102 1076.11 163.756H1104.69ZM1136.75 206.412H1118.02V179H1066.61V206.412H1047.88V163.756H1054.31C1058.68 156.965 1062.35 148.398 1065.31 138.053C1068.27 127.708 1070.35 115.882 1071.53 102.574H1125.54V163.756H1136.75V206.412ZM1170.65 102.574V131.969H1199.78V102.574H1220.62V179H1199.78V147.486H1170.65V179H1149.8V102.574H1170.65ZM1274.15 115.973C1269.73 115.973 1266.27 117.385 1263.76 120.211C1261.25 122.991 1259.82 126.956 1259.45 132.105H1288.71C1288.62 126.956 1287.28 122.991 1284.68 120.211C1282.08 117.385 1278.57 115.973 1274.15 115.973ZM1277.09 180.367C1264.79 180.367 1255.17 176.972 1248.24 170.182C1241.32 163.391 1237.85 153.775 1237.85 141.334C1237.85 128.528 1241.04 118.639 1247.42 111.666C1253.85 104.648 1262.71 101.139 1274.01 101.139C1284.81 101.139 1293.22 104.215 1299.24 110.367C1305.25 116.52 1308.26 125.019 1308.26 135.865V145.982H1258.97C1259.2 151.907 1260.96 156.533 1264.24 159.859C1267.52 163.186 1272.12 164.85 1278.05 164.85C1282.65 164.85 1287 164.371 1291.1 163.414C1295.21 162.457 1299.49 160.93 1303.96 158.834V174.967C1300.31 176.79 1296.41 178.134 1292.27 179C1288.12 179.911 1283.06 180.367 1277.09 180.367ZM1345.38 102.574V132.789C1345.38 135.979 1344.86 143.772 1343.81 156.168L1379.08 102.574H1404.17V179H1384V148.512C1384 143.089 1384.46 135.432 1385.37 125.543L1350.23 179H1325.21V102.574H1345.38ZM1398.02 69.6934C1397.15 78.2155 1393.94 84.4362 1388.38 88.3555C1382.82 92.2292 1374.8 94.166 1364.32 94.166C1353.52 94.166 1345.52 92.2975 1340.32 88.5605C1335.17 84.8236 1332.28 78.5345 1331.64 69.6934H1350.3C1350.62 74.3874 1351.78 77.6914 1353.79 79.6055C1355.84 81.474 1359.49 82.4082 1364.73 82.4082C1369.33 82.4082 1372.75 81.3828 1374.98 79.332C1377.26 77.2357 1378.65 74.0228 1379.15 69.6934H1398.02Z" fill="black"/>
<path d="M1426 195C1292.5 236.5 1180.13 160.849 1055.01 230.453" stroke="#0267FF" stroke-width="12" stroke-linecap="round"/>
</g>
<defs>
<clipPath id="clip0">
<rect width="1433" height="237" fill="white"/>
</clipPath>
</defs>
</svg>
