<svg width="663" height="73" viewBox="0 0 663 73" fill="none" xmlns="http://www.w3.org/2000/svg">
<path fill-rule="evenodd" clip-rule="evenodd" d="M203.5 0C183.342 0 167 16.3416 167 36.5C167 56.6584 183.342 73 203.5 73H284.5C304.658 73 321 56.6584 321 36.5C321 16.3416 304.658 0 284.5 0H203.5ZM234.106 14.3944C221.897 14.3944 212 24.2914 212 36.5C212 48.7086 221.897 58.6056 234.106 58.6056H253.894C266.103 58.6056 276 48.7086 276 36.5C276 24.2914 266.103 14.3944 253.894 14.3944H234.106ZM0 1H69V15H56V34.4175L96 15H88V1H163V15H144L125 24.5L153.5 59H161V72H88V59H100.159L86.5 39L56 54.9538V59H69V72H0V59H14V15H0V1ZM399 1H329V15H343V30V46V59H329V72H399V59H385V46H445V59H432V72H499V59H487V46V30V15H499V1H432V15H445V30H385V15H399V1ZM509 36.5C509 16.3416 525.342 0 545.5 0H626.5C646.658 0 663 16.3416 663 36.5C663 56.6584 646.658 73 626.5 73H545.5C525.342 73 509 56.6584 509 36.5ZM554 36.5C554 24.2914 563.897 14.3944 576.106 14.3944H595.894C608.103 14.3944 618 24.2914 618 36.5C618 48.7086 608.103 58.6056 595.894 58.6056H576.106C563.897 58.6056 554 48.7086 554 36.5Z" fill="white"/>
</svg>
