<svg width="320" height="130" viewBox="0 0 320 130" fill="none" xmlns="http://www.w3.org/2000/svg">
<rect x="3.5" y="3.5" width="313" height="123" rx="26.5" stroke="black" stroke-width="7"/>
<path d="M42.392 34.8182V93H50.7443V50.8693H51.2841L68.4432 92.9148H75.375L92.5341 50.8977H93.0739V93H101.426V34.8182H90.7727L72.25 80.0455H71.5682L53.0455 34.8182H42.392ZM126.206 93.9659C133.422 93.9659 137.484 90.3011 139.104 87.0341H139.445V93H147.74V64.0227C147.74 51.3239 137.74 48.7955 130.808 48.7955C122.911 48.7955 115.638 51.9773 112.797 59.9318L120.78 61.75C122.03 58.6534 125.212 55.6705 130.922 55.6705C136.405 55.6705 139.217 58.5398 139.217 63.483V63.6818C139.217 66.7784 136.036 66.7216 128.195 67.6307C119.928 68.5966 111.462 70.7557 111.462 80.6705C111.462 89.25 117.911 93.9659 126.206 93.9659ZM128.053 87.1477C123.251 87.1477 119.786 84.9886 119.786 80.7841C119.786 76.2386 123.82 74.6193 128.734 73.9659C131.49 73.5966 138.024 72.858 139.246 71.6364V77.2614C139.246 82.4318 135.126 87.1477 128.053 87.1477ZM159.054 93H167.548V75.5568H173.06L186.213 93H196.753L179.651 70.5852L196.554 49.3636H186.043L171.639 67.6591H167.548V49.3636H159.054V93ZM220.361 93.8807C229.878 93.8807 236.611 89.1932 238.543 82.0909L230.503 80.642C228.969 84.7614 225.276 86.8636 220.446 86.8636C213.173 86.8636 208.287 82.1477 208.06 73.7386H239.082V70.7273C239.082 54.9602 229.651 48.7955 219.764 48.7955C207.605 48.7955 199.594 58.0568 199.594 71.4659C199.594 85.017 207.491 93.8807 220.361 93.8807ZM208.088 67.375C208.429 61.1818 212.918 55.8125 219.821 55.8125C226.412 55.8125 230.73 60.6989 230.759 67.375H208.088ZM244.658 56.6932H258.947V93H267.243V56.6932H281.476V49.3636H244.658V56.6932Z" fill="black"/>
</svg>
