<svg width="130" height="40" viewBox="0 0 130 40" fill="none" xmlns="http://www.w3.org/2000/svg">
<path d="M84.336 1.37292H11.7619C6.02875 1.37292 1.3811 5.99307 1.3811 11.6923V28.3077C1.3811 34.0069 6.02875 38.6271 11.7619 38.6271H84.336C90.0691 38.6271 94.7168 34.0069 94.7168 28.3077V11.6923C94.7168 5.99307 90.0691 1.37292 84.336 1.37292Z" stroke="black" stroke-width="2.19018"/>
<path d="M108.301 10.681L105.903 9.70984L106.865 12.1314L112.843 27.1828L114.077 30.29L114.935 27.0562L116.658 20.5684L123.083 18.83L126.286 17.9634L123.208 16.7173L108.301 10.681Z" stroke="black" stroke-width="2.19018"/>
<path d="M22.4554 23.7868L18.4531 14.2415H15.3567V26.8158H17.7696V17.6715L21.5412 26.8158H23.3695L27.207 17.7043V26.8158H29.6035V14.2415H26.54L22.4554 23.7868ZM36.5663 27.0941C38.658 27.0941 39.8356 26.0381 40.305 25.0967H40.4038V26.8158H42.8085V18.4656C42.8085 14.8063 39.9097 14.0778 37.9004 14.0778C35.611 14.0778 33.5028 14.9946 32.6793 17.2868L34.9933 17.8107C35.3557 16.9184 36.278 16.0589 37.9333 16.0589C39.5226 16.0589 40.3379 16.8857 40.3379 18.3101V18.3674C40.3379 19.2597 39.4156 19.2434 37.1427 19.5053C34.7463 19.7837 32.2922 20.4058 32.2922 23.2629C32.2922 25.7352 34.1616 27.0941 36.5663 27.0941ZM37.1015 25.1294C35.7098 25.1294 34.7051 24.5072 34.7051 23.2956C34.7051 21.9858 35.8745 21.5192 37.2992 21.3309C38.098 21.2245 39.9921 21.0116 40.3462 20.6596V22.2805C40.3462 23.7704 39.1521 25.1294 37.1015 25.1294ZM46.0881 26.8158H48.5504V21.7893H50.148L53.9609 26.8158H57.0161L52.0586 20.3567L56.9585 14.2415H53.9115L49.7363 19.5135H48.5504V14.2415H46.0881V26.8158ZM63.8597 27.0696C66.6182 27.0696 68.57 25.7188 69.1303 23.6722L66.7995 23.2547C66.3551 24.4417 65.2841 25.0475 63.8844 25.0475C61.776 25.0475 60.3596 23.6886 60.2937 21.2654H69.2863V20.3976C69.2863 15.8542 66.5525 14.0778 63.6864 14.0778C60.1619 14.0778 57.8396 16.7465 57.8396 20.6105C57.8396 24.5154 60.129 27.0696 63.8597 27.0696ZM60.302 19.4317C60.4008 17.647 61.7019 16.0998 63.7031 16.0998C65.6134 16.0998 66.8652 17.5079 66.8738 19.4317H60.302ZM70.9026 16.3536H75.0446V26.8158H77.4496V16.3536H81.5756V14.2415H70.9026V16.3536Z" fill="black"/>
</svg>
