<svg width="210" height="65" viewBox="0 0 210 65" fill="none" xmlns="http://www.w3.org/2000/svg">
<path d="M136.235 2.23096H19C9.73869 2.23096 2.23096 9.73869 2.23096 19V46C2.23096 55.2612 9.73869 62.769 19 62.769H136.235C145.496 62.769 153.004 55.2612 153.004 46V19C153.004 9.73869 145.496 2.23096 136.235 2.23096Z" stroke="black" stroke-width="3.53798"/>
<path d="M174.948 17.3567L171.074 15.7786L172.628 19.7137L182.285 44.1721L184.279 49.2214L185.665 43.9665L188.447 33.4237L198.826 30.5988L204 29.1907L199.029 27.1657L174.948 17.3567Z" stroke="black" stroke-width="3.53798"/>
<path d="M36.2741 38.6535L29.8089 23.1423H24.807V43.5756H28.7047V28.7162L34.7974 43.5756H37.7507L43.9498 28.7694V43.5756H47.821V23.1423H42.8723L36.2741 38.6535ZM59.0686 44.0279C62.4475 44.0279 64.3498 42.3118 65.1081 40.782H65.2677V43.5756H69.1522V30.0066C69.1522 24.0602 64.4696 22.8763 61.2237 22.8763C57.5255 22.8763 54.1199 24.3662 52.7896 28.091L56.5277 28.9424C57.1131 27.4924 58.603 26.0956 61.2769 26.0956C63.8443 26.0956 65.1613 27.4392 65.1613 29.7539V29.847C65.1613 31.297 63.6714 31.2704 59.9998 31.6961C56.1287 32.1484 52.1644 33.1594 52.1644 37.8021C52.1644 41.8196 55.1841 44.0279 59.0686 44.0279ZM59.9333 40.8352C57.6851 40.8352 56.0621 39.8242 56.0621 37.8553C56.0621 35.7269 57.9512 34.9686 60.2526 34.6626C61.5429 34.4897 64.6026 34.1438 65.1746 33.5718V36.2058C65.1746 38.6269 63.2457 40.8352 59.9333 40.8352ZM74.4501 43.5756H78.4276V35.4076H81.0084L87.1677 43.5756H92.103L84.0947 33.0796L92.0099 23.1423H87.0878L80.3433 31.7094H78.4276V23.1423H74.4501V43.5756ZM103.158 43.988C107.614 43.988 110.767 41.793 111.672 38.4673L107.907 37.7888C107.189 39.7177 105.459 40.7022 103.198 40.7022C99.7921 40.7022 97.504 38.4939 97.3976 34.5562H111.924V33.1461C111.924 25.763 107.508 22.8763 102.878 22.8763C97.1847 22.8763 93.4333 27.213 93.4333 33.492C93.4333 39.8375 97.1315 43.988 103.158 43.988ZM97.4109 31.5764C97.5705 28.6763 99.6724 26.1621 102.905 26.1621C105.991 26.1621 108.013 28.4502 108.027 31.5764H97.4109ZM114.535 26.5745H121.226V43.5756H125.111V26.5745H131.776V23.1423H114.535V26.5745Z" fill="black"/>
</svg>
