<svg width="2000" height="633" viewBox="0 0 2000 633" fill="none" xmlns="http://www.w3.org/2000/svg">
<g clip-path="url(#clip0)">
<rect width="2000" height="633" fill="white"/>
<path d="M1347.18 215.289C1346.36 210.516 1352.12 207.478 1355.59 210.856L1382.32 236.859C1383.87 238.369 1386.22 238.708 1388.14 237.699L1421.12 220.319C1425.41 218.061 1430.08 222.606 1427.94 226.951L1411.47 260.401C1410.51 262.345 1410.91 264.683 1412.47 266.194L1439.19 292.196C1442.66 295.574 1439.78 301.421 1434.99 300.728L1398.08 295.399C1395.94 295.09 1393.84 296.196 1392.88 298.139L1376.41 331.589C1374.27 335.935 1367.82 335.003 1367 330.23L1360.66 293.486C1360.3 291.352 1358.59 289.697 1356.45 289.387L1319.55 284.058C1314.75 283.366 1313.65 276.944 1317.93 274.686L1350.92 257.306C1352.84 256.296 1353.88 254.168 1353.52 252.033L1347.18 215.289Z" fill="#36D681"/>
<rect x="1916.05" y="120.941" width="116" height="14.5" transform="rotate(21.5249 1916.05 120.941)" fill="#FBB500"/>
<rect x="1939.48" y="200.637" width="116" height="14.5" transform="rotate(-68.4751 1939.48 200.637)" fill="#FBB500"/>
<rect x="1911" y="165.351" width="116" height="14.5" transform="rotate(-23.4751 1911 165.351)" fill="#FBB500"/>
<rect x="1950.63" y="92.809" width="116" height="14.5" transform="rotate(66.5249 1950.63 92.809)" fill="#FBB500"/>
<path d="M1583.29 491.214L1650.88 380M1650.88 380L1666.87 452.337M1650.88 380L1583.81 394.831" stroke="black" stroke-width="20" stroke-linecap="round"/>
<rect x="1816.89" y="253" width="100" height="100" transform="rotate(18.5987 1816.89 253)" fill="#FF000F"/>
<circle cx="1650.5" cy="179.5" r="56.5" fill="#0066FF" fill-opacity="0.991353"/>
<path d="M1859.9 492.529L1939.05 596.621L1809.33 613.125L1859.9 492.529Z" fill="#4C36D6"/>
</g>
<defs>
<clipPath id="clip0">
<rect width="2000" height="633" fill="white"/>
</clipPath>
</defs>
</svg>
