<svg width="1171" height="188" viewBox="0 0 1171 188" fill="none" xmlns="http://www.w3.org/2000/svg">
<g clip-path="url(#clip0)">
<rect width="1171" height="188" fill="white"/>
<path d="M39.5 119.804H49.458V69.6535H77.9271V60.3175H39.5V119.804ZM80.3331 139.632H90.3738V117.532C91.8884 118.633 93.5967 119.487 95.4974 120.093C97.4252 120.726 99.5467 121.043 101.861 121.043C105.993 121.043 109.573 120.01 112.604 117.945C115.661 115.879 118.031 113.07 119.711 109.517C121.391 105.965 122.231 101.958 122.231 97.4963C122.231 92.9797 121.378 88.9452 119.669 85.3925C117.989 81.8399 115.593 79.0446 112.48 77.0066C109.367 74.9686 105.703 73.9497 101.489 73.9497C98.9541 73.9497 96.6543 74.3353 94.5883 75.1064C92.5224 75.8775 90.7043 76.9791 89.1342 78.4112V75.189H80.3331V139.632ZM100.332 112.12C96.3379 112.12 93.4727 110.771 91.7373 108.072C90.0019 105.345 89.1342 101.82 89.1342 97.4963C89.1342 93.145 89.9877 89.6199 91.696 86.921C93.4314 84.222 96.1998 82.8726 100.001 82.8726C102.673 82.8726 104.863 83.5336 106.571 84.8555C108.306 86.1499 109.587 87.9124 110.414 90.1432C111.267 92.3464 111.695 94.7974 111.695 97.4963C111.695 100.223 111.281 102.688 110.455 104.891C109.656 107.094 108.416 108.857 106.736 110.178C105.056 111.473 102.921 112.12 100.332 112.12ZM151.627 121.043C155.924 121.043 159.85 119.941 163.403 117.738C166.984 115.507 169.628 112.368 171.336 108.319L161.502 105.345C159.519 109.586 156.034 111.707 151.048 111.707C147.66 111.707 144.988 110.729 143.033 108.774C141.076 106.791 139.905 103.954 139.52 100.264H171.832C172.217 94.8938 171.626 90.2396 170.055 86.3013C168.485 82.3631 166.075 79.32 162.825 77.1719C159.602 75.0238 155.676 73.9497 151.048 73.9497C146.669 73.9497 142.812 74.9411 139.479 76.924C136.145 78.8794 133.542 81.6608 131.67 85.2686C129.796 88.8764 128.86 93.1175 128.86 97.992C128.86 102.509 129.81 106.502 131.711 109.972C133.639 113.442 136.31 116.155 139.727 118.11C143.142 120.065 147.109 121.043 151.627 121.043ZM151.462 82.6661C154.546 82.6661 156.916 83.4785 158.569 85.1034C160.249 86.7006 161.309 89.2481 161.75 92.7457H139.768C140.952 86.026 144.851 82.6661 151.462 82.6661ZM207.041 119.804H217.04V75.189H207.041V95.7613C205.994 96.56 204.713 97.2209 203.198 97.7442C201.684 98.2674 199.934 98.529 197.951 98.529C195.389 98.529 193.42 98.0195 192.042 97.0006C190.664 95.9816 189.714 94.3706 189.191 92.1673C188.916 91.0382 188.751 89.8953 188.695 88.7386C188.668 87.5544 188.654 86.6456 188.654 86.0122V75.189H178.572V86.0122C178.572 86.7832 178.599 88.0777 178.655 89.8953C178.71 91.7129 178.917 93.4754 179.274 95.1829C180.074 99.0936 181.836 102.095 184.563 104.188C187.318 106.254 190.995 107.287 195.596 107.287C199.975 107.287 203.791 106.461 207.041 104.808V119.804ZM241.064 121.043C244.617 121.043 247.633 120.465 250.113 119.308C252.619 118.124 254.823 116.292 256.724 113.814V119.804H265.442V92.4152C265.442 90.4874 265.359 88.7111 265.194 87.0862C265.029 85.4338 264.546 83.8228 263.748 82.253C262.288 79.3062 260.042 77.1857 257.013 75.8913C254.01 74.5968 250.526 73.9497 246.559 73.9497C241.325 73.9497 237.151 75.0926 234.039 77.3784C230.926 79.6643 228.819 82.6936 227.717 86.4666L236.808 89.317C237.551 87.0311 238.86 85.42 240.733 84.4837C242.605 83.5474 244.547 83.0792 246.559 83.0792C249.588 83.0792 251.82 83.6988 253.253 84.9381C254.685 86.1499 255.497 88.0364 255.691 90.5976C251.778 91.1759 248.142 91.7404 244.782 92.2913C241.448 92.8145 238.612 93.4617 236.271 94.2328C232.744 95.4446 230.168 97.1658 228.544 99.3966C226.918 101.6 226.106 104.326 226.106 107.576C226.106 110.027 226.67 112.271 227.8 114.309C228.957 116.347 230.651 117.986 232.882 119.225C235.114 120.437 237.841 121.043 241.064 121.043ZM243.047 113.111C240.705 113.111 238.915 112.574 237.675 111.5C236.463 110.426 235.857 109.077 235.857 107.452C235.857 105.992 236.325 104.808 237.262 103.899C238.226 102.991 239.562 102.219 241.27 101.586C242.84 101.063 244.727 100.608 246.931 100.223C249.134 99.8096 252.013 99.3277 255.567 98.7769C255.538 99.8235 255.47 100.994 255.36 102.288C255.249 103.555 254.988 104.698 254.575 105.717C254.245 106.736 253.596 107.824 252.633 108.98C251.696 110.137 250.429 111.115 248.832 111.913C247.233 112.712 245.305 113.111 243.047 113.111ZM291.916 97.6615H346.458V89.854H291.916V97.6615ZM369.636 119.804C374.732 120.933 378.41 120.602 380.668 118.812C382.928 117.022 384.525 113.704 385.461 108.856C385.847 106.929 386.192 104.519 386.494 101.627C386.825 98.7356 387.128 95.7613 387.403 92.7044C387.679 89.6474 387.913 86.921 388.106 84.525H402.278V119.804H412.195V75.189H379.346C379.015 80.8898 378.63 86.3702 378.189 91.6303C377.748 96.8905 377.197 101.366 376.536 105.056C376.069 107.672 375.407 109.504 374.553 110.55C373.726 111.597 372.088 111.9 369.636 111.459V119.804ZM443.513 121.043C447.975 121.043 451.873 120.051 455.206 118.069C458.539 116.058 461.129 113.29 462.974 109.765C464.848 106.213 465.784 102.123 465.784 97.4963C465.784 92.8971 464.861 88.835 463.015 85.3099C461.17 81.7573 458.58 78.9757 455.247 76.9653C451.915 74.9549 448.002 73.9497 443.513 73.9497C439.133 73.9497 435.276 74.9411 431.943 76.924C428.61 78.9069 426.007 81.6608 424.134 85.186C422.26 88.7111 421.324 92.8145 421.324 97.4963C421.324 102.095 422.233 106.171 424.051 109.724C425.896 113.249 428.487 116.017 431.819 118.027C435.152 120.038 439.05 121.043 443.513 121.043ZM443.513 111.707C439.684 111.707 436.778 110.426 434.794 107.865C432.838 105.276 431.861 101.82 431.861 97.4963C431.861 93.2827 432.797 89.8678 434.67 87.2515C436.571 84.6076 439.519 83.2857 443.513 83.2857C447.424 83.2857 450.357 84.5801 452.314 87.1688C454.27 89.7301 455.247 93.1726 455.247 97.4963C455.247 101.682 454.27 105.097 452.314 107.741C450.386 110.385 447.452 111.707 443.513 111.707ZM474.888 119.804H484.846V84.525H506.704V75.189H474.888V119.804ZM533.496 121.043C537.958 121.043 541.855 120.051 545.189 118.069C548.522 116.058 551.111 113.29 552.957 109.765C554.83 106.213 555.767 102.123 555.767 97.4963C555.767 92.8971 554.844 88.835 552.999 85.3099C551.152 81.7573 548.563 78.9757 545.231 76.9653C541.897 74.9549 537.986 73.9497 533.496 73.9497C529.116 73.9497 525.259 74.9411 521.926 76.924C518.593 78.9069 515.989 81.6608 514.117 85.186C512.243 88.7111 511.307 92.8145 511.307 97.4963C511.307 102.095 512.216 106.171 514.034 109.724C515.88 113.249 518.469 116.017 521.802 118.027C525.135 120.038 529.033 121.043 533.496 121.043ZM533.496 111.707C529.666 111.707 526.761 110.426 524.778 107.865C522.821 105.276 521.844 101.82 521.844 97.4963C521.844 93.2827 522.78 89.8678 524.653 87.2515C526.554 84.6076 529.501 83.2857 533.496 83.2857C537.407 83.2857 540.341 84.5801 542.297 87.1688C544.252 89.7301 545.231 93.1726 545.231 97.4963C545.231 101.682 544.252 105.097 542.297 107.741C540.368 110.385 537.434 111.707 533.496 111.707ZM575.18 119.804H585.138V84.0293H600.055V75.189H560.264V84.0293H575.18V119.804ZM646.56 75.189H638.668L617.347 103.569V75.189H607.803V119.804H615.777L637.015 90.6802V119.804H646.56V75.189ZM658.08 119.804H668.038V84.525H686.88V119.804H696.838V75.189H658.08V119.804ZM740.85 121.043C744.129 121.043 747.131 120.492 749.858 119.391C752.585 118.289 754.775 116.664 756.428 114.516C758.08 112.368 758.907 109.738 758.907 106.626C758.907 104.505 758.481 102.55 757.626 100.76C756.772 98.9696 755.547 97.5101 753.948 96.3809C756.318 93.7371 757.502 90.694 757.502 87.2515C757.502 84.3323 756.731 81.895 755.188 79.9396C753.673 77.9568 751.663 76.4696 749.155 75.4782C746.676 74.4592 744.005 73.9497 741.139 73.9497C737.697 73.9497 734.433 74.5968 731.347 75.8913C728.262 77.1581 725.493 78.8931 723.041 81.0963L728.661 87.8711C730.314 86.5767 732.187 85.4751 734.28 84.5663C736.375 83.6575 738.495 83.2031 740.644 83.2031C742.434 83.2031 743.977 83.5887 745.271 84.3598C746.594 85.1034 747.255 86.3701 747.255 88.1603C747.255 90.1707 746.415 91.4651 744.734 92.0434C743.054 92.5942 740.947 92.8696 738.412 92.8696H735.148V100.76H738.454C740.244 100.76 741.924 100.829 743.495 100.966C745.065 101.104 746.333 101.517 747.296 102.206C748.26 102.867 748.742 104.009 748.742 105.634C748.742 107.479 748.027 108.953 746.594 110.054C745.162 111.156 743.192 111.707 740.685 111.707C738.288 111.707 736.113 111.197 734.156 110.178C732.201 109.132 730.425 107.659 728.826 105.758L720.975 111.005C722.987 114.144 725.741 116.609 729.239 118.399C732.739 120.162 736.608 121.043 740.85 121.043ZM780.477 121.043C784.03 121.043 787.046 120.465 789.526 119.308C792.032 118.124 794.236 116.292 796.137 113.814V119.804H804.855V92.4152C804.855 90.4874 804.773 88.7111 804.607 87.0862C804.442 85.4338 803.96 83.8228 803.161 82.253C801.701 79.3062 799.457 77.1857 796.426 75.8913C793.424 74.5968 789.939 73.9497 785.972 73.9497C780.739 73.9497 776.566 75.0926 773.452 77.3784C770.339 79.6643 768.232 82.6936 767.131 86.4666L776.221 89.317C776.965 87.0311 778.273 85.42 780.146 84.4837C782.02 83.5474 783.962 83.0792 785.972 83.0792C789.003 83.0792 791.234 83.6988 792.666 84.9381C794.098 86.1499 794.911 88.0364 795.104 90.5976C791.193 91.1759 787.557 91.7404 784.195 92.2913C780.863 92.8145 778.025 93.4617 775.684 94.2328C772.157 95.4446 769.583 97.1658 767.957 99.3966C766.331 101.6 765.519 104.326 765.519 107.576C765.519 110.027 766.083 112.271 767.213 114.309C768.37 116.347 770.064 117.986 772.295 119.225C774.527 120.437 777.254 121.043 780.477 121.043ZM782.46 113.111C780.119 113.111 778.328 112.574 777.089 111.5C775.876 110.426 775.27 109.077 775.27 107.452C775.27 105.992 775.739 104.808 776.675 103.899C777.64 102.991 778.975 102.219 780.683 101.586C782.253 101.063 784.14 100.608 786.344 100.223C788.548 99.8096 791.426 99.3277 794.98 98.7769C794.953 99.8235 794.883 100.994 794.773 102.288C794.663 103.555 794.401 104.698 793.988 105.717C793.658 106.736 793.011 107.824 792.046 108.98C791.11 110.137 789.842 111.115 788.245 111.913C786.648 112.712 784.718 113.111 782.46 113.111ZM842.487 119.804H852.651V60.3175H842.487L831.33 67.0097V77.9981L842.487 71.1819V119.804ZM889.795 121.043C894.037 121.043 897.756 120.148 900.951 118.358C904.174 116.54 906.681 114.02 908.472 110.798C910.29 107.576 911.199 103.858 911.199 99.6444V80.4767C911.199 76.2356 910.29 72.5177 908.472 69.323C906.681 66.1008 904.174 63.5947 900.951 61.8046C897.756 59.987 894.037 59.0782 889.795 59.0782C885.553 59.0782 881.82 59.987 878.598 61.8046C875.402 63.5947 872.895 66.1008 871.077 69.323C869.287 72.5177 868.392 76.2356 868.392 80.4767V99.6444C868.392 103.858 869.287 107.576 871.077 110.798C872.895 114.02 875.402 116.54 878.598 118.358C881.82 120.148 885.553 121.043 889.795 121.043ZM889.795 111.583C887.702 111.583 885.801 111.087 884.093 110.096C882.413 109.077 881.063 107.727 880.044 106.047C879.052 104.34 878.556 102.44 878.556 100.347V79.7331C878.556 77.6125 879.052 75.7122 880.044 74.0323C881.063 72.3248 882.413 70.9754 884.093 69.984C885.801 68.965 887.702 68.4555 889.795 68.4555C891.888 68.4555 893.776 68.965 895.456 69.984C897.164 70.9754 898.514 72.3248 899.505 74.0323C900.524 75.7122 901.034 77.6125 901.034 79.7331V100.347C901.034 102.44 900.524 104.34 899.505 106.047C898.514 107.727 897.164 109.077 895.456 110.096C893.776 111.087 891.888 111.583 889.795 111.583ZM936.023 129.718H945.403V119.804H973.99V129.718H983.411V111.996H978.913V75.189H945.692C945.471 80.2013 945.209 84.8417 944.907 89.1104C944.604 93.3515 944.176 97.2898 943.626 100.925C943.019 105.001 942.193 107.865 941.147 109.517C940.127 111.17 938.42 111.996 936.023 111.996V129.718ZM949.37 111.996C950.444 110.894 951.215 109.614 951.683 108.154C952.151 106.667 952.523 104.753 952.799 102.412C953.184 99.7683 953.501 96.6976 953.749 93.2001C954.024 89.7026 954.245 86.3013 954.411 82.9966H968.996V111.996H949.37ZM991.628 119.804H1001.58V102.123H1021.63V119.804H1031.58V75.189H1021.63V92.787H1001.58V75.189H991.628V119.804ZM1063.39 121.043C1067.69 121.043 1071.62 119.941 1075.18 117.738C1078.75 115.507 1081.4 112.368 1083.11 108.319L1073.27 105.345C1071.29 109.586 1067.81 111.707 1062.82 111.707C1059.43 111.707 1056.76 110.729 1054.8 108.774C1052.85 106.791 1051.68 103.954 1051.29 100.264H1083.6C1083.99 94.8938 1083.39 90.2396 1081.82 86.3013C1080.25 82.3631 1077.84 79.32 1074.6 77.1719C1071.37 75.0238 1067.44 73.9497 1062.82 73.9497C1058.44 73.9497 1054.59 74.9411 1051.25 76.924C1047.92 78.8794 1045.32 81.6608 1043.44 85.2686C1041.57 88.8764 1040.63 93.1175 1040.63 97.992C1040.63 102.509 1041.58 106.502 1043.48 109.972C1045.41 113.442 1048.08 116.155 1051.49 118.11C1054.92 120.065 1058.88 121.043 1063.39 121.043ZM1063.23 82.6661C1066.32 82.6661 1068.68 83.4785 1070.34 85.1034C1072.02 86.7006 1073.09 89.2481 1073.52 92.7457H1051.54C1052.72 86.026 1056.62 82.6661 1063.23 82.6661ZM1113.44 70.1492C1115.75 70.1492 1117.86 69.5847 1119.77 68.4555C1121.67 67.3263 1123.17 65.8255 1124.26 63.9527C1125.4 62.0525 1125.96 59.9457 1125.96 57.6323H1118.2C1118.2 58.9542 1117.72 60.0834 1116.79 61.0197C1115.88 61.9285 1114.76 62.383 1113.44 62.383C1112.12 62.383 1110.99 61.9285 1110.05 61.0197C1109.14 60.0834 1108.69 58.9542 1108.69 57.6323H1100.92C1100.92 59.9457 1101.49 62.0525 1102.61 63.9527C1103.75 65.8255 1105.24 67.3263 1107.12 68.4555C1109.02 69.5847 1111.12 70.1492 1113.44 70.1492ZM1131.5 75.189H1123.6L1102.28 103.569V75.189H1092.74V119.804H1100.71L1121.95 90.6802V119.804H1131.5V75.189Z" fill="black"/>
<path d="M808.862 12.6312C807.854 17.2482 813.231 30.7328 821.377 43.9322C841.428 76.2813 840.937 95.7518 819.153 134.813C815.647 140.971 812.458 147.317 812.061 148.908C810.957 153.036 813.982 152.306 820.875 146.595C830.595 138.609 843.973 134.949 859.504 136.088C861.866 136.26 866.527 138.027 869.942 139.819C885.715 148.741 888.178 149.969 891.85 151.316C894.851 152.431 897.507 154.637 902.345 160.362C908.006 166.874 909.091 167.783 910.646 166.812C913.237 165.193 912.449 161.637 908.221 155.51C904.388 149.849 903.753 149.473 887.329 140.531C883.223 138.295 877.176 135.075 873.946 133.127C864.295 127.703 847.414 127.591 832.804 132.977L824.85 135.933L826.979 132.08C836.168 114.844 842.223 96.1488 842.631 83.1386C842.974 71.5517 837.046 53.8545 828.7 41.167C824.095 34.2184 818.32 22.3248 818.605 20.6007C818.786 19.8775 819.436 19.898 820.111 20.6969C822.812 23.8922 844.633 43.9057 851.833 49.8024C860.696 56.918 870.307 61.919 878.964 63.7313C893.431 66.7963 898.738 65.3927 911.901 55.2962L920.497 48.6026L917.638 54.214C912.269 64.9131 904.109 90.8636 903.392 99.5716C902.049 116.909 905.314 136.515 911.88 149.908C914.842 155.849 916.429 156.79 918.919 154.115C920.414 152.51 920.273 151.031 917.753 144.489C906.48 115.219 907.954 92.9774 923.588 56.945C929.002 44.6113 932.01 38.9884 938.854 29.0972C943.252 22.8703 943.689 21.7017 942.508 20.3038C940.595 18.0404 937.101 20.6513 927.81 31.5829C917.745 43.2837 903.148 55.6189 897.323 57.3462C892.37 58.7933 882.414 57.507 874.676 54.3469C865.745 50.7117 858.754 45.4371 840.115 28.4397C818.201 8.50428 817.546 7.91667 814.015 8.04807C810.187 8.20248 809.688 8.73747 808.862 12.6312Z" fill="#FBC400"/>
<path d="M272.614 37.6318L272.614 37.6318L272.613 37.6391C272.208 40.0709 271.094 43.7977 269.9 47.1173C269.3 48.7848 268.673 50.3714 268.092 51.664C267.53 52.9148 266.962 54.0069 266.465 54.5868L266.461 54.5909C265.957 55.1729 265.128 55.8471 264.238 56.471C263.333 57.1054 262.299 57.7335 261.338 58.2138L261.325 58.2203L261.312 58.2264C260.44 58.6313 259.787 59.0145 259.331 59.3649C258.861 59.7253 258.676 59.9936 258.616 60.1436C258.582 60.2312 258.581 60.2738 258.643 60.3701C258.739 60.5212 258.987 60.7658 259.535 61.054L259.535 61.054L259.543 61.0585C261.473 62.0974 263.67 64.5647 266.022 68.158L266.022 68.158L266.029 68.1688C266.928 69.581 268.313 71.4598 269.146 72.2928L269.155 72.3024L269.164 72.3122C270.56 73.7857 271.245 75.9467 271.831 79.3358L271.831 79.3358L271.832 79.342C272.029 80.52 272.175 81.3813 272.314 82.0247C272.456 82.6862 272.57 83.0163 272.665 83.1868C272.716 83.279 272.728 83.2749 272.733 83.2731C272.734 83.2728 272.734 83.2726 272.735 83.2728C272.838 83.3048 273.024 83.3212 273.514 83.3212C274.257 83.3212 274.323 83.2335 274.371 83.1686C274.374 83.1645 274.377 83.1605 274.38 83.1566C274.459 83.0562 274.572 82.8539 274.719 82.4291C274.863 82.012 275.017 81.4544 275.212 80.6904L275.212 80.6896C277.287 72.5913 283.475 63.6036 290.05 58.9742L290.05 58.9741L290.058 58.9682C291.032 58.2981 291.659 57.7682 292.005 57.3622C292.126 57.2208 292.19 57.1216 292.225 57.0578C292.141 57.0008 291.966 56.9027 291.619 56.7913C290.999 56.5923 290.067 56.4257 288.773 56.2977C287.048 56.135 285.81 55.9484 284.838 55.5899C283.805 55.2088 283.118 54.6517 282.449 53.8711C281.351 52.5908 280.277 50.4007 279.357 47.8689C278.426 45.3096 277.615 42.2962 277.085 39.2837C276.826 37.9582 276.552 36.6186 276.318 35.5391C276.089 34.4793 275.912 33.7336 275.83 33.4676C275.656 33.0779 275.374 32.809 275.111 32.6817C274.855 32.5575 274.686 32.5895 274.586 32.6485C274.297 32.8544 273.91 33.3464 273.53 34.2331C273.155 35.107 272.833 36.2598 272.614 37.6318ZM292.261 56.9661C292.261 56.9662 292.26 56.97 292.259 56.977C292.262 56.9696 292.262 56.966 292.261 56.9661ZM277.325 47.2435L277.325 47.2434L277.328 47.2537C278.18 49.9028 279.34 52.228 280.618 53.9916C281.913 55.7778 283.256 56.8885 284.435 57.2816L286.582 57.9973L288.174 58.5279L286.95 59.6755L284.871 61.6249C284.87 61.6253 284.87 61.6257 284.869 61.6262C283.786 62.6495 281.922 65.0856 280.123 67.7308C278.334 70.3624 276.711 73.0509 276.065 74.5517L275.225 76.6848L274.245 79.1707L273.352 76.6526L272.636 74.6356L272.633 74.6266L272.63 74.6175C272.05 72.8769 271.028 71.3465 265.121 63.9968L262.714 61.0042L262.057 60.1875L262.904 59.5696L265.312 57.8129L265.311 57.8128L265.32 57.8069C267.782 56.0483 270.236 51.9492 271.974 46.4143L271.974 46.4143L271.976 46.4068C272.305 45.3886 272.639 44.4337 272.93 43.7241C273.073 43.3742 273.218 43.0535 273.357 42.8079C273.424 42.6895 273.513 42.5479 273.622 42.4229C273.677 42.3604 273.762 42.2725 273.879 42.194C273.992 42.1188 274.203 42.0052 274.49 42.0052C274.891 42.0052 275.147 42.2349 275.201 42.2838L275.202 42.2847C275.295 42.368 275.362 42.4549 275.402 42.5109C275.487 42.6285 275.566 42.7664 275.633 42.8955C275.774 43.1629 275.937 43.5257 276.112 43.9469C276.465 44.796 276.897 45.9581 277.325 47.2435Z" fill="#0038FF" stroke="#0038FF" stroke-width="2"/>
<path d="M177.61 115.528C177.025 116.048 175.593 118.716 174.487 121.579C170.388 131.794 165.443 138.17 158.481 141.944C154.838 143.896 154.057 145.588 156.464 146.499C158.677 147.345 161.149 150.533 163.882 155.933C165.183 158.471 167.005 161.724 168.046 163.155C170.323 166.343 172.535 172.59 172.535 175.843C172.535 177.144 172.991 178.771 173.511 179.486C174.422 180.658 174.487 180.658 175.398 179.551C176.309 178.38 176.374 178.445 176.569 179.877C176.699 180.853 177.22 181.373 178.066 181.373C179.172 181.373 179.432 180.788 179.823 177.469C181.059 167.71 185.093 158.861 191.274 152.354C193.616 149.817 196.609 147.214 197.976 146.564C200.838 145.067 201.619 143.506 200.188 142.074C199.277 141.098 198.952 141.163 196.609 142.465C193.551 144.286 190.428 144.352 187.826 142.79C185.548 141.359 184.833 139.992 183.011 133.746C182.1 130.623 181.644 127.24 181.644 123.336C181.644 119.172 181.384 117.155 180.603 116.114C179.497 114.487 179.107 114.422 177.61 115.528ZM179.627 136.674C181.384 142.4 183.336 145.002 187.045 146.759L190.168 148.255L187.826 150.403C183.596 154.241 178.586 163.676 177.415 170.247C176.83 173.175 176.309 172.72 174.878 168.23C174.227 166.408 172.6 163.09 171.234 160.943C169.868 158.796 167.981 155.478 167.07 153.591C166.159 151.639 164.597 148.971 163.556 147.605L161.67 145.067L167.33 139.472C171.299 135.503 173.641 132.575 175.203 129.517L177.415 125.092L177.871 128.866C178.066 130.883 178.847 134.462 179.627 136.674Z" fill="#0038FF"/>
<path d="M693.552 129.377C635.789 140.461 616.25 131.965 588.129 142.759C567.869 150.535 500.866 144.966 464.991 141.245C449.537 139.642 434.095 137.85 418.577 137.088C398.645 136.109 384.156 136.586 364.425 138.636" stroke="#AD00FF" stroke-width="6" stroke-linecap="round"/>
<path d="M21.5262 80.4251C15.4262 82.1251 7.02618 86.7251 2.82618 90.7251C-0.373825 93.8251 -0.573825 94.1251 0.826175 96.2251C3.72618 100.625 26.1262 104.025 27.4262 100.325C27.8262 98.7251 27.3262 98.6251 17.2262 97.0251C4.42617 95.1251 4.42618 95.0251 12.1262 90.0251C15.8262 87.6251 21.1262 84.8251 24.0262 83.9251C26.8262 82.9251 29.1262 81.6251 29.1262 80.8251C29.1262 79.0251 26.9262 78.9251 21.5262 80.4251Z" fill="#FF000F"/>
<path d="M286.193 123.6C292.293 121.9 300.693 117.3 304.893 113.3C308.093 110.2 308.293 109.9 306.893 107.8C303.993 103.4 281.593 99.9995 280.293 103.7C279.893 105.3 280.393 105.4 290.493 107C303.293 108.9 303.293 109 295.593 114C291.893 116.4 286.593 119.2 283.693 120.1C280.893 121.1 278.593 122.4 278.593 123.2C278.593 125 280.793 125.1 286.193 123.6Z" fill="#FF000F"/>
<path d="M36.3262 82.9253C23.9262 87.4253 20.6262 89.3253 20.6262 92.0253C20.6262 94.0253 21.5262 94.4253 28.1262 95.5253C30.2262 95.9253 33.3262 96.8253 34.8262 97.6253C38.6262 99.6253 40.6262 99.4253 40.6262 96.9253C40.6262 95.4253 39.3262 94.3253 35.6262 92.7253L30.7262 90.6253L40.4262 87.0253C48.0262 84.1253 50.1262 82.9253 50.1262 81.4253C50.1262 78.5253 48.0262 78.8253 36.3262 82.9253Z" fill="#FF000F"/>
<path d="M271.393 121.099C283.793 116.599 287.093 114.699 287.093 111.999C287.093 109.999 286.193 109.599 279.593 108.499C277.493 108.099 274.393 107.199 272.893 106.399C269.093 104.399 267.093 104.599 267.093 107.099C267.093 108.599 268.393 109.699 272.093 111.299L276.993 113.399L267.293 116.999C259.693 119.899 257.593 121.099 257.593 122.599C257.593 125.499 259.693 125.199 271.393 121.099Z" fill="#FF000F"/>
</g>
<defs>
<clipPath id="clip0">
<rect width="1171" height="188" fill="white"/>
</clipPath>
</defs>
</svg>
