<svg width="98" height="42" viewBox="0 0 98 42" fill="none" xmlns="http://www.w3.org/2000/svg">
<path d="M87.7945 1H9.44027C4.77884 1 1 4.77884 1 9.44027V32.0969C1 36.7584 4.77884 40.5372 9.44027 40.5372H87.7945C92.456 40.5372 96.2348 36.7584 96.2348 32.0969V9.44027C96.2348 4.77884 92.456 1 87.7945 1Z" stroke="#0038FF" stroke-width="2"/>
<path d="M14.686 11.612V28.7761H17.15V16.3472H17.3092L22.3713 28.7509H24.4163L29.4783 16.3556H29.6376V28.7761H32.1016V11.612H28.9587L23.4944 24.9544H23.2932L17.8288 11.612H14.686ZM39.4118 29.061C41.5406 29.061 42.739 27.9799 43.2168 27.0161H43.3173V28.7761H45.7646V20.2276C45.7646 16.4813 42.8145 15.7354 40.7695 15.7354C38.4396 15.7354 36.2941 16.674 35.456 19.0207L37.8111 19.5571C38.1798 18.6436 39.1185 17.7636 40.8031 17.7636C42.4206 17.7636 43.2503 18.61 43.2503 20.0683V20.127C43.2503 21.0405 42.3116 21.0237 39.9985 21.2919C37.5596 21.5769 35.0621 22.2138 35.0621 25.1388C35.0621 27.6698 36.9646 29.061 39.4118 29.061ZM39.9566 27.0496C38.5402 27.0496 37.5177 26.4127 37.5177 25.1723C37.5177 23.8313 38.7078 23.3536 40.1577 23.1609C40.9707 23.0519 42.8983 22.834 43.2587 22.4736V24.1331C43.2587 25.6584 42.0434 27.0496 39.9566 27.0496ZM49.1023 28.7761H51.6082V23.6302H53.2341L57.1144 28.7761H60.2237L55.1784 22.1635L60.1651 15.903H57.0641L52.815 21.3003H51.6082V15.903H49.1023V28.7761ZM67.1883 29.0359C69.9959 29.0359 71.9822 27.653 72.5521 25.5578L70.1803 25.1304C69.7277 26.3456 68.6382 26.9658 67.2134 26.9658C65.0679 26.9658 63.6264 25.5746 63.5594 23.0938H72.7113V22.2054C72.7113 17.554 69.9289 15.7354 67.0123 15.7354C63.4253 15.7354 61.0618 18.4676 61.0618 22.4234C61.0618 26.4211 63.3917 29.0359 67.1883 29.0359ZM63.5677 21.2165C63.6683 19.3895 64.9925 17.8055 67.0291 17.8055C68.9734 17.8055 70.2473 19.247 70.2557 21.2165H63.5677ZM74.3561 18.0653H78.5717V28.7761H81.0189V18.0653H85.2178V15.903H74.3561V18.0653Z" fill="#0038FF"/>
</svg>
