<svg width="527" height="142" viewBox="0 0 527 142" fill="none" xmlns="http://www.w3.org/2000/svg">
<g clip-path="url(#clip0)">
<path d="M36.3086 140H21.2207V98.6914L21.3672 91.9043L21.6113 84.4824C19.1048 86.9889 17.3633 88.6328 16.3867 89.4141L8.18359 96.0059L0.908203 86.9238L23.9062 68.6133H36.3086V140ZM105.645 104.307C105.645 116.774 103.594 126.003 99.4922 131.992C95.4232 137.982 89.1406 140.977 80.6445 140.977C72.4089 140.977 66.1914 137.884 61.9922 131.699C57.8255 125.514 55.7422 116.383 55.7422 104.307C55.7422 91.709 57.7767 82.4316 61.8457 76.4746C65.9147 70.485 72.181 67.4902 80.6445 67.4902C88.8802 67.4902 95.0977 70.6152 99.2969 76.8652C103.529 83.1152 105.645 92.2624 105.645 104.307ZM70.7324 104.307C70.7324 113.063 71.4811 119.346 72.9785 123.154C74.5085 126.93 77.0638 128.818 80.6445 128.818C84.1602 128.818 86.6992 126.898 88.2617 123.057C89.8242 119.215 90.6055 112.965 90.6055 104.307C90.6055 95.5501 89.8079 89.2676 88.2129 85.459C86.6504 81.6178 84.1276 79.6973 80.6445 79.6973C77.0964 79.6973 74.5573 81.6178 73.0273 85.459C71.4974 89.2676 70.7324 95.5501 70.7324 104.307ZM178.359 104.307C178.359 116.774 176.309 126.003 172.207 131.992C168.138 137.982 161.855 140.977 153.359 140.977C145.124 140.977 138.906 137.884 134.707 131.699C130.54 125.514 128.457 116.383 128.457 104.307C128.457 91.709 130.492 82.4316 134.561 76.4746C138.63 70.485 144.896 67.4902 153.359 67.4902C161.595 67.4902 167.812 70.6152 172.012 76.8652C176.243 83.1152 178.359 92.2624 178.359 104.307ZM143.447 104.307C143.447 113.063 144.196 119.346 145.693 123.154C147.223 126.93 149.779 128.818 153.359 128.818C156.875 128.818 159.414 126.898 160.977 123.057C162.539 119.215 163.32 112.965 163.32 104.307C163.32 95.5501 162.523 89.2676 160.928 85.459C159.365 81.6178 156.842 79.6973 153.359 79.6973C149.811 79.6973 147.272 81.6178 145.742 85.459C144.212 89.2676 143.447 95.5501 143.447 104.307ZM235.488 104.307C235.488 116.774 233.438 126.003 229.336 131.992C225.267 137.982 218.984 140.977 210.488 140.977C202.253 140.977 196.035 137.884 191.836 131.699C187.669 125.514 185.586 116.383 185.586 104.307C185.586 91.709 187.62 82.4316 191.689 76.4746C195.758 70.485 202.025 67.4902 210.488 67.4902C218.724 67.4902 224.941 70.6152 229.141 76.8652C233.372 83.1152 235.488 92.2624 235.488 104.307ZM200.576 104.307C200.576 113.063 201.325 119.346 202.822 123.154C204.352 126.93 206.908 128.818 210.488 128.818C214.004 128.818 216.543 126.898 218.105 123.057C219.668 119.215 220.449 112.965 220.449 104.307C220.449 95.5501 219.652 89.2676 218.057 85.459C216.494 81.6178 213.971 79.6973 210.488 79.6973C206.94 79.6973 204.401 81.6178 202.871 85.459C201.341 89.2676 200.576 95.5501 200.576 104.307ZM292.617 104.307C292.617 116.774 290.566 126.003 286.465 131.992C282.396 137.982 276.113 140.977 267.617 140.977C259.382 140.977 253.164 137.884 248.965 131.699C244.798 125.514 242.715 116.383 242.715 104.307C242.715 91.709 244.749 82.4316 248.818 76.4746C252.887 70.485 259.154 67.4902 267.617 67.4902C275.853 67.4902 282.07 70.6152 286.27 76.8652C290.501 83.1152 292.617 92.2624 292.617 104.307ZM257.705 104.307C257.705 113.063 258.454 119.346 259.951 123.154C261.481 126.93 264.036 128.818 267.617 128.818C271.133 128.818 273.672 126.898 275.234 123.057C276.797 119.215 277.578 112.965 277.578 104.307C277.578 95.5501 276.781 89.2676 275.186 85.459C273.623 81.6178 271.1 79.6973 267.617 79.6973C264.069 79.6973 261.53 81.6178 260 85.459C258.47 89.2676 257.705 95.5501 257.705 104.307ZM305.23 140V129.3H297.23V119.6H305.23V111.8H297.23V99.4H305.23V68.6H328.03C337.23 68.6 343.93 70.4667 348.13 74.2C352.397 77.9333 354.53 83.0667 354.53 89.6C354.53 93.4667 353.664 97.1 351.93 100.5C350.197 103.9 347.297 106.633 343.23 108.7C339.23 110.767 333.764 111.8 326.83 111.8H320.33V119.6H335.73V129.3H320.33V140H305.23ZM325.33 99.4C329.597 99.4 332.964 98.6667 335.43 97.2C337.964 95.7333 339.23 93.3667 339.23 90.1C339.23 84.0333 335.23 81 327.23 81H320.33V99.4H325.33Z" fill="black"/>
<path d="M409.639 3.04772L416.695 29.4865L444.127 10.5163L436.931 35.349L475.369 22.09L454.456 43.475L501.049 36.9105L467.969 53.2616L519.263 53.8786L476.469 63.9833L528.658 71.7359L479.325 74.8446L528.54 89.158L476.326 85.0402L518.915 104.853L467.693 93.8139L500.498 117.656L454.067 100.515L474.656 126.619L436.458 104.646L443.304 131.075L416.174 105.902L408.768 130.696L394.717 104.188L373.609 125.509L373.679 99.632L340.435 115.898L354.621 92.5721L311.706 102.577L338.956 83.5316L289.553 86.5333L327.846 73.181L275.619 68.9569L322.115 62.2881L270.937 51.1513L322.188 51.6606L275.854 34.4373L328.059 42.0868L290.007 20.0542L339.293 34.2767L312.344 9.06896L355.057 28.8096L341.21 2.2962L374.181 26.0909L374.464 0.238237L395.248 26.3223L409.639 3.04772Z" fill="#36D681"/>
<path d="M348.932 42.6834L357.318 43.9207C361.208 44.4946 363.933 45.4757 365.492 46.864C367.064 48.2541 367.669 50.1729 367.308 52.6204C367.064 54.2692 366.437 55.5783 365.425 56.5478C364.414 57.5173 363.088 58.0259 361.449 58.0736L361.421 58.2668C363.349 58.9331 364.695 59.8885 365.46 61.1332C366.238 62.3668 366.489 63.924 366.211 65.8047C365.837 68.3423 364.655 70.2013 362.664 71.3818C360.688 72.5512 358.123 72.9032 354.967 72.4375L344.765 70.9323L348.932 42.6834ZM351.829 55.0353L356.273 55.691C358.205 55.9761 359.66 55.8815 360.638 55.4072C361.618 54.92 362.217 53.9422 362.433 52.4737C362.629 51.1469 362.288 50.116 361.409 49.3809C360.543 48.6477 359.067 48.1272 356.98 47.8193L352.98 47.2292L351.829 55.0353ZM351.276 58.7838L349.956 67.7299L354.863 68.454C356.796 68.7391 358.305 68.5867 359.393 67.9969C360.495 67.3962 361.164 66.2971 361.399 64.6998C361.616 63.2313 361.274 62.0688 360.374 61.212C359.474 60.3553 358 59.7759 355.951 59.4737L351.276 58.7838ZM393.595 73.6947L393.983 72.8043C394.795 70.9629 395.47 69.5554 396.008 68.5819L402.522 57.6184L408.57 58.5107L405.417 79.8809L401.224 79.2623L403.769 62.0077L403.251 63.1157C402.365 65.1041 401.65 66.5583 401.107 67.4783L394.732 78.3044L391.292 77.797L388.327 65.5139C387.93 63.7442 387.616 61.7697 387.384 59.5902L384.839 76.8448L380.684 76.2319L383.837 54.8617L389.846 55.7483L392.813 67.7552C393.072 68.8594 393.332 70.8392 393.595 73.6947ZM425.28 82.8115L424.811 79.7019L424.656 79.6791C423.434 80.8281 422.265 81.5639 421.152 81.8866C420.04 82.1964 418.666 82.2306 417.03 81.9892C414.93 81.6794 413.372 80.8703 412.354 79.5619C411.349 78.2554 410.999 76.5652 411.305 74.4913C411.63 72.2886 412.694 70.7476 414.495 69.8683C416.296 68.9889 418.879 68.7448 422.243 69.1359L425.951 69.5645L426.119 68.4245C426.321 67.059 426.149 65.9939 425.603 65.229C425.073 64.4532 424.138 63.9665 422.798 63.7688C421.703 63.6073 420.63 63.6134 419.577 63.7872C418.525 63.961 417.503 64.1984 416.511 64.4996L415.521 61.0368C416.77 60.6024 418.106 60.3323 419.53 60.2265C420.956 60.1078 422.281 60.1388 423.505 60.3193C426.223 60.7203 428.183 61.6151 429.387 63.0035C430.603 64.3939 431.024 66.3578 430.65 68.8955L428.526 83.2904L425.28 82.8115ZM418.973 78.7222C420.622 78.9655 422.01 78.703 423.137 77.9347C424.278 77.1555 424.972 75.9351 425.217 74.2734L425.49 72.4184L422.73 72.1296C420.58 71.8914 418.968 72.0221 417.894 72.5217C416.835 73.0104 416.208 73.9116 416.014 75.2255C415.874 76.1788 416.048 76.9612 416.537 77.573C417.027 78.1719 417.84 78.5549 418.973 78.7222ZM444.139 85.9888C440.816 85.4985 438.356 84.1485 436.761 81.9388C435.18 79.7182 434.64 76.9075 435.142 73.5068C435.657 70.0159 436.931 67.4005 438.965 65.6604C440.998 63.9204 443.535 63.2746 446.575 63.7232C449.396 64.1394 451.498 65.3248 452.881 67.2794C454.265 69.2339 454.735 71.7119 454.292 74.7133L453.93 77.1672L439.69 75.0662C439.448 77.1496 439.773 78.8295 440.664 80.1061C441.556 81.3697 442.962 82.1431 444.882 82.4263C446.144 82.6125 447.334 82.6696 448.45 82.5973C449.581 82.5141 450.812 82.2878 452.143 81.9182L451.599 85.6087C450.413 85.9734 449.237 86.1816 448.071 86.2334C446.905 86.2851 445.595 86.2036 444.139 85.9888ZM446.068 67.1625C444.625 66.9496 443.398 67.2359 442.387 68.0212C441.389 68.8085 440.677 70.0657 440.251 71.7928L449.951 73.2239C450.186 71.4554 449.957 70.0594 449.266 69.0361C448.577 67.9999 447.51 67.3753 446.068 67.1625Z" fill="black"/>
</g>
<defs>
<clipPath id="clip0">
<rect width="527" height="142" fill="white"/>
</clipPath>
</defs>
</svg>
